<svg width="48" height="48" viewBox="0 0 48 48" fill="none" xmlns="http://www.w3.org/2000/svg">
<circle cx="24" cy="24" r="24" fill="#C4C4C4"/>
<path d="M34.5625 15H13.4375C12.0913 15 11 16.0073 11 17.25V30.75C11 31.9927 12.0913 33 13.4375 33H34.5625C35.9087 33 37 31.9927 37 30.75V17.25C37 16.0073 35.9087 15 34.5625 15ZM34.5625 17.25V19.1627C33.4239 20.0186 31.6087 21.3495 27.728 24.1545C26.8728 24.7754 25.1787 26.2672 24 26.2498C22.8215 26.2674 21.1268 24.7752 20.272 24.1545C16.392 21.3499 14.5763 20.0188 13.4375 19.1627V17.25H34.5625ZM13.4375 30.75V22.0499C14.6011 22.9054 16.2512 24.1059 18.7664 25.9239C19.8763 26.7304 21.8201 28.5108 24 28.5C26.1692 28.5108 28.0883 26.7563 29.2332 25.9243C31.7483 24.1064 33.3988 22.9055 34.5625 22.05V30.75H13.4375Z" fill="white"/>
</svg>
