<svg width="48" height="48" viewBox="0 0 48 48" fill="none" xmlns="http://www.w3.org/2000/svg">
<circle cx="24" cy="24" r="24" fill="#8BDA4D"/>
<path d="M32.4054 15.4875C30.1607 13.2375 27.1714 12 23.9946 12C17.4375 12 12.1018 17.3357 12.1018 23.8929C12.1018 25.9875 12.6482 28.0339 13.6875 29.8393L12 36L18.3054 34.3446C20.0411 35.2929 21.9964 35.7911 23.9893 35.7911H23.9946C30.5464 35.7911 36 30.4554 36 23.8982C36 20.7214 34.65 17.7375 32.4054 15.4875V15.4875ZM23.9946 33.7875C22.2161 33.7875 20.475 33.3107 18.9589 32.4107L18.6 32.1964L14.8607 33.1768L15.8571 29.5286L15.6214 29.1536C14.6304 27.5786 14.1107 25.7625 14.1107 23.8929C14.1107 18.4446 18.5464 14.0089 24 14.0089C26.6411 14.0089 29.1214 15.0375 30.9857 16.9071C32.85 18.7768 33.9964 21.2571 33.9911 23.8982C33.9911 29.3518 29.4429 33.7875 23.9946 33.7875V33.7875ZM29.4161 26.3839C29.1214 26.2339 27.6589 25.5161 27.3857 25.4196C27.1125 25.3179 26.9143 25.2696 26.7161 25.5696C26.5179 25.8696 25.95 26.5339 25.7732 26.7375C25.6018 26.9357 25.425 26.9625 25.1304 26.8125C23.3839 25.9393 22.2375 25.2536 21.0857 23.2768C20.7804 22.7518 21.3911 22.7893 21.9589 21.6536C22.0554 21.4554 22.0071 21.2839 21.9321 21.1339C21.8571 20.9839 21.2625 19.5214 21.0161 18.9268C20.775 18.3482 20.5286 18.4286 20.3464 18.4179C20.175 18.4071 19.9768 18.4071 19.7786 18.4071C19.5804 18.4071 19.2589 18.4821 18.9857 18.7768C18.7125 19.0768 17.9464 19.7946 17.9464 21.2571C17.9464 22.7196 19.0125 24.1339 19.1571 24.3321C19.3071 24.5304 21.2518 27.5304 24.2357 28.8214C26.1214 29.6357 26.8607 29.7054 27.8036 29.5661C28.3768 29.4804 29.5607 28.8482 29.8071 28.1518C30.0536 27.4554 30.0536 26.8607 29.9786 26.7375C29.9089 26.6036 29.7107 26.5286 29.4161 26.3839Z" fill="white"/>
</svg>
