<svg width="70" height="57" viewBox="0 0 70 57" fill="none" xmlns="http://www.w3.org/2000/svg">
<path d="M60.1732 9.70032C57.447 9.491 54.3621 8.87167 51.0041 7.85981C46.97 6.64384 43.0541 6.83155 39.3649 8.41735C38.8445 8.64102 38.6042 9.24409 38.8277 9.76444C39.0514 10.2845 39.6538 10.5254 40.1748 10.3016C43.4083 8.91159 46.8529 8.75053 50.4124 9.82336C53.9117 10.878 57.1429 11.5244 60.0162 11.7451C60.0429 11.7473 60.0695 11.7481 60.0958 11.7481C60.6265 11.7481 61.0758 11.3392 61.1171 10.8012C61.1604 10.2365 60.7378 9.74366 60.1732 9.70032Z" fill="#7BB77B"/>
<path d="M60.173 14.0582C57.4475 13.849 54.3628 13.2298 51.0041 12.2177C46.97 11.0017 43.0541 11.1894 39.3649 12.7752C38.8445 12.9989 38.6042 13.6019 38.8277 14.1223C39.0514 14.6425 39.6538 14.8833 40.1748 14.6595C43.4083 13.2694 46.8529 13.1084 50.4124 14.1812C53.9125 15.236 57.1436 15.8825 60.0163 16.1029C60.043 16.1051 60.0695 16.1059 60.0958 16.1059C60.6265 16.1059 61.0758 15.697 61.1171 15.1589C61.1604 14.5942 60.7378 14.1015 60.173 14.0582Z" fill="#7BB77B"/>
<path d="M60.1732 35.8481C57.4468 35.6388 54.3619 35.0195 51.0041 34.0075C46.9702 32.7915 43.0545 32.9793 39.3649 34.5651C38.8445 34.7888 38.6042 35.3919 38.8277 35.9122C39.0514 36.4323 39.6538 36.6732 40.1748 36.4494C43.4085 35.0594 46.8531 34.8986 50.4124 35.971C53.9116 37.0257 57.1428 37.6722 60.0162 37.8929C60.0429 37.8951 60.0695 37.8959 60.0958 37.8959C60.6265 37.8959 61.0758 37.487 61.1171 36.949C61.1604 36.3843 60.7378 35.8914 60.1732 35.8481Z" fill="#7BB77B"/>
<path d="M60.1732 40.2061C57.447 39.9967 54.3621 39.3774 51.0041 38.3656C46.97 37.1497 43.0541 37.3373 39.3649 38.9231C38.8445 39.1468 38.6042 39.7498 38.8277 40.2702C39.0514 40.7904 39.6538 41.0312 40.1748 40.8073C43.4083 39.4173 46.8529 39.2563 50.4124 40.3291C53.9117 41.3838 57.1429 42.0302 60.0162 42.2508C60.0429 42.253 60.0695 42.2538 60.0958 42.2538C60.6265 42.2538 61.0758 41.8449 61.1171 41.3069C61.1604 40.7423 60.7378 40.2494 60.1732 40.2061Z" fill="#7BB77B"/>
<path d="M60.1732 18.4163C57.4468 18.207 54.3619 17.5876 51.0041 16.5756C46.9702 15.3598 43.0545 15.5474 39.3649 17.1333C38.8445 17.357 38.6042 17.96 38.8277 18.4804C39.0514 19.0005 39.6538 19.2412 40.1748 19.0176C43.4085 17.6275 46.8531 17.4666 50.4124 18.5392C53.9116 19.5938 57.1428 20.2404 60.0162 20.461C60.0429 20.4632 60.0695 20.464 60.0958 20.464C60.6265 20.464 61.0758 20.0551 61.1171 19.5171C61.1604 18.9525 60.7378 18.4596 60.1732 18.4163Z" fill="#7BB77B"/>
<path d="M60.173 27.132C57.4475 26.923 54.3628 26.3038 51.0041 25.2916C46.9702 24.0757 43.0542 24.2634 39.3649 25.8492C38.8445 26.0728 38.6042 26.6759 38.8277 27.1963C39.0514 27.7165 39.6538 27.9572 40.1748 27.7334C43.4082 26.3436 46.8529 26.1825 50.4124 27.2552C53.9125 28.31 57.1436 28.9565 60.0163 29.177C60.043 29.1791 60.0695 29.1799 60.0958 29.1799C60.6265 29.1799 61.0758 28.771 61.1171 28.2329C61.1604 27.6682 60.7378 27.1755 60.173 27.132Z" fill="#7BB77B"/>
<path d="M60.1732 22.7742C57.447 22.5649 54.3621 21.9456 51.0041 20.9337C46.9704 19.7178 43.0542 19.9055 39.3649 21.4913C38.8445 21.7149 38.6042 22.318 38.8277 22.8384C39.0514 23.3584 39.6538 23.5993 40.1748 23.3755C43.4087 21.9855 46.8531 21.8246 50.4124 22.8973C53.9117 23.9519 57.1429 24.5983 60.0162 24.819C60.0429 24.8212 60.0695 24.822 60.0958 24.822C60.6265 24.822 61.0758 24.4131 61.1171 23.8751C61.1604 23.3104 60.7378 22.8176 60.1732 22.7742Z" fill="#7BB77B"/>
<path d="M60.173 31.4899C57.4471 31.2809 54.3622 30.6615 51.0041 29.6495C46.9702 28.4337 43.0545 28.6213 39.3649 30.2072C38.8445 30.4309 38.6042 31.034 38.8277 31.5543C39.0514 32.0744 39.6538 32.3151 40.1748 32.0915C43.4085 30.7015 46.8531 30.5407 50.4124 31.6131C53.912 32.6679 57.1431 33.3144 60.0163 33.5349C60.043 33.537 60.0695 33.5378 60.0958 33.5378C60.6265 33.5378 61.0758 33.1289 61.1171 32.5908C61.1604 32.0261 60.7378 31.5334 60.173 31.4899Z" fill="#7BB77B"/>
<path d="M9.90411 11.748C9.93036 11.748 9.95702 11.747 9.98368 11.7449C12.8571 11.5244 16.0882 10.8779 19.5875 9.82323C23.1469 8.75054 26.5914 8.91132 29.8251 10.3015C30.3453 10.5251 30.9485 10.2845 31.1722 9.7643C31.3958 9.24395 31.1554 8.64089 30.635 8.41722C26.9458 6.83128 23.0298 6.64384 18.9958 7.85968C15.6377 8.87153 12.5529 9.49087 9.82673 9.70018C9.26208 9.74339 8.83948 10.2364 8.88296 10.801C8.92411 11.339 9.3735 11.748 9.90411 11.748Z" fill="#7BB77B"/>
<path d="M9.90411 16.1059C9.93036 16.1059 9.95702 16.1049 9.98354 16.1029C12.8563 15.8826 16.0875 15.2359 19.5875 14.1811C23.1469 13.1085 26.5914 13.2691 29.8251 14.6594C30.3453 14.8829 30.9485 14.6424 31.1722 14.1222C31.3958 13.6019 31.1554 12.9988 30.635 12.7751C26.9458 11.1892 23.0298 11.0019 18.9958 12.2176C15.6371 13.2297 12.5522 13.8489 9.82686 14.0581C9.26208 14.1013 8.83948 14.5942 8.88296 15.1588C8.92411 15.6969 9.3735 16.1059 9.90411 16.1059Z" fill="#7BB77B"/>
<path d="M9.90411 37.8959C9.93036 37.8959 9.95702 37.895 9.98368 37.8929C12.8572 37.6724 16.0883 37.0257 19.5875 35.9711C23.1471 34.8981 26.5914 35.0594 29.8251 36.4494C30.3453 36.673 30.9485 36.4325 31.1722 35.9123C31.3958 35.3919 31.1554 34.7889 30.635 34.5652C26.9458 32.9793 23.0298 32.7918 18.9958 34.0075C15.6378 35.0195 12.553 35.6388 9.82673 35.8482C9.26208 35.8914 8.83948 36.3844 8.88296 36.949C8.92411 37.487 9.3735 37.8959 9.90411 37.8959Z" fill="#7BB77B"/>
<path d="M9.90411 42.2538C9.93036 42.2538 9.95702 42.2529 9.98368 42.2508C12.8571 42.0303 16.0882 41.3837 19.5875 40.3291C23.1469 39.2564 26.5914 39.417 29.8251 40.8073C30.3453 41.0307 30.9485 40.7904 31.1722 40.2702C31.3958 39.7498 31.1554 39.1467 30.635 38.9231C26.9458 37.3371 23.0298 37.1497 18.9958 38.3655C15.6377 39.3774 12.5529 39.9967 9.82673 40.206C9.26208 40.2492 8.83948 40.7423 8.88296 41.3069C8.92411 41.8449 9.3735 42.2538 9.90411 42.2538Z" fill="#7BB77B"/>
<path d="M9.90411 20.4639C9.93036 20.4639 9.95702 20.463 9.98368 20.4609C12.8572 20.2404 16.0883 19.5937 19.5875 18.5391C23.1471 17.4662 26.5914 17.6274 29.8251 19.0174C30.3453 19.241 30.9485 19.0005 31.1722 18.4803C31.3958 17.9599 31.1554 17.3569 30.635 17.1332C26.9458 15.5472 23.0298 15.3598 18.9958 16.5755C15.6378 17.5875 12.553 18.2068 9.82673 18.4161C9.26208 18.4594 8.83948 18.9524 8.88296 19.517C8.92411 20.055 9.3735 20.4639 9.90411 20.4639Z" fill="#7BB77B"/>
<path d="M9.90411 29.1799C9.93036 29.1799 9.95702 29.179 9.98354 29.177C12.8563 28.9567 16.0875 28.31 19.5875 27.2552C23.1469 26.1825 26.5914 26.3431 29.8251 27.7334C30.3453 27.957 30.9485 27.7165 31.1722 27.1963C31.3958 26.6759 31.1554 26.0729 30.635 25.8492C26.9459 24.2634 23.03 24.0758 18.9958 25.2916C15.6371 26.3038 12.5522 26.923 9.82686 27.132C9.26208 27.1753 8.83948 27.6682 8.88296 28.2329C8.92411 28.771 9.3735 29.1799 9.90411 29.1799Z" fill="#7BB77B"/>
<path d="M9.90411 24.822C9.93036 24.822 9.95702 24.821 9.98368 24.819C12.8571 24.5984 16.0882 23.9519 19.5875 22.8973C23.1468 21.8247 26.5913 21.9852 29.8251 23.3755C30.3453 23.5989 30.9485 23.3585 31.1722 22.8383C31.3958 22.318 31.1554 21.7149 30.635 21.4912C26.9455 19.9053 23.0298 19.7176 18.9958 20.9337C15.6377 21.9456 12.5529 22.5649 9.82673 22.7742C9.26208 22.8174 8.83948 23.3104 8.88296 23.8751C8.92411 24.4131 9.3735 24.822 9.90411 24.822Z" fill="#7BB77B"/>
<path d="M9.90411 33.5378C9.93036 33.5378 9.95702 33.5369 9.98354 33.5349C12.8568 33.3146 16.0879 32.6679 19.5875 31.6131C23.1471 30.5401 26.5914 30.7015 29.8251 32.0915C30.3453 32.3151 30.9485 32.0745 31.1722 31.5543C31.3958 31.034 31.1554 30.4309 30.635 30.2072C26.9458 28.6213 23.0298 28.4337 18.9958 29.6495C15.6377 30.6615 12.5526 31.2809 9.82686 31.4899C9.26208 31.5332 8.83948 32.0261 8.88296 32.5908C8.92411 33.1289 9.3735 33.5378 9.90411 33.5378Z" fill="#7BB77B"/>
<path d="M67.4956 5.83056H65.8904V4.89499C65.8904 3.58385 64.7719 2.5467 63.4619 2.65102C61.9489 2.77201 58.6358 2.7794 53.4456 1.46334C52.8964 1.32375 52.3386 1.65638 52.1997 2.20518C52.0604 2.75424 52.3926 3.31206 52.9415 3.4511C58.1443 4.7703 61.6235 4.85603 63.6259 4.69511C63.7425 4.6869 63.8394 4.77755 63.8394 4.89499V46.2739C59.9552 46.6929 54.7665 45.581 51.0042 44.4473C42.6013 41.9149 37.169 46.2657 36.0253 46.8856V5.89851C37.1332 4.85931 41.5989 1.17855 48.2452 2.24797C48.804 2.33875 49.3305 1.95785 49.4206 1.39867C49.5107 0.839623 49.1305 0.313391 48.5713 0.223293C41.5925 -0.901087 36.7767 2.50787 34.9974 4.06032C30.9178 0.522298 25.0824 -1.04929 18.9956 0.785483C12.4628 2.75424 8.38609 2.79867 6.53805 2.65115C5.22637 2.54588 4.10978 3.58631 4.10978 4.89499V5.83056H2.50429C1.12342 5.83056 0 6.95385 0 8.33485V49.9171C0 51.2981 1.12356 52.4214 2.50442 52.4214H29.0725C29.4707 52.4214 29.8317 52.6411 29.9925 52.9815C31.9826 57.1919 38.0099 57.2073 40.0072 52.9815C40.1681 52.6413 40.5292 52.4214 40.9273 52.4214H67.4954C68.8763 52.4214 69.9996 51.2979 69.9996 49.9171V30.4708C69.9996 29.9044 69.5406 29.4454 68.9742 29.4454C68.4078 29.4454 67.9488 29.9044 67.9488 30.4708V49.9169C67.9488 50.167 67.7455 50.3704 67.4954 50.3704H40.9275C39.7402 50.3704 38.6514 51.0512 38.1533 52.105C36.8998 54.7567 33.1048 54.7672 31.8467 52.1051C31.3488 51.0514 30.2599 50.3704 29.0725 50.3704H2.50442C2.25423 50.3704 2.05079 50.167 2.05079 49.9169V8.33485C2.05079 8.08479 2.25423 7.88135 2.50429 7.88135H4.10978V47.149C4.10978 47.6143 4.42301 48.0213 4.87281 48.1403C5.06777 48.1919 9.76436 49.3714 19.5875 46.4109C24.3403 44.9786 28.9275 45.8569 32.5671 48.4235C33.9743 49.4157 35.9334 49.4813 37.4333 48.4234C39.6314 46.8733 44.2399 44.551 50.4128 46.4109C60.2363 49.3713 64.9325 48.1918 65.1275 48.1403C65.5773 48.0213 65.8905 47.6143 65.8905 47.149V7.88135H67.4957C67.7458 7.88135 67.9492 8.08479 67.9492 8.33485V25.6856C67.9492 26.252 68.4082 26.711 68.9746 26.711C69.541 26.711 70 26.252 70 25.6856V8.33485C69.9999 6.95385 68.8764 5.83056 67.4956 5.83056ZM6.16057 4.89499C6.16057 4.78001 6.2545 4.68677 6.37413 4.69511C8.36613 4.85534 12.7323 4.81487 19.5875 2.74891C25.1393 1.07628 30.4431 2.59264 33.9746 5.89933V46.8856C33.3864 46.5672 27.6207 41.8476 18.9956 44.4475C18.4426 44.6141 17.8348 44.7872 17.2723 44.9375C17.2655 44.9393 17.2586 44.9412 17.2519 44.9429C13.9502 45.8237 9.55791 46.6403 6.16043 46.2745C6.16057 43.4244 6.16057 5.65925 6.16057 4.89499Z" fill="#7BB77B"/>
</svg>
