<svg width="70" height="42" viewBox="0 0 70 42" fill="none" xmlns="http://www.w3.org/2000/svg">
<path d="M69 42L1 42C0.734784 42 0.48043 41.8946 0.292893 41.7071C0.105357 41.5196 2.08457e-08 41.2652 2.08457e-08 41L2.08457e-08 30.8C-4.70301e-05 30.5695 0.0795566 30.346 0.225339 30.1674C0.371121 29.9888 0.574127 29.8661 0.8 29.82C2.83452 29.4069 4.66365 28.3031 5.97748 26.6957C7.29131 25.0882 8.00902 23.076 8.00902 21C8.00902 18.924 7.29131 16.9118 5.97748 15.3043C4.66365 13.6969 2.83452 12.5931 0.8 12.18C0.574127 12.1339 0.371121 12.0112 0.225339 11.8326C0.0795566 11.654 -4.70301e-05 11.4305 2.08457e-08 11.2L2.08457e-08 1C2.08457e-08 0.734783 0.105357 0.480429 0.292893 0.292892C0.48043 0.105356 0.734784 0 1 0L69 0C69.2652 0 69.5196 0.105356 69.7071 0.292892C69.8946 0.480429 70 0.734783 70 1V11.2C70 11.4305 69.9204 11.654 69.7747 11.8326C69.6289 12.0112 69.4259 12.1339 69.2 12.18C67.1655 12.5931 65.3363 13.6969 64.0225 15.3043C62.7087 16.9118 61.991 18.924 61.991 21C61.991 23.076 62.7087 25.0882 64.0225 26.6957C65.3363 28.3031 67.1655 29.4069 69.2 29.82C69.4259 29.8661 69.6289 29.9888 69.7747 30.1674C69.9204 30.346 70 30.5695 70 30.8V41C70 41.2652 69.8946 41.5196 69.7071 41.7071C69.5196 41.8946 69.2652 42 69 42ZM2 40L68 40V31.585C65.6948 30.9332 63.6654 29.5467 62.2202 27.6362C60.775 25.7256 59.993 23.3956 59.993 21C59.993 18.6044 60.775 16.2743 62.2202 14.3638C63.6654 12.4533 65.6948 11.0668 68 10.415V2L2 2L2 10.415C4.30519 11.0668 6.33458 12.4533 7.7798 14.3638C9.22502 16.2743 10.007 18.6044 10.007 21C10.007 23.3956 9.22502 25.7256 7.7798 27.6362C6.33458 29.5467 4.30519 30.9332 2 31.585L2 40Z" fill="#7BB77B"/>
<path d="M50 5.636C49.7348 5.636 49.4804 5.53064 49.2929 5.34311C49.1054 5.15557 49 4.90122 49 4.636V1C49 0.734783 49.1054 0.480429 49.2929 0.292892C49.4804 0.105356 49.7348 0 50 0C50.2652 0 50.5196 0.105356 50.7071 0.292892C50.8946 0.480429 51 0.734783 51 1V4.636C51 4.90122 50.8946 5.15557 50.7071 5.34311C50.5196 5.53064 50.2652 5.636 50 5.636Z" fill="#7BB77B"/>
<path d="M50 14.7271C49.7348 14.7271 49.4804 14.6217 49.2929 14.4342C49.1054 14.2466 49 13.9923 49 13.7271V10.0911C49 9.82585 49.1054 9.5715 49.2929 9.38396C49.4804 9.19642 49.7348 9.09106 50 9.09106C50.2652 9.09106 50.5196 9.19642 50.7071 9.38396C50.8946 9.5715 51 9.82585 51 10.0911V13.7271C51 13.9923 50.8946 14.2466 50.7071 14.4342C50.5196 14.6217 50.2652 14.7271 50 14.7271Z" fill="#7BB77B"/>
<path d="M50 23.818C49.7348 23.818 49.4804 23.7127 49.2929 23.5251C49.1054 23.3376 49 23.0832 49 22.818V19.182C49 18.9168 49.1054 18.6624 49.2929 18.4749C49.4804 18.2874 49.7348 18.182 50 18.182C50.2652 18.182 50.5196 18.2874 50.7071 18.4749C50.8946 18.6624 51 18.9168 51 19.182V22.819C50.9997 23.0841 50.8943 23.3381 50.7068 23.5255C50.5192 23.7128 50.265 23.818 50 23.818Z" fill="#7BB77B"/>
<path d="M50 32.909C49.7348 32.909 49.4804 32.8036 49.2929 32.6161C49.1054 32.4285 49 32.1742 49 31.909V28.2729C49 28.0077 49.1054 27.7534 49.2929 27.5658C49.4804 27.3783 49.7348 27.2729 50 27.2729C50.2652 27.2729 50.5196 27.3783 50.7071 27.5658C50.8946 27.7534 51 28.0077 51 28.2729V31.909C51 32.1742 50.8946 32.4285 50.7071 32.6161C50.5196 32.8036 50.2652 32.909 50 32.909Z" fill="#7BB77B"/>
<path d="M50 42C49.7348 42 49.4804 41.8947 49.2929 41.7071C49.1054 41.5196 49 41.2652 49 41V37.364C49 37.0988 49.1054 36.8444 49.2929 36.6569C49.4804 36.4694 49.7348 36.364 50 36.364C50.2652 36.364 50.5196 36.4694 50.7071 36.6569C50.8946 36.8444 51 37.0988 51 37.364V41C51 41.2652 50.8946 41.5196 50.7071 41.7071C50.5196 41.8947 50.2652 42 50 42Z" fill="#7BB77B"/>
<path d="M18.929 31.5421C18.7312 31.542 18.5379 31.4834 18.3735 31.3735C18.2091 31.2636 18.081 31.1074 18.0053 30.9247C17.9296 30.742 17.9098 30.541 17.9484 30.347C17.987 30.1531 18.0822 29.9749 18.222 29.8351L36.754 11.2931C36.8462 11.1976 36.9566 11.1214 37.0786 11.069C37.2006 11.0166 37.3318 10.989 37.4646 10.9878C37.5974 10.9867 37.729 11.012 37.8519 11.0623C37.9748 11.1125 38.0865 11.1868 38.1804 11.2807C38.2743 11.3746 38.3485 11.4862 38.3988 11.6091C38.4491 11.732 38.4744 11.8637 38.4732 11.9965C38.4721 12.1293 38.4445 12.2605 38.3921 12.3825C38.3397 12.5045 38.2635 12.6148 38.168 12.7071L19.636 31.2501C19.4483 31.4373 19.194 31.5423 18.929 31.5421Z" fill="#7BB77B"/>
<path d="M34.3812 32.019C33.4677 32.019 32.5746 31.7481 31.815 31.2406C31.0554 30.733 30.4634 30.0116 30.1138 29.1676C29.7642 28.3236 29.6727 27.3949 29.851 26.4989C30.0292 25.6029 30.4691 24.7799 31.1151 24.1339C31.7611 23.4879 32.5841 23.048 33.4801 22.8698C34.3761 22.6915 35.3048 22.783 36.1488 23.1326C36.9928 23.4822 37.7142 24.0742 38.2218 24.8338C38.7293 25.5934 39.0002 26.4865 39.0002 27.4C38.9986 28.6246 38.5115 29.7985 37.6456 30.6644C36.7797 31.5303 35.6058 32.0174 34.3812 32.019ZM34.3812 24.78C33.8633 24.78 33.3569 24.9336 32.9263 25.2213C32.4956 25.5091 32.1599 25.918 31.9617 26.3965C31.7634 26.875 31.7115 27.4016 31.8125 27.9096C31.9134 28.4176 32.1628 28.8843 32.5289 29.2506C32.8951 29.6169 33.3617 29.8664 33.8697 29.9676C34.3776 30.0687 34.9042 30.017 35.3828 29.8189C35.8613 29.6209 36.2704 29.2853 36.5583 28.8548C36.8462 28.4242 37 27.918 37.0002 27.4C36.9997 26.7055 36.7236 26.0395 36.2326 25.5483C35.7416 25.0571 35.0757 24.7808 34.3812 24.78Z" fill="#7BB77B"/>
<path d="M21.619 19.1571C20.7055 19.1571 19.8125 18.8862 19.0529 18.3787C18.2934 17.8712 17.7013 17.1499 17.3517 16.3059C17.0021 15.462 16.9105 14.5333 17.0887 13.6373C17.2668 12.7413 17.7066 11.9183 18.3525 11.2723C18.9984 10.6263 19.8213 10.1863 20.7173 10.0079C21.6132 9.82961 22.5419 9.92093 23.3859 10.2704C24.23 10.6198 24.9514 11.2117 25.4591 11.9712C25.9667 12.7306 26.2378 13.6236 26.238 14.5371C26.2367 15.7618 25.7496 16.936 24.8837 17.8021C24.0178 18.6682 22.8437 19.1555 21.619 19.1571ZM21.619 11.9181C21.101 11.9181 20.5947 12.0717 20.164 12.3594C19.7333 12.6472 19.3976 13.0563 19.1994 13.5348C19.0011 14.0134 18.9493 14.54 19.0503 15.048C19.1514 15.556 19.4008 16.0227 19.7671 16.389C20.1334 16.7553 20.6 17.0047 21.1081 17.1057C21.6161 17.2068 22.1427 17.1549 22.6212 16.9567C23.0998 16.7585 23.5088 16.4228 23.7966 15.9921C24.0844 15.5614 24.238 15.0551 24.238 14.5371C24.2372 13.8427 23.961 13.177 23.47 12.686C22.9791 12.195 22.3134 11.9189 21.619 11.9181Z" fill="#7BB77B"/>
</svg>
