<svg width="65" height="60" viewBox="0 0 65 60" fill="none" xmlns="http://www.w3.org/2000/svg">
<path d="M59.4374 0H4.69737C2.10718 0 0 2.10718 0 4.69737V46.0342C0 48.6244 2.10718 50.7316 4.69737 50.7316H24.7466L23.6159 54.6891C23.1618 56.2785 21.3818 57.6211 19.7289 57.6211H12.6516C12.1327 57.6211 11.7121 58.0416 11.7121 58.5605C11.7121 59.0795 12.1327 59.5 12.6516 59.5H51.4832C52.002 59.5 52.4226 59.0795 52.4226 58.5605C52.4226 58.0416 52.002 57.6211 51.4832 57.6211H44.4058C42.7529 57.6211 40.973 56.2784 40.5189 54.6891L39.3881 50.7316H59.4374C62.0276 50.7316 64.1347 48.6244 64.1347 46.0342V4.69737C64.1347 2.10718 62.0276 0 59.4374 0ZM4.69737 1.87895H59.4374C60.9915 1.87895 62.2558 3.14335 62.2558 4.69737V37.5789H1.87895V4.69737C1.87895 3.14335 3.14323 1.87895 4.69737 1.87895ZM38.7122 55.2054C38.97 56.1079 39.4824 56.937 40.1542 57.6211H23.9805C24.6523 56.937 25.1647 56.1077 25.4225 55.2054L26.7007 50.7316H37.4339L38.7122 55.2054ZM59.4374 48.8526H4.69737C3.14323 48.8526 1.87895 47.5882 1.87895 46.0342V39.4579H62.2558V46.0342C62.2558 47.5882 60.9915 48.8526 59.4374 48.8526Z" fill="#7BB77B"/>
<path d="M4.69729 35.7H59.4373C59.9561 35.7 60.3768 35.2795 60.3768 34.7606V4.69741C60.3768 4.17844 59.9561 3.75793 59.4373 3.75793H4.69729C4.17845 3.75793 3.75781 4.17844 3.75781 4.69741V17.85C3.75781 18.369 4.17845 18.7895 4.69729 18.7895C5.21613 18.7895 5.63676 18.369 5.63676 17.85V5.63688H58.4978V33.8211H5.63676V21.6079C5.63676 21.089 5.21613 20.6685 4.69729 20.6685C4.17845 20.6685 3.75781 21.089 3.75781 21.6079V34.7606C3.75781 35.2795 4.17845 35.7 4.69729 35.7Z" fill="#7BB77B"/>
<path d="M32.0674 41.3368C30.5133 41.3368 29.249 42.6012 29.249 44.1552C29.249 45.7092 30.5133 46.9736 32.0674 46.9736C33.6216 46.9736 34.8859 45.7092 34.8859 44.1552C34.8859 42.6012 33.6216 41.3368 32.0674 41.3368ZM32.0674 45.0947C31.5494 45.0947 31.128 44.6733 31.128 44.1552C31.128 43.6371 31.5494 43.2157 32.0674 43.2157C32.5855 43.2157 33.0069 43.6371 33.0069 44.1552C33.0069 44.6733 32.5855 45.0947 32.0674 45.0947Z" fill="#7BB77B"/>
</svg>
