<svg width="116" height="129" viewBox="0 0 116 129" fill="none" xmlns="http://www.w3.org/2000/svg">
<path d="M111.512 114.11C111.512 115.31 110.912 116.41 110.012 117.11C109.612 116.81 109.212 116.61 108.812 116.51C108.612 115.51 108.212 114.51 107.712 113.81C107.312 113.31 106.512 113.71 106.812 114.31C107.412 115.41 107.612 116.51 107.512 117.71C107.412 118.81 106.812 119.61 106.512 120.61C106.412 121.11 107.012 121.61 107.412 121.31C108.212 120.71 108.712 119.81 108.812 118.81C109.612 119.71 110.112 120.61 109.712 122.01C109.412 123.21 108.512 124.01 107.412 124.41C106.812 124.61 106.212 124.71 105.512 124.71C105.412 124.71 105.212 124.71 105.012 124.81C103.912 125.41 103.212 126.41 101.812 126.61C100.312 126.71 99.1118 126.01 98.2118 124.81C98.0118 124.51 97.7118 124.51 97.5118 124.71C97.4118 124.71 97.4118 124.71 97.3118 124.71C95.5118 125.11 93.9118 125.91 92.1118 125.01C90.4118 124.21 89.5118 122.41 89.2118 120.61C89.1118 120.11 88.7118 120.01 88.3118 120.11C83.5118 120.11 81.6118 114.31 85.5118 111.81C85.6118 111.91 85.6118 111.91 85.7118 112.01C85.7118 112.11 85.6118 112.11 85.6118 112.21C85.3118 113.21 85.0118 114.91 85.9118 115.61C86.2118 115.91 86.8118 115.81 86.9118 115.41C87.1118 114.61 86.7118 113.71 86.9118 112.91C87.1118 111.91 87.7118 111.01 88.5118 110.51C89.0118 110.11 88.6118 109.31 88.0118 109.61C87.5118 109.91 87.0118 110.21 86.7118 110.61C86.0118 109.11 85.3118 107.51 87.1118 106.41C88.6118 105.51 90.3118 105.31 91.7118 104.21C92.0118 104.21 92.2118 104.01 92.2118 103.71C92.6118 101.51 94.5118 99.6097 96.6118 100.61C96.9118 100.71 97.2118 101.01 97.6118 101.31C98.0118 101.61 98.3118 101.61 98.7118 101.41C100.312 100.61 101.912 101.21 102.712 102.51C102.712 102.51 102.712 102.61 102.712 102.71C101.712 102.51 100.612 102.51 99.6118 102.91C98.7118 103.21 99.0118 104.61 100.012 104.41C101.212 104.11 102.312 104.01 103.512 104.41C103.612 104.61 103.812 104.61 104.012 104.61C104.512 104.81 105.012 105.11 105.512 105.51C106.012 106.01 106.812 105.21 106.312 104.71C105.912 104.31 105.412 103.91 104.912 103.61C106.512 103.41 108.112 103.81 109.112 105.31C110.212 107.01 109.812 108.71 109.112 110.41C108.912 110.81 109.312 111.21 109.712 111.21C110.612 112.01 111.512 112.71 111.512 114.11Z" fill="white"/>
<path d="M87.3116 93.9102C87.3116 95.3102 88.0117 96.7102 87.2116 98.1102C86.7116 99.1102 85.8116 99.5102 84.8116 99.7102C84.5116 99.3102 83.6116 99.2102 83.4117 99.8102C82.9117 101.01 82.8116 102.21 81.6116 103.01C80.3116 103.81 79.1116 103.41 77.8116 103.61C77.7116 103.61 77.6116 103.71 77.5117 103.81H77.4117C75.9117 104.71 74.8117 105.91 73.0117 106.21C71.3117 106.51 69.9117 106.01 68.4117 105.51C68.4117 105.51 68.4116 105.51 68.3116 105.41C67.5116 105.11 66.8117 105.31 65.9117 105.31C65.0117 105.31 64.1116 105.11 63.2116 104.81C62.8116 104.61 62.5116 104.91 62.4116 105.21C61.2116 105.71 60.0116 106.01 58.7116 105.61C57.7116 105.31 56.7117 104.71 55.8116 104.11C55.7117 103.91 55.6116 103.71 55.3116 103.51C53.6116 103.01 51.8116 103.41 50.0117 103.01C48.3116 102.61 47.0116 101.81 45.9116 100.51C45.7116 100.31 45.5117 100.31 45.3116 100.31C44.2117 100.11 43.1116 100.41 42.0117 100.11C40.8116 99.7102 39.8116 98.9102 39.1116 97.8102C38.8116 97.3102 38.0117 97.4102 37.8116 97.9102C36.2117 97.6102 34.7116 97.6102 33.2116 96.7102C31.5116 95.8102 30.6116 94.4102 29.4116 93.1102C29.4116 92.8102 29.3116 92.5102 29.0116 92.3102C28.5116 92.0102 28.0116 92.0102 27.5116 91.9102C27.0116 91.8102 26.5116 91.5102 26.0116 91.2102C25.1116 90.5102 24.7116 89.5102 24.2116 88.5102C24.1116 88.3102 23.9116 88.2102 23.7116 88.2102C23.2116 87.7102 22.7116 87.7102 22.1116 87.5102C21.1116 87.3102 20.1116 87.0102 19.2116 86.5102C17.4116 85.5102 16.3116 84.1102 15.0116 82.4102C14.9116 82.3102 14.8116 82.2102 14.7116 82.1102C14.4116 81.7102 13.9116 81.6102 13.5116 81.3102C13.2116 81.0102 12.9116 80.6102 12.8116 80.1102C12.8116 80.0102 12.8116 80.0102 12.8116 79.9102C12.8116 79.6102 12.7116 79.3102 12.3116 79.1102C8.41165 77.2102 6.31165 74.0102 5.31165 69.9102V69.8102C5.41165 69.6102 5.41165 69.4102 5.31165 69.1102C4.41165 67.3102 2.91165 66.2102 2.41165 64.1102C1.91165 61.8102 2.51165 59.6102 3.61165 57.6102C3.71165 57.5102 3.81165 57.4102 3.81165 57.3102C3.91165 57.2102 3.91165 57.1102 4.01165 56.9102C4.31165 56.4102 3.91165 55.9102 3.51165 55.8102C3.01165 54.2102 2.61165 52.8102 3.01165 51.0102C3.51165 49.2102 4.71165 48.3102 5.61165 46.8102C5.61165 46.7102 5.71165 46.7102 5.71165 46.6102C5.91165 46.5102 6.01165 46.3102 6.01165 46.0102C6.01165 43.5102 5.61165 41.3102 7.01165 39.0102C8.31165 37.0102 10.5116 35.8102 12.8116 35.3102C13.3116 35.2102 13.4116 34.7102 13.3116 34.3102C14.3116 32.5102 14.4116 30.8102 16.5116 29.7102C18.3116 28.7102 20.6116 29.0102 22.4116 29.9102C21.6116 30.4102 20.9116 31.2102 20.7116 32.1102C20.6116 32.6102 21.1116 33.1102 21.6116 32.8102C22.4116 32.2102 23.0116 31.3102 23.8116 30.7102C24.8116 30.1102 25.9116 29.7102 27.0116 29.7102C27.8116 29.7102 27.8116 28.5102 27.0116 28.5102C26.4116 28.5102 25.9116 28.6102 25.3116 28.7102C28.2116 24.9102 32.1116 25.0102 35.6116 28.1102C35.8116 28.6102 36.4117 29.0102 37.0117 28.7102C39.3116 27.3102 41.6116 26.3102 44.3116 27.0102C46.7117 27.6102 48.1116 29.1102 49.6116 30.8102C49.6116 31.0102 49.8116 31.2102 50.0117 31.3102C50.2117 31.5102 50.5117 31.5102 50.8116 31.4102C52.2117 31.6102 53.3116 31.9102 54.1116 33.4102C54.3116 33.8102 54.9116 34.1102 55.3116 33.9102C57.7117 33.0102 60.1116 32.9102 62.4116 34.2102C63.7116 35.0102 64.5117 36.1102 65.4117 37.2102C65.1117 37.7102 65.3116 38.5102 66.1116 38.5102C68.3116 38.5102 70.1116 38.4102 72.0117 39.8102C73.2116 40.7102 73.8117 41.8102 74.4117 43.0102C73.5117 42.5102 72.4117 42.2102 71.6116 42.8102C71.4117 42.9102 71.4117 43.3102 71.5117 43.5102C72.2116 44.4102 73.6116 44.5102 74.5117 45.2102C74.8117 45.4102 75.1116 45.7102 75.4117 46.0102C75.8117 46.5102 76.2117 47.0102 76.4117 47.5102C76.5117 47.8102 76.6116 48.0102 76.7116 48.3102C76.9116 48.8102 77.7116 48.8102 77.7116 48.2102C77.7116 47.1102 77.3116 46.1102 76.7116 45.2102C77.5117 45.6102 78.4117 45.9102 79.1116 46.4102C80.6116 47.5102 81.3116 49.3102 80.7116 51.1102C80.7116 51.2102 80.7116 51.3102 80.7116 51.5102C80.6116 51.8102 80.7116 52.2102 81.1116 52.4102C81.5117 52.7102 81.8116 52.6102 82.1116 53.0102C82.4117 53.3102 82.5117 53.8102 82.6116 54.2102C83.0117 55.3102 83.5116 56.8102 84.8116 56.9102C85.3116 67.3102 87.1116 77.7102 89.2116 88.0102C88.7116 89.9102 87.8116 91.7102 86.1116 92.9102C85.5117 93.3102 86.0117 94.2102 86.7116 93.9102C87.0117 94.0102 87.1116 93.9102 87.3116 93.9102Z" fill="white"/>
<path d="M107.412 61.6104C104.712 74.7104 103.612 88.2104 104.312 101.51C104.212 101.51 104.112 101.51 104.112 101.51C103.112 99.5104 100.812 98.6104 98.4115 99.4104C97.9115 99.0104 97.3115 98.8104 96.7115 98.6104C95.7115 98.4104 94.7115 98.4104 93.8115 98.7104V98.6104C89.1115 76.2104 84.3115 53.6104 88.0115 30.6104C88.1115 30.0104 87.2115 29.7104 87.1115 30.3104C86.5115 33.0104 86.0115 35.6104 85.7115 38.3104C85.0115 36.5104 84.0115 34.8104 83.2115 33.1104C83.0115 32.6104 82.1115 33.0104 82.3115 33.5104C83.1115 35.6104 83.6115 38.0104 84.8115 39.9104C85.0115 40.2104 85.3115 40.3104 85.6115 40.2104C85.1115 45.2104 84.9115 50.1104 85.1115 55.1104C84.7115 54.4104 84.5115 53.6104 84.1115 52.8104C83.8115 52.0104 83.3115 51.4104 82.5115 51.1104C84.5115 47.5104 79.9115 43.3104 76.2115 43.2104C76.2115 42.8104 76.1115 42.4104 76.0115 42.0104C74.9115 38.5104 70.6115 35.9104 67.0115 36.5104C65.9115 31.9104 59.8115 30.3104 55.6115 31.6104C54.5115 30.2104 52.8115 29.3104 51.1115 29.7104C48.8115 24.4104 41.0115 23.2104 36.6115 26.7104C35.2115 24.5104 32.7115 23.6104 30.3115 23.8104C36.5115 16.0104 43.3115 7.9104 52.8115 4.4104C63.5115 0.4104 75.6115 2.2104 86.1115 6.8104C95.4115 10.8104 106.312 16.9104 110.912 26.4104C116.212 37.4104 109.712 50.6104 107.412 61.6104Z" fill="#D63232"/>
<path d="M113.112 25.1101C108.412 15.5101 97.7116 9.31009 88.4116 5.11009C78.1116 0.610094 66.5116 -1.58991 55.6116 1.31009C43.1116 4.51009 35.3116 14.2101 28.2116 24.2101C25.9116 24.9101 23.9116 26.4101 23.1116 28.7101C23.1116 28.8101 23.1116 28.8101 23.1116 28.9101C21.1116 27.3101 18.4116 26.9101 16.0116 28.0101C13.9116 28.9101 11.2116 31.7101 11.7116 34.2101C9.11162 34.6101 6.91162 35.9101 5.31162 38.0101C3.71162 40.2101 2.91162 43.8101 4.31162 46.3101C0.411623 47.8101 -0.288377 54.1101 1.81162 57.3101C0.411623 59.2101 -0.288377 61.6101 0.111623 64.1101C0.411623 66.2101 1.61162 69.1101 3.71162 70.0101C3.71162 74.6101 6.91162 79.1101 11.1116 80.9101C11.2116 80.9101 11.3116 81.0101 11.4116 81.0101C11.5116 81.5101 11.7116 82.0101 12.1116 82.5101C12.5116 82.9101 13.1116 83.3101 13.7116 83.3101C14.3116 85.3101 16.0116 87.0101 17.8116 88.1101C19.0116 88.9101 21.2116 90.0101 22.8116 89.5101C22.9116 90.8101 23.7116 91.9101 24.7116 92.7101C25.5116 93.4101 26.8116 94.1101 28.0116 93.9101C29.0116 97.6101 34.8116 101.11 38.4116 99.6101C39.0116 100.51 39.9116 101.31 41.0116 101.71C42.2116 102.21 43.9116 102.51 45.1116 101.91C46.9116 104.81 51.6116 106.21 54.8116 105.11C56.0116 106.31 57.2116 107.41 59.0116 107.71C60.6116 108.01 62.2116 107.71 63.1116 106.41C64.4116 107.11 66.6116 107.71 67.9116 106.91C70.7116 109.31 76.5116 108.51 78.3116 105.21C79.7116 105.91 81.7116 105.41 82.8116 104.61C83.8116 103.91 84.8116 102.71 85.1116 101.41C86.5116 101.71 88.0116 100.71 88.8116 99.6101C90.0116 97.9101 90.3116 94.8101 89.0116 93.1101L88.9116 93.0101C89.4116 92.6101 89.9116 92.0101 90.3116 91.5101C90.9116 94.2101 91.5116 96.8101 92.1116 99.5101C92.2116 99.8101 92.3116 99.9101 92.4116 100.11C91.6116 100.91 91.1116 102.01 91.2116 103.31C90.0116 103.51 88.7116 103.91 87.6116 104.41C86.6116 104.81 85.5116 105.31 84.9116 106.31C84.1116 107.71 84.3116 109.51 85.1116 111.01C83.0116 112.31 81.6116 114.71 82.2116 117.21C82.8116 120.01 85.4116 122.11 88.2116 122.01C88.5116 124.21 89.9116 126.21 92.0116 127.01C93.9116 127.81 96.4116 127.81 98.0116 126.41C99.0116 127.71 100.512 128.51 102.112 128.41C103.512 128.41 105.412 127.71 106.112 126.31C108.612 126.71 111.112 125.21 111.812 122.71C112.212 121.41 111.912 119.71 111.112 118.41C112.412 117.61 113.412 116.31 113.512 114.71C113.612 113.11 112.812 110.81 111.212 110.01C112.212 108.11 111.812 105.51 110.512 103.91C109.512 102.61 108.012 101.91 106.512 101.71C106.312 87.7101 107.512 73.8101 110.612 60.1101C112.912 48.7101 118.512 36.3101 113.112 25.1101ZM86.2116 93.1101C85.6116 93.5101 86.1116 94.4101 86.8116 94.1101C87.0116 94.0101 87.1116 93.9101 87.3116 93.9101C87.3116 95.3101 88.0116 96.7101 87.2116 98.1101C86.7116 99.1101 85.8116 99.5101 84.8116 99.7101C84.4116 99.3101 83.6116 99.2101 83.4116 99.8101C82.9116 101.01 82.8116 102.21 81.6116 103.01C80.3116 103.81 79.1116 103.41 77.8116 103.61C77.7116 103.61 77.6116 103.71 77.5116 103.81H77.4116C75.9116 104.71 74.8116 105.91 73.0116 106.21C71.3116 106.51 69.9116 105.91 68.4116 105.51C68.4116 105.51 68.4116 105.51 68.3116 105.41C67.5116 105.11 66.8116 105.31 65.9116 105.31C65.0116 105.31 64.1116 105.11 63.2116 104.81C62.8116 104.61 62.5116 104.91 62.4116 105.21C61.2116 105.71 60.0116 106.01 58.7116 105.61C57.7116 105.31 56.7116 104.71 55.8116 104.11C55.7116 103.91 55.6116 103.71 55.3116 103.51C53.6116 103.01 51.8116 103.41 50.0116 103.01C48.4116 102.61 47.1116 101.81 45.9116 100.51C45.7116 100.31 45.5116 100.31 45.3116 100.31C44.2116 100.11 43.1116 100.41 42.0116 100.11C40.8116 99.7101 39.8116 98.9101 39.1116 97.8101C38.8116 97.3101 38.0116 97.4101 37.8116 97.9101C36.2116 97.5101 34.7116 97.6101 33.2116 96.7101C31.5116 95.8101 30.6116 94.4101 29.4116 93.1101C29.4116 92.8101 29.3116 92.5101 29.0116 92.3101C28.6116 92.0101 28.0116 92.0101 27.5116 91.9101C27.0116 91.8101 26.4116 91.5101 26.0116 91.2101C25.1116 90.5101 24.7116 89.5101 24.2116 88.5101C24.1116 88.3101 23.9116 88.2101 23.7116 88.2101C23.2116 87.7101 22.8116 87.7101 22.1116 87.5101C21.1116 87.3101 20.2116 87.0101 19.3116 86.5101C17.5116 85.5101 16.4116 84.0101 15.1116 82.4101C15.0116 82.3101 14.9116 82.2101 14.7116 82.1101C14.4116 81.7101 13.9116 81.6101 13.5116 81.3101C13.2116 81.0101 12.9116 80.6101 12.8116 80.1101C12.8116 80.0101 12.8116 80.0101 12.7116 79.9101C12.7116 79.6101 12.6116 79.3101 12.2116 79.1101C8.31162 77.1101 6.11162 73.9101 5.21162 69.8101C5.31162 69.6101 5.31162 69.4101 5.21162 69.1101C4.31162 67.3101 2.81162 66.2101 2.31162 64.1101C1.81162 61.8101 2.41162 59.6101 3.51162 57.6101C3.61162 57.5101 3.71162 57.4101 3.71162 57.3101C3.81162 57.2101 3.81162 57.1101 3.91162 56.9101C4.21162 56.4101 3.81162 55.9101 3.41162 55.8101C2.91162 54.2101 2.51162 52.7101 2.91162 51.0101C3.41162 49.3101 4.61162 48.3101 5.51162 46.8101C5.51162 46.7101 5.61162 46.7101 5.61162 46.6101C5.81162 46.5101 5.91162 46.3101 5.91162 46.0101C5.91162 43.5101 5.51162 41.3101 6.91162 39.0101C8.21162 37.0101 10.4116 35.7101 12.7116 35.3101C13.2116 35.2101 13.3116 34.7101 13.2116 34.3101C14.2116 32.5101 14.3116 30.8101 16.4116 29.7101C18.2116 28.7101 20.5116 29.0101 22.3116 29.9101C21.5116 30.5101 20.8116 31.2101 20.6116 32.1101C20.5116 32.6101 21.0116 33.1101 21.5116 32.8101C22.3116 32.2101 22.9116 31.3101 23.7116 30.7101C24.7116 30.1101 25.8116 29.7101 27.0116 29.7101C27.8116 29.7101 27.8116 28.5101 27.0116 28.5101C26.4116 28.5101 25.9116 28.6101 25.3116 28.7101C28.2116 24.9101 32.1116 25.0101 35.6116 28.1101C35.8116 28.6101 36.4116 29.0101 37.0116 28.7101C39.3116 27.3101 41.6116 26.3101 44.4116 27.0101C46.8116 27.6101 48.2116 29.1101 49.7116 30.8101C49.7116 31.0101 49.9116 31.2101 50.1116 31.3101C50.3116 31.5101 50.6116 31.5101 50.8116 31.4101C52.2116 31.6101 53.3116 31.9101 54.1116 33.4101C54.3116 33.8101 54.9116 34.1101 55.3116 33.9101C57.7116 33.0101 60.1116 32.8101 62.4116 34.2101C63.7116 35.0101 64.5116 36.1101 65.4116 37.2101C65.1116 37.7101 65.3116 38.5101 66.1116 38.5101C68.3116 38.5101 70.1116 38.4101 72.0116 39.8101C73.2116 40.7101 73.8116 41.8101 74.4116 43.0101C73.5116 42.5101 72.4116 42.2101 71.6116 42.8101C71.4116 42.9101 71.4116 43.3101 71.5116 43.5101C72.2116 44.4101 73.6116 44.5101 74.5116 45.2101C75.5116 46.0101 76.3116 47.1101 76.8116 48.4101C77.0116 48.9101 77.9116 48.9101 77.8116 48.3101C77.8116 47.2101 77.4116 46.2101 76.8116 45.3101C77.6116 45.7101 78.5116 46.0101 79.2116 46.5101C80.7116 47.6101 81.4116 49.4101 80.8116 51.2101C80.8116 51.3101 80.8116 51.5101 80.8116 51.6101C80.7116 51.9101 80.8116 52.3101 81.2116 52.5101C81.6116 52.8101 81.9116 52.7101 82.2116 53.1101C82.5116 53.5101 82.6116 53.9101 82.7116 54.3101C83.1116 55.4101 83.7116 56.9101 84.9116 57.0101C85.4116 67.4101 87.2116 77.8101 89.3116 88.1101C88.9116 90.2101 88.0116 92.0101 86.2116 93.1101ZM109.112 105.11C110.212 106.81 109.812 108.51 109.112 110.21C108.912 110.61 109.312 111.01 109.712 111.01C110.612 111.91 111.512 112.61 111.612 114.01C111.612 115.21 111.012 116.31 110.112 117.01C109.712 116.71 109.312 116.51 108.912 116.31C108.712 115.31 108.312 114.41 107.812 113.61C107.412 113.11 106.612 113.51 106.912 114.11C107.512 115.21 107.712 116.31 107.612 117.51C107.512 118.61 106.912 119.41 106.612 120.41C106.512 120.91 107.112 121.41 107.512 121.11C108.312 120.51 108.812 119.61 108.912 118.61C109.712 119.51 110.212 120.41 109.812 121.81C109.312 123.61 107.412 124.61 105.612 124.51C105.512 124.51 105.312 124.51 105.112 124.61C104.012 125.21 103.312 126.21 101.912 126.41C100.412 126.51 99.2116 125.81 98.3116 124.61C98.1116 124.31 97.8116 124.31 97.6116 124.51C97.5116 124.51 97.5116 124.51 97.4116 124.51C95.6116 124.91 94.0116 125.71 92.2116 124.81C90.5116 124.01 89.6116 122.21 89.3116 120.41C89.2116 119.91 88.8116 119.81 88.4116 119.91C83.6116 119.91 81.7116 114.11 85.6116 111.61C85.7116 111.71 85.7116 111.71 85.8116 111.81C85.8116 111.91 85.7116 111.91 85.7116 112.01C85.4116 113.01 85.1116 114.71 86.0116 115.41C86.3116 115.71 86.9116 115.61 87.0116 115.11C87.2116 114.31 86.8116 113.41 87.0116 112.61C87.2116 111.61 87.8116 110.71 88.6116 110.21C89.1116 109.81 88.7116 109.01 88.1116 109.31C87.6116 109.61 87.1116 109.91 86.8116 110.31C86.1116 108.81 85.4116 107.21 87.2116 106.11C88.7116 105.21 90.4116 105.01 91.8116 103.91C92.1116 103.91 92.3116 103.71 92.3116 103.41C92.8116 100.81 95.2116 98.7101 97.6116 100.91C97.9116 101.21 98.3116 101.21 98.7116 101.01C100.312 100.21 101.912 100.81 102.712 102.11C102.712 102.21 102.712 102.21 102.712 102.31C101.712 102.11 100.612 102.21 99.6116 102.51C98.7116 102.81 99.0116 104.21 100.012 104.01C101.212 103.71 102.412 103.61 103.512 104.01C103.612 104.21 103.812 104.21 104.012 104.21C104.512 104.41 105.012 104.71 105.512 105.11C106.012 105.61 106.812 104.81 106.312 104.31C105.912 103.91 105.412 103.51 104.912 103.21C106.512 103.31 108.112 103.71 109.112 105.11ZM104.312 101.61C104.212 101.61 104.112 101.61 104.012 101.61C103.012 99.6101 100.712 98.7101 98.3116 99.5101C96.9116 98.5101 95.2116 98.4101 93.7116 98.8101V98.7101C89.0116 76.3101 84.2116 53.7101 87.9116 30.7101C88.0116 30.1101 87.1116 29.8101 86.9116 30.4101C86.3116 33.1101 85.8116 35.7101 85.5116 38.4101C84.8116 36.6101 83.8116 34.9101 83.0116 33.2101C82.8116 32.7101 81.9116 33.1101 82.1116 33.6101C82.9116 35.7101 83.4116 38.1101 84.6116 40.0101C84.8116 40.3101 85.1116 40.4101 85.3116 40.3101C84.8116 45.3101 84.6116 50.2101 84.8116 55.2101C84.3116 54.5101 84.2116 53.7101 83.8116 52.9101C83.5116 52.1101 83.0116 51.5101 82.2116 51.2101C84.2116 47.6101 79.6116 43.3101 75.9116 43.3101C75.6116 39.2101 70.6116 35.9101 66.6116 36.6101C65.5116 32.0101 59.4116 30.4101 55.2116 31.7101C54.1116 30.3101 52.4116 29.4101 50.7116 29.8101C48.4116 24.5101 40.6116 23.3101 36.2116 26.8101C34.8116 24.6101 32.4116 23.7101 29.9116 23.9101C36.1116 16.1101 42.9116 8.01009 52.4116 4.51009C63.3116 0.410094 75.4116 2.21009 85.9116 6.71009C95.2116 10.7101 106.112 16.8101 110.712 26.3101C116.012 37.3101 109.512 50.5101 107.212 61.6101C104.712 74.8101 103.612 88.2101 104.312 101.61Z" fill="#1E0303"/>
<path d="M75.4112 46.21C75.4112 46.41 75.4112 46.61 75.3112 46.71C75.1112 46.61 75.2112 46.31 75.4112 46.21Z" fill="#CADDEA"/>
<path d="M76.1121 43.4102C76.1121 43.0102 76.0121 42.6102 75.9121 42.2102C76.1121 40.2102 76.2121 38.1102 76.5121 36.1102C76.7121 34.6102 77.0121 33.0102 77.5121 31.5102C78.4121 28.8102 80.3121 26.5102 82.6121 24.9102C84.7121 23.4102 87.3121 22.5102 89.8121 23.2102C92.6121 24.0102 94.4121 27.0102 94.9121 29.9102C95.3121 32.8102 94.7121 35.8102 94.1121 38.7102C92.3121 47.5102 91.0121 56.4102 91.1121 65.4102C91.2121 72.8102 92.2121 80.1102 93.3121 87.4102C93.9121 91.4102 94.6121 95.7102 96.9121 99.0102C95.9121 98.8102 94.9121 98.8102 94.0121 99.1102V99.0102C89.3121 76.6102 84.5121 54.0102 88.2121 31.0102C88.3121 30.4102 87.4121 30.1102 87.3121 30.7102C86.7121 33.4102 86.2121 36.0102 85.9121 38.7102C85.2121 36.9102 84.2121 35.2102 83.4121 33.5102C83.2121 33.0102 82.3121 33.4102 82.5121 33.9102C83.3121 36.0102 83.8121 38.4102 85.0121 40.3102C85.2121 40.6102 85.5121 40.7102 85.8121 40.6102C85.3121 45.6102 85.1121 50.5102 85.3121 55.5102C84.9121 54.8102 84.7121 54.0102 84.3121 53.2102C84.0121 52.4102 83.5121 51.8102 82.7121 51.5102C84.3121 47.7102 79.7121 43.5102 76.1121 43.4102Z" fill="#AD2544"/>
<path d="M107.511 124.51C106.911 124.71 106.311 124.81 105.611 124.81C105.511 124.81 105.311 124.81 105.111 124.91C104.011 125.51 103.311 126.51 101.911 126.71C100.411 126.81 99.2114 126.11 98.3114 124.91C98.1114 124.61 97.8114 124.61 97.6114 124.81C97.5114 124.81 97.5114 124.81 97.4114 124.81C95.6114 125.21 94.0114 126.01 92.2114 125.11C90.5114 124.31 89.6114 122.51 89.3114 120.71C89.2114 120.21 88.8114 120.11 88.4114 120.21C83.6114 120.21 81.7114 114.41 85.6114 111.91C85.7114 112.01 85.7114 112.01 85.8114 112.11C85.8114 112.21 85.7114 112.21 85.7114 112.31C85.4114 113.31 85.1114 115.01 86.0114 115.71C86.3114 116.01 86.9114 115.91 87.0114 115.51C87.2114 114.71 86.8114 113.81 87.0114 113.01C87.2114 112.01 87.8114 111.11 88.6114 110.61C89.1114 110.21 88.7114 109.41 88.1114 109.71C87.6114 110.01 87.1114 110.31 86.8114 110.71C86.1114 109.21 85.4114 107.61 87.2114 106.51C88.7114 105.61 90.4114 105.41 91.8114 104.31C92.1114 104.31 92.3114 104.11 92.3114 103.81C92.7114 101.61 94.6114 99.7103 96.7114 100.71C93.3114 103.51 91.3114 109.11 93.1114 112.91C90.9114 114.21 89.9114 117.31 91.0114 119.61C92.1114 121.91 95.1114 123.21 97.5114 122.31C98.0114 122.11 98.4114 121.91 98.9114 121.91C99.7114 121.91 100.411 122.61 101.111 123.11C102.811 124.41 105.211 124.91 107.511 124.51Z" fill="#CADDEA"/>
</svg>
