<svg width="68" height="46" viewBox="0 0 68 46" fill="none" xmlns="http://www.w3.org/2000/svg">
<path d="M21 15C16.2 16.6 12.6667 13.3333 11.5 11.5L24.5 0L51 2.5L60 22.5L53.5 33.5C52.6667 30.8333 50.1 25.7 46.5 26.5C42.9 27.3 41 24.5 40.5 23C40.5 21.5 36.5 23 33.5 19C27.9 19.4 25.8333 16.8333 25.5 15.5C26 14.6667 23 15 21 15Z" fill="white"/>
<path d="M53.5 34C48.7 34.4 47.1667 29.1667 47 26.5L53.5 9L67.5 13.5L64 41.5C60.8 42.7 59.6667 39.3333 59.5 37.5C55.5 37.5 56 37 53.5 34Z" fill="white"/>
<path d="M66.0356 44.2375C65.5356 44.2375 65.1356 44.5375 64.6356 44.1375C64.2356 43.7375 64.1356 43.1375 64.0356 42.5375C64.6356 42.4375 65.2356 42.2375 65.6356 41.7375C66.1356 41.2375 65.7356 40.5375 65.1356 40.4375C63.8356 40.3375 62.8356 40.8375 61.6356 40.1375C60.8356 39.7375 60.2356 38.9375 59.8356 38.0375C60.2356 37.8375 60.5356 37.6375 60.8356 37.2375C61.1356 36.8375 60.7356 36.2375 60.2356 36.2375C59.1356 36.2375 58.0356 36.7375 56.9356 36.3375C55.8356 35.9375 55.0356 34.8375 54.6356 33.7375C54.5356 33.4375 54.2356 33.2375 53.9356 33.2375C53.6356 33.0375 53.2356 33.0375 52.7356 32.9375C51.7356 32.7375 50.8356 32.3375 50.0356 31.7375C48.8356 30.7375 48.1356 29.2375 47.8356 27.7375C48.7356 28.4375 50.5356 29.4375 51.6356 28.7375C51.9356 28.4375 52.1356 28.0375 51.7356 27.6375C51.3356 27.2375 50.9356 27.2375 50.4356 27.1375C49.9356 27.0375 49.4356 26.8375 49.0356 26.5375C48.0356 25.9375 47.5356 25.0375 46.9356 24.0375C46.6356 23.6375 45.9356 23.7375 45.9356 24.3375C45.9356 24.7375 46.0356 25.1375 46.2356 25.5375C45.4356 25.6375 44.5356 25.8375 43.6356 25.4375C42.3356 24.8375 41.5356 23.6375 41.2356 22.3375C41.1356 21.9375 40.7356 21.7375 40.4356 21.8375H40.3356C37.7356 22.0375 35.4356 20.5375 34.1356 18.2375C33.9356 17.9375 33.6356 17.8375 33.3356 18.0375C31.8356 17.8375 30.6356 18.2375 29.1356 17.7375C28.1356 17.4375 27.3356 16.8375 26.5356 16.1375C27.1356 16.0375 27.7356 15.7375 28.1356 15.3375C28.4356 15.0375 28.3356 14.4375 27.8356 14.3375C26.9356 14.1375 26.0356 14.3375 25.0356 14.4375C24.8356 14.3375 24.6356 14.3375 24.4356 14.4375C24.3356 14.4375 24.1356 14.4375 24.0356 14.4375C22.5356 14.2375 21.1356 13.7375 19.9356 12.8375C19.4356 12.4375 18.7356 13.3375 19.2356 13.7375C19.5356 14.0375 19.8356 14.2375 20.2356 14.5375C18.3356 15.2375 16.8356 15.3375 14.7356 14.1375C14.1356 13.7375 13.5356 13.2375 12.8356 13.0375C11.6356 12.6375 10.4356 12.9375 9.23557 12.5375C8.93557 12.4375 8.63557 12.5375 8.53557 12.8375C8.43557 12.8375 8.43557 12.9375 8.33557 12.9375C6.33557 15.0375 3.23557 15.0375 1.23557 12.8375C0.835572 12.3375 -0.0644275 13.0375 0.335572 13.5375C0.735572 14.1375 1.23557 14.6375 1.73557 15.0375L1.63557 15.1375C1.33557 15.4375 1.03557 15.4375 0.635573 15.4375C-0.0644273 15.3375 -0.264427 16.5375 0.435573 16.7375C1.13557 16.8375 1.83557 16.7375 2.43557 16.2375C2.63557 16.1375 2.73557 15.9375 2.93557 15.7375C5.13557 16.7375 7.83557 16.3375 9.63557 14.2375C9.63557 14.2375 9.63557 14.2375 9.63557 14.1375C10.7356 14.4375 11.8356 14.4375 12.9356 15.0375C14.1356 15.7375 15.0356 16.5375 16.4356 16.7375C18.3356 17.1375 20.4356 16.7375 21.7356 15.4375C22.3356 15.6375 22.9356 15.8375 23.5356 15.9375C23.7356 15.9375 24.0356 16.0375 24.2356 16.0375C25.1356 17.5375 26.4356 18.6375 28.1356 19.2375C29.5356 19.8375 31.5356 20.1375 33.0356 19.4375C34.1356 22.1375 36.9356 23.7375 39.8356 23.6375C40.2356 25.0375 41.1356 26.2375 42.4356 26.9375C43.4356 27.4375 45.0356 27.7375 46.2356 27.4375C46.1356 29.4375 46.8356 31.3375 48.3356 32.7375C49.3356 33.7375 51.8356 35.2375 53.4356 34.8375C53.7356 36.1375 54.6356 37.2375 55.9356 37.8375C56.6356 38.1375 57.4356 38.3375 58.2356 38.3375C58.5356 39.6375 59.2356 40.8375 60.4356 41.5375C61.0356 41.9375 61.7356 42.2375 62.5356 42.3375C62.4356 43.5375 62.6356 44.8375 63.7356 45.5375C64.5356 46.0375 66.5356 46.1375 66.4356 44.7375C66.5356 44.5375 66.3356 44.2375 66.0356 44.2375Z" fill="#1E0303"/>
</svg>
