<svg width="87" height="84" viewBox="0 0 87 84" fill="none" xmlns="http://www.w3.org/2000/svg">
<path d="M79.6638 65.1408C79.6638 71.676 74.1881 76.9931 67.4041 76.9931H12.2597C5.4999 76.9931 0 71.6994 0 65.1408V11.8523C0 5.31714 5.47567 0 12.2597 0H67.3799C74.1396 0 79.6395 5.29371 79.6395 11.8523V65.1408H79.6638Z" fill="#112B3E"/>
<path d="M83.9999 69.0581C83.9999 75.4799 78.6163 80.6597 71.9959 80.6597H17.9659C11.3213 80.6597 5.96191 75.4565 5.96191 69.0581V16.8391C5.96191 10.4173 11.3455 5.23755 17.9659 5.23755H71.9717C78.6163 5.23755 83.9757 10.4407 83.9757 16.8391V69.0581H83.9999Z" stroke="#E39948" stroke-width="5" stroke-miterlimit="10"/>
<path d="M18.8921 55.482C18.8921 54.8479 18.9837 54.3054 19.1668 53.8545C19.35 53.4037 19.6036 53.0303 19.9277 52.7344C20.2518 52.4385 20.6393 52.2271 21.0902 52.1003C21.5551 51.9594 22.0553 51.889 22.5908 51.889C23.1262 51.889 23.6193 51.9524 24.0702 52.0792C24.5211 52.206 24.9086 52.4103 25.2327 52.6921C25.5708 52.9739 25.8315 53.3473 26.0147 53.8123C26.1979 54.2631 26.2965 54.8197 26.3106 55.482C26.2965 56.1442 26.1979 56.7078 26.0147 57.1728C25.8315 57.6237 25.5708 57.99 25.2327 58.2718C24.9086 58.5536 24.5211 58.7579 24.0702 58.8847C23.6193 59.0115 23.1262 59.075 22.5908 59.075C22.0553 59.075 21.5551 59.0115 21.0902 58.8847C20.6393 58.7579 20.2518 58.5536 19.9277 58.2718C19.6036 57.99 19.35 57.6237 19.1668 57.1728C18.9837 56.7078 18.8921 56.1442 18.8921 55.482ZM21.3438 55.482C21.3438 56.6937 21.7594 57.2996 22.5908 57.2996C23.0276 57.2996 23.3375 57.1728 23.5207 56.9192C23.718 56.6514 23.8237 56.1724 23.8377 55.482C23.8237 54.8056 23.718 54.3336 23.5207 54.0659C23.3375 53.7982 23.0276 53.6643 22.5908 53.6643C22.154 53.6643 21.8369 53.7982 21.6397 54.0659C21.4424 54.3336 21.3438 54.8056 21.3438 55.482ZM27.473 63.302C27.473 62.668 27.5646 62.1255 27.7478 61.6746C27.9309 61.2237 28.1846 60.8503 28.5086 60.5544C28.8327 60.2585 29.2202 60.0472 29.6711 59.9204C30.1361 59.7795 30.6363 59.709 31.1717 59.709C31.7071 59.709 32.2003 59.7724 32.6512 59.8992C33.102 60.026 33.4895 60.2303 33.8136 60.5121C34.1518 60.794 34.4124 61.1673 34.5956 61.6323C34.7788 62.0832 34.8774 62.6398 34.8915 63.302C34.8774 63.9642 34.7788 64.5279 34.5956 64.9928C34.4124 65.4437 34.1518 65.8101 33.8136 66.0919C33.4895 66.3737 33.102 66.578 32.6512 66.7048C32.2003 66.8316 31.7071 66.895 31.1717 66.895C30.6363 66.895 30.1361 66.8316 29.6711 66.7048C29.2202 66.578 28.8327 66.3737 28.5086 66.0919C28.1846 65.8101 27.9309 65.4437 27.7478 64.9928C27.5646 64.5279 27.473 63.9642 27.473 63.302ZM29.9247 63.302C29.9247 64.5138 30.3404 65.1196 31.1717 65.1196C31.6085 65.1196 31.9185 64.9928 32.1016 64.7392C32.2989 64.4715 32.4046 63.9924 32.4187 63.302C32.4046 62.6257 32.2989 62.1537 32.1016 61.8859C31.9185 61.6182 31.6085 61.4844 31.1717 61.4844C30.7349 61.4844 30.4179 61.6182 30.2206 61.8859C30.0233 62.1537 29.9247 62.6257 29.9247 63.302ZM32.1228 51.8467L33.6657 53.2416L21.4917 67.2332L19.9489 65.7748L32.1228 51.8467Z" fill="#E39948"/>
<path d="M36.3677 59.5399C36.3677 57.0741 36.9101 55.179 37.9951 53.8545C39.08 52.516 40.63 51.8467 42.6448 51.8467C43.7016 51.8467 44.6245 52.0299 45.4136 52.3962C46.2026 52.7625 46.8578 53.2839 47.3792 53.9602C47.9005 54.6365 48.288 55.4467 48.5416 56.3908C48.7952 57.3348 48.922 58.3845 48.922 59.5399C48.922 62.0057 48.3725 63.9079 47.2735 65.2465C46.1885 66.5709 44.6457 67.2332 42.6448 67.2332C41.574 67.2332 40.644 67.05 39.855 66.6837C39.0659 66.3173 38.4107 65.796 37.8894 65.1196C37.3822 64.4433 37.0017 63.6331 36.7481 62.6891C36.4945 61.745 36.3677 60.6953 36.3677 59.5399ZM39.4112 59.5399C39.4112 60.2867 39.4746 60.9771 39.6014 61.6112C39.7282 62.2312 39.9184 62.7666 40.172 63.2175C40.4397 63.6684 40.7779 64.0206 41.1865 64.2742C41.5951 64.5279 42.0812 64.6547 42.6448 64.6547C43.6734 64.6547 44.4695 64.2531 45.0331 63.45C45.5967 62.6468 45.8785 61.3435 45.8785 59.5399C45.8785 58.8213 45.8151 58.152 45.6883 57.5321C45.5756 56.9121 45.3924 56.3696 45.1388 55.9047C44.8852 55.4397 44.5541 55.0804 44.1455 54.8268C43.7368 54.559 43.2366 54.4252 42.6448 54.4252C41.6163 54.4252 40.8202 54.8408 40.2566 55.6722C39.693 56.4894 39.4112 57.7787 39.4112 59.5399Z" fill="#E39948"/>
<path d="M50.9916 52.1426H59.7628V54.7211H53.8872V58.3775H59.2978V60.956H53.8872V66.9373H50.9916V52.1426Z" fill="#E39948"/>
<path d="M61.7244 52.1426H70.4955V54.7211H64.6199V58.3775H70.0306V60.956H64.6199V66.9373H61.7244V52.1426Z" fill="#E39948"/>
<path d="M32.8569 45.4615H39.8788V40.2308H43.203V34.6538H39.8788V18.3462H32.5581L19 34.9615L20.1952 40.2308H32.8569V45.4615ZM26.6194 34.6923L32.8569 26.9615V34.6923H26.6194Z" fill="#E39948"/>
<path d="M57.8612 46C65.3312 46 70 39.6154 70 32V31.9231C70 24.3077 65.3686 18 57.9359 18C50.5032 18 45.797 24.3846 45.797 32V32.0769C45.797 39.6923 50.3911 46 57.8612 46ZM57.9359 39.3846C55.0226 39.3846 53.0803 36.3077 53.0803 32V31.9231C53.0803 27.6154 54.9852 24.6154 57.8612 24.6154C60.7371 24.6154 62.7167 27.7308 62.7167 32V32.0769C62.7167 36.3462 60.8492 39.3846 57.9359 39.3846Z" fill="#E39948"/>
</svg>
