<svg width="262" height="150" viewBox="0 0 262 150" fill="none" xmlns="http://www.w3.org/2000/svg">
<path d="M27.1055 55.2672C27.129 55.8544 26.7063 56.3477 26.1426 56.3946L1.15182 57.616C0.588121 57.6395 0.11837 57.1932 0.0713954 56.606L0.00093278 54.9854C-0.0225548 54.3982 0.400221 53.905 0.963922 53.858L25.9547 52.6366C26.5184 52.6131 26.9881 53.0594 27.0351 53.6466L27.1055 55.2672Z" fill="#E39948"/>
<path d="M47.7979 0.000885989C48.3616 -0.0226015 48.8313 0.423662 48.8783 1.01085L50.1466 27.176C50.1701 27.7631 49.7473 28.2564 49.1836 28.3034L47.6569 28.3738C47.0932 28.3973 46.6235 27.951 46.5765 27.3639L45.3082 1.19875C45.2847 0.611562 45.7075 0.118324 46.2712 0.0713486L47.7979 0.000885989Z" fill="#E39948"/>
<path d="M10.1472 14.5631C10.5935 14.0463 11.3216 13.9759 11.7679 14.3986L31.2625 33.2122C31.7088 33.6349 31.6853 34.3865 31.239 34.9033L30.0177 36.289C29.5714 36.8057 28.8433 36.8762 28.3971 36.4534L8.90241 17.6399C8.45615 17.2171 8.47963 16.4655 8.9259 15.9488L10.1472 14.5631Z" fill="#E39948"/>
<path fill-rule="evenodd" clip-rule="evenodd" d="M29.8256 116.817C29.8254 116.816 29.8253 116.815 31.3863 116.653C32.9473 116.491 32.9472 116.49 32.9471 116.49L32.947 116.489L32.9477 116.495C32.9485 116.502 32.9501 116.515 32.9524 116.535C32.9572 116.573 32.9652 116.635 32.9773 116.718C33.0015 116.885 33.0421 117.14 33.1052 117.469C33.2316 118.128 33.4482 119.084 33.8052 120.24C34.5204 122.555 35.7918 125.65 38.0118 128.765C42.4034 134.927 50.6277 141.348 66.1522 141.762H160.594V144.901H66.1109L66.0902 144.9C49.561 144.465 40.418 137.55 35.4557 130.587C32.9977 127.137 31.5955 123.721 30.8064 121.166C30.4113 119.887 30.1681 118.818 30.0228 118.06C29.9501 117.682 29.9018 117.38 29.8711 117.168C29.8558 117.062 29.8448 116.979 29.8375 116.92C29.8338 116.89 29.831 116.866 29.829 116.849L29.8266 116.827L29.8259 116.82L29.8256 116.817ZM32.947 116.489C32.9469 116.488 32.947 116.488 32.947 116.489V116.489Z" fill="white"/>
<path fill-rule="evenodd" clip-rule="evenodd" d="M174.744 12.5547L174.765 12.5552C190.88 12.9674 200.825 19.734 206.72 26.468C209.653 29.8179 211.568 33.1407 212.753 35.631C213.346 36.8773 213.758 37.919 214.024 38.6568C214.156 39.0259 214.253 39.3194 214.317 39.5251C214.35 39.6279 214.374 39.7088 214.391 39.7662C214.399 39.7949 214.406 39.8177 214.41 39.8345L214.416 39.8551L214.418 39.862L214.419 39.8646C214.419 39.8656 214.419 39.8665 212.905 40.2795C211.391 40.6925 211.391 40.6932 211.392 40.6939L211.39 40.6877C211.388 40.6801 211.384 40.6666 211.378 40.6473C211.367 40.6087 211.349 40.5471 211.323 40.4641C211.27 40.2979 211.188 40.0458 211.07 39.72C210.836 39.0682 210.463 38.1227 209.919 36.9794C208.83 34.6905 207.063 31.6244 204.358 28.5354C198.982 22.3944 189.843 16.0862 174.706 15.6934L82.6531 15.811L82.649 12.6723L174.744 12.5547Z" fill="white"/>
<path d="M254.89 131.885C254.89 138.412 249.605 143.722 243.056 143.722H189.827C183.302 143.722 177.993 138.435 177.993 131.885V78.6627C177.993 72.1357 183.279 66.8252 189.827 66.8252H243.033C249.558 66.8252 254.867 72.1123 254.867 78.6627V131.885H254.89Z" fill="#112B3E"/>
<path fill-rule="evenodd" clip-rule="evenodd" d="M195.334 74.6715C190.385 74.6715 186.363 78.6772 186.363 83.6431V135.797C186.363 140.746 190.368 144.768 195.334 144.768H247.488C252.218 144.768 256.101 141.11 256.436 136.451V83.6431C256.436 78.6937 252.43 74.6715 247.464 74.6715H195.334ZM261.667 133.181V83.6431C261.667 75.8115 255.326 69.4404 247.464 69.4404H195.334C187.503 69.4404 181.131 75.7812 181.131 83.6431V135.797C181.131 143.628 187.472 149.999 195.334 149.999H247.488C255.319 149.999 261.69 143.658 261.69 135.797V133.181H261.667Z" fill="#E39948"/>
<path d="M206.667 112.34C213.07 112.34 217.552 108.837 217.552 102.962V102.887C217.552 97.1617 213.259 94.5252 208.513 94.5252C206.743 94.5252 205.5 94.9018 204.295 95.4668L204.521 91.4744H216.385V85.4482H198.758L198.005 98.8189L202.336 101.229C203.579 100.476 204.935 99.9111 206.554 99.9111C208.852 99.9111 210.434 101.079 210.434 102.962V103.037C210.434 104.92 208.965 106.126 206.554 106.126C204.332 106.126 202.298 105.071 200.152 103.263L195.971 108.16C198.72 110.721 201.997 112.34 206.667 112.34Z" fill="#E39948"/>
<path d="M232.689 112.34C240.222 112.34 244.93 106.088 244.93 98.6305V98.5552C244.93 91.0978 240.259 84.9209 232.764 84.9209C225.269 84.9209 220.523 91.1731 220.523 98.6305V98.7059C220.523 106.163 225.156 112.34 232.689 112.34ZM232.764 105.862C229.826 105.862 227.868 102.849 227.868 98.6305V98.5552C227.868 94.3369 229.789 91.3991 232.689 91.3991C235.589 91.3991 237.585 94.4499 237.585 98.6305V98.7059C237.585 102.887 235.702 105.862 232.764 105.862Z" fill="#E39948"/>
<path d="M196.296 120.633C196.296 120.021 196.384 119.497 196.561 119.062C196.738 118.627 196.982 118.266 197.295 117.981C197.608 117.695 197.982 117.491 198.417 117.369C198.866 117.233 199.349 117.165 199.866 117.165C200.383 117.165 200.859 117.226 201.294 117.348C201.729 117.471 202.103 117.668 202.416 117.94C202.742 118.212 202.994 118.573 203.171 119.021C203.348 119.457 203.443 119.994 203.456 120.633C203.443 121.272 203.348 121.816 203.171 122.265C202.994 122.7 202.742 123.054 202.416 123.326C202.103 123.598 201.729 123.795 201.294 123.918C200.859 124.04 200.383 124.101 199.866 124.101C199.349 124.101 198.866 124.04 198.417 123.918C197.982 123.795 197.608 123.598 197.295 123.326C196.982 123.054 196.738 122.7 196.561 122.265C196.384 121.816 196.296 121.272 196.296 120.633ZM198.662 120.633C198.662 121.803 199.063 122.388 199.866 122.388C200.287 122.388 200.587 122.265 200.763 122.02C200.954 121.762 201.056 121.299 201.069 120.633C201.056 119.98 200.954 119.525 200.763 119.266C200.587 119.008 200.287 118.879 199.866 118.879C199.444 118.879 199.138 119.008 198.948 119.266C198.757 119.525 198.662 119.98 198.662 120.633ZM204.578 128.182C204.578 127.569 204.667 127.046 204.844 126.611C205.02 126.175 205.265 125.815 205.578 125.529C205.891 125.244 206.265 125.04 206.7 124.917C207.149 124.781 207.632 124.713 208.149 124.713C208.665 124.713 209.142 124.774 209.577 124.897C210.012 125.019 210.386 125.217 210.699 125.489C211.025 125.761 211.277 126.121 211.454 126.57C211.63 127.005 211.726 127.542 211.739 128.182C211.726 128.821 211.63 129.365 211.454 129.814C211.277 130.249 211.025 130.602 210.699 130.874C210.386 131.146 210.012 131.344 209.577 131.466C209.142 131.589 208.665 131.65 208.149 131.65C207.632 131.65 207.149 131.589 206.7 131.466C206.265 131.344 205.891 131.146 205.578 130.874C205.265 130.602 205.02 130.249 204.844 129.814C204.667 129.365 204.578 128.821 204.578 128.182ZM206.945 128.182C206.945 129.351 207.346 129.936 208.149 129.936C208.57 129.936 208.87 129.814 209.046 129.569C209.237 129.31 209.339 128.848 209.352 128.182C209.339 127.529 209.237 127.073 209.046 126.815C208.87 126.556 208.57 126.427 208.149 126.427C207.727 126.427 207.421 126.556 207.231 126.815C207.04 127.073 206.945 127.529 206.945 128.182ZM209.067 117.124L210.556 118.471L198.805 131.976L197.316 130.568L209.067 117.124Z" fill="#E39948"/>
<path d="M213.164 124.55C213.164 122.17 213.688 120.341 214.735 119.062C215.782 117.77 217.278 117.124 219.223 117.124C220.243 117.124 221.134 117.301 221.896 117.654C222.658 118.008 223.29 118.511 223.793 119.164C224.296 119.817 224.671 120.599 224.915 121.51C225.16 122.422 225.283 123.435 225.283 124.55C225.283 126.93 224.752 128.766 223.691 130.058C222.644 131.337 221.155 131.976 219.223 131.976C218.19 131.976 217.292 131.799 216.53 131.446C215.769 131.092 215.136 130.589 214.633 129.936C214.143 129.283 213.776 128.501 213.531 127.59C213.287 126.679 213.164 125.665 213.164 124.55ZM216.102 124.55C216.102 125.271 216.163 125.937 216.286 126.549C216.408 127.148 216.592 127.665 216.836 128.1C217.095 128.535 217.421 128.875 217.816 129.12C218.21 129.365 218.679 129.487 219.223 129.487C220.216 129.487 220.985 129.1 221.529 128.324C222.073 127.549 222.345 126.291 222.345 124.55C222.345 123.856 222.284 123.21 222.161 122.612C222.052 122.014 221.876 121.49 221.631 121.041C221.386 120.592 221.066 120.245 220.672 120.001C220.277 119.742 219.795 119.613 219.223 119.613C218.231 119.613 217.462 120.014 216.918 120.817C216.374 121.606 216.102 122.85 216.102 124.55Z" fill="#E39948"/>
<path d="M227.28 117.41H235.747V119.899H230.075V123.428H235.298V125.917H230.075V131.691H227.28V117.41Z" fill="#E39948"/>
<path d="M237.64 117.41H246.107V119.899H240.435V123.428H245.658V125.917H240.435V131.691H237.64V117.41Z" fill="#E39948"/>
<rect x="49.9631" y="28.1045" width="117.413" height="42.4686" rx="10" fill="#E39948"/>
<path d="M29.3588 85.662H25.8239L25.1994 87.4357H23.3383L26.5859 78.7171H28.5969L31.832 87.4357H29.9709L29.3588 85.662ZM28.8842 84.3255L27.5851 80.6032L26.2861 84.3255H28.8842Z" fill="white"/>
<path d="M38.7781 78.6172V80.0162H36.3424V87.4357H34.5812V80.0162H32.158V78.6172H38.7781Z" fill="white"/>
<path d="M41.5088 80.0162V82.302H44.6315V83.651H41.5088V86.0242H45.0062V87.4357H39.7476V78.6172H45.0062V80.0162H41.5088Z" fill="white"/>
<path d="M65.4074 108.429V113.468H56.2886V117.512H63.0956V122.263H56.2886V131.153H49.9631V108.429H65.4074Z" fill="white"/>
<path d="M79.5521 131.153L74.9605 122.776H74.3183V131.153H67.9929V108.429H77.9787C79.7982 108.429 81.3394 108.75 82.6024 109.392C83.8867 110.012 84.85 110.879 85.4922 111.991C86.1343 113.104 86.4554 114.356 86.4554 115.747C86.4554 117.33 86.0166 118.71 85.139 119.887C84.2613 121.043 82.9984 121.856 81.3501 122.327L86.5196 131.153H79.5521ZM74.3183 118.539H77.4329C79.1882 118.539 80.0658 117.748 80.0658 116.164C80.0658 115.415 79.841 114.827 79.3915 114.399C78.9634 113.971 78.3105 113.757 77.4329 113.757H74.3183V118.539Z" fill="white"/>
<path d="M95.2956 108.429V131.153H88.9702V108.429H95.2956Z" fill="white"/>
<path d="M119.655 119.727C119.655 121.931 119.174 123.899 118.21 125.633C117.247 127.345 115.877 128.693 114.101 129.677C112.324 130.661 110.237 131.153 107.839 131.153H98.7847V108.429H107.839C110.237 108.429 112.324 108.91 114.101 109.873C115.899 110.815 117.269 112.141 118.21 113.853C119.174 115.565 119.655 117.523 119.655 119.727ZM107.261 125.504C109.124 125.504 110.59 125.001 111.66 123.996C112.731 122.99 113.266 121.567 113.266 119.727C113.266 117.908 112.731 116.496 111.66 115.49C110.59 114.463 109.124 113.949 107.261 113.949H105.11V125.504H107.261Z" fill="white"/>
<path d="M136.843 127.366H128.783L127.531 131.153H120.884L129.201 108.525H136.489L144.773 131.153H138.095L136.843 127.366ZM135.269 122.616L132.829 115.233L130.357 122.616H135.269Z" fill="white"/>
<path d="M167.376 108.429L159.349 123.932V131.153H153.056V123.932L145.029 108.429H152.253L156.267 117.095L160.248 108.429H167.376Z" fill="white"/>
<path d="M65.8538 90.2459C67.3369 90.5928 68.5022 91.3099 69.3497 92.3971C70.2208 93.4842 70.6563 94.7449 70.6563 96.179C70.6563 98.3071 69.9383 99.9609 68.5022 101.141C67.0662 102.297 65.0063 102.875 62.3225 102.875H49.9631V78.3103H62.04C64.559 78.3103 66.5247 78.8538 67.9372 79.941C69.3733 81.0282 70.0913 82.6011 70.0913 84.6597C70.0913 86.117 69.7029 87.3429 68.926 88.3376C68.1491 89.3091 67.1251 89.9452 65.8538 90.2459ZM56.9197 88.1294H60.4157C62.1577 88.1294 63.0288 87.4123 63.0288 85.9782C63.0288 84.4978 62.146 83.7576 60.3803 83.7576H56.9197V88.1294ZM60.8394 97.3934C62.6521 97.3934 63.5585 96.6532 63.5585 95.1728C63.5585 93.6461 62.6521 92.8828 60.8394 92.8828H56.9197V97.3934H60.8394Z" fill="white"/>
<path d="M80.5419 97.7056H88.346V102.875H73.5853V78.3103H80.5419V97.7056Z" fill="white"/>
<path d="M106.75 98.7812H97.887L96.5098 102.875H89.2001L98.3461 78.4143H106.362L115.473 102.875H108.128L106.75 98.7812ZM105.02 93.6462L102.336 85.6659L99.6173 93.6462H105.02Z" fill="white"/>
<path d="M129.066 78.0674C131.209 78.0674 133.116 78.4606 134.787 79.2471C136.482 80.0104 137.859 81.1091 138.919 82.5432C139.978 83.9542 140.696 85.5965 141.073 87.4702H133.763C133.363 86.4987 132.739 85.7469 131.891 85.2149C131.044 84.6597 130.067 84.3822 128.96 84.3822C127.43 84.3822 126.194 84.9489 125.253 86.0823C124.311 87.1926 123.84 88.6845 123.84 90.5582C123.84 92.4318 124.311 93.9353 125.253 95.0687C126.194 96.2021 127.43 96.7688 128.96 96.7688C130.067 96.7688 131.044 96.4913 131.891 95.9361C132.739 95.381 133.363 94.6177 133.763 93.6462H141.073C140.508 96.5144 139.166 98.8044 137.047 100.516C134.952 102.205 132.292 103.049 129.066 103.049C126.594 103.049 124.429 102.528 122.569 101.488C120.733 100.424 119.308 98.9432 118.296 97.0464C117.307 95.1497 116.813 92.9869 116.813 90.5582C116.813 88.1294 117.307 85.9666 118.296 84.0699C119.308 82.1731 120.733 80.7043 122.569 79.6634C124.429 78.5994 126.594 78.0674 129.066 78.0674Z" fill="white"/>
<path d="M157.701 90.3153L167.376 102.875H159.007L151.133 92.0154V102.875H144.176V78.3103H151.133V88.9274L159.078 78.3103H167.376L157.701 90.3153Z" fill="white"/>
</svg>
