<svg width="262" height="150" viewBox="0 0 262 150" fill="none" xmlns="http://www.w3.org/2000/svg">
<path d="M27.1055 55.267C27.129 55.8542 26.7063 56.3475 26.1426 56.3944L1.15182 57.6158C0.588121 57.6393 0.11837 57.193 0.0713954 56.6058L0.00093278 54.9852C-0.0225548 54.398 0.400221 53.9048 0.963922 53.8578L25.9547 52.6364C26.5184 52.613 26.9881 53.0592 27.0351 53.6464L27.1055 55.267Z" fill="#E39948"/>
<path d="M47.7977 0.000885989C48.3614 -0.0226015 48.8312 0.423662 48.8782 1.01085L50.1465 27.176C50.17 27.7631 49.7472 28.2564 49.1835 28.3034L47.6568 28.3738C47.0931 28.3973 46.6234 27.951 46.5764 27.3639L45.3081 1.19875C45.2846 0.611562 45.7074 0.118324 46.2711 0.0713486L47.7977 0.000885989Z" fill="#E39948"/>
<path d="M10.1471 14.5632C10.5934 14.0465 11.3215 13.976 11.7678 14.3988L31.2624 33.2123C31.7087 33.6351 31.6852 34.3867 31.2389 34.9034L30.0176 36.2891C29.5713 36.8059 28.8432 36.8763 28.3969 36.4536L8.90229 17.64C8.45602 17.2173 8.47951 16.4657 8.92577 15.9489L10.1471 14.5632Z" fill="#E39948"/>
<path fill-rule="evenodd" clip-rule="evenodd" d="M29.8257 116.817C29.8256 116.816 29.8255 116.815 31.3864 116.653C32.9474 116.492 32.9473 116.491 32.9472 116.49L32.9471 116.489L32.9478 116.495C32.9486 116.502 32.9502 116.516 32.9526 116.535C32.9573 116.573 32.9653 116.635 32.9774 116.719C33.0017 116.886 33.0422 117.14 33.1053 117.469C33.2317 118.128 33.4483 119.084 33.8054 120.24C34.5205 122.556 35.792 125.65 38.0119 128.765C42.4035 134.928 50.6278 141.349 66.1524 141.763H160.594V144.901H66.111L66.0903 144.901C49.5611 144.466 40.4181 137.55 35.4559 130.587C32.9979 127.138 31.5956 123.721 30.8065 121.166C30.4114 119.887 30.1682 118.818 30.0229 118.061C29.9502 117.682 29.9019 117.38 29.8712 117.169C29.8559 117.063 29.845 116.979 29.8376 116.92C29.8339 116.89 29.8312 116.867 29.8292 116.849L29.8268 116.827L29.826 116.82L29.8257 116.817ZM32.9471 116.489C32.9471 116.489 32.9471 116.489 32.9471 116.489Z" fill="white"/>
<path fill-rule="evenodd" clip-rule="evenodd" d="M174.744 12.5546L174.765 12.5552C190.88 12.9674 200.824 19.7339 206.72 26.4679C209.653 29.8178 211.568 33.1406 212.753 35.6309C213.346 36.8772 213.758 37.9189 214.023 38.6568C214.156 39.0259 214.253 39.3194 214.317 39.525C214.35 39.6278 214.374 39.7087 214.391 39.7661C214.399 39.7948 214.406 39.8177 214.41 39.8345L214.416 39.8551L214.418 39.8619L214.419 39.8645C214.419 39.8655 214.419 39.8665 212.905 40.2794C211.391 40.6924 211.391 40.6932 211.392 40.6938L211.39 40.6877C211.388 40.6801 211.384 40.6666 211.378 40.6473C211.367 40.6087 211.348 40.5471 211.322 40.464C211.27 40.2978 211.188 40.0458 211.07 39.72C210.836 39.0681 210.463 38.1226 209.919 36.9793C208.83 34.6904 207.063 31.6243 204.358 28.5353C198.982 22.3943 189.843 16.0861 174.706 15.6933L82.6529 15.8109L82.6489 12.6723L174.744 12.5546Z" fill="white"/>
<path d="M254.89 131.885C254.89 138.412 249.605 143.723 243.056 143.723H189.827C183.302 143.723 177.993 138.436 177.993 131.885V78.6631C177.993 72.1361 183.279 66.8256 189.827 66.8256H243.033C249.558 66.8256 254.867 72.1127 254.867 78.6631V131.885H254.89Z" fill="#112B3E"/>
<path fill-rule="evenodd" clip-rule="evenodd" d="M195.334 74.6723C190.385 74.6723 186.362 78.6779 186.362 83.6438V135.797C186.362 140.747 190.368 144.769 195.334 144.769H247.488C252.218 144.769 256.101 141.11 256.436 136.451V83.6438C256.436 78.6944 252.43 74.6723 247.464 74.6723H195.334ZM261.667 133.182V83.6438C261.667 75.8123 255.326 69.4412 247.464 69.4412H195.334C187.502 69.4412 181.131 75.782 181.131 83.6438V135.797C181.131 143.629 187.472 150 195.334 150H247.488C255.319 150 261.69 143.659 261.69 135.797V133.182H261.667Z" fill="#E39948"/>
<path d="M196.295 120.634C196.295 120.022 196.384 119.498 196.561 119.063C196.737 118.628 196.982 118.267 197.295 117.981C197.608 117.696 197.982 117.492 198.417 117.369C198.866 117.233 199.349 117.165 199.866 117.165C200.382 117.165 200.858 117.227 201.294 117.349C201.729 117.471 202.103 117.669 202.416 117.941C202.742 118.213 202.994 118.573 203.171 119.022C203.347 119.457 203.443 119.994 203.456 120.634C203.443 121.273 203.347 121.817 203.171 122.266C202.994 122.701 202.742 123.055 202.416 123.327C202.103 123.599 201.729 123.796 201.294 123.918C200.858 124.041 200.382 124.102 199.866 124.102C199.349 124.102 198.866 124.041 198.417 123.918C197.982 123.796 197.608 123.599 197.295 123.327C196.982 123.055 196.737 122.701 196.561 122.266C196.384 121.817 196.295 121.273 196.295 120.634ZM198.662 120.634C198.662 121.803 199.063 122.388 199.866 122.388C200.287 122.388 200.586 122.266 200.763 122.021C200.954 121.763 201.056 121.3 201.069 120.634C201.056 119.981 200.954 119.525 200.763 119.267C200.586 119.008 200.287 118.879 199.866 118.879C199.444 118.879 199.138 119.008 198.948 119.267C198.757 119.525 198.662 119.981 198.662 120.634ZM204.578 128.182C204.578 127.57 204.667 127.046 204.844 126.611C205.02 126.176 205.265 125.816 205.578 125.53C205.891 125.244 206.265 125.04 206.7 124.918C207.149 124.782 207.632 124.714 208.149 124.714C208.665 124.714 209.141 124.775 209.577 124.898C210.012 125.02 210.386 125.217 210.699 125.489C211.025 125.761 211.277 126.122 211.454 126.57C211.63 127.006 211.726 127.543 211.739 128.182C211.726 128.821 211.63 129.365 211.454 129.814C211.277 130.249 211.025 130.603 210.699 130.875C210.386 131.147 210.012 131.344 209.577 131.467C209.141 131.589 208.665 131.65 208.149 131.65C207.632 131.65 207.149 131.589 206.7 131.467C206.265 131.344 205.891 131.147 205.578 130.875C205.265 130.603 205.02 130.249 204.844 129.814C204.667 129.365 204.578 128.821 204.578 128.182ZM206.945 128.182C206.945 129.352 207.346 129.937 208.149 129.937C208.57 129.937 208.869 129.814 209.046 129.569C209.237 129.311 209.339 128.849 209.352 128.182C209.339 127.529 209.237 127.074 209.046 126.815C208.869 126.557 208.57 126.428 208.149 126.428C207.727 126.428 207.421 126.557 207.23 126.815C207.04 127.074 206.945 127.529 206.945 128.182ZM209.067 117.125L210.556 118.471L198.805 131.977L197.315 130.569L209.067 117.125Z" fill="#E39948"/>
<path d="M213.164 124.551C213.164 122.171 213.688 120.341 214.735 119.063C215.782 117.771 217.278 117.125 219.223 117.125C220.243 117.125 221.134 117.301 221.896 117.655C222.657 118.009 223.29 118.512 223.793 119.165C224.296 119.818 224.67 120.6 224.915 121.511C225.16 122.422 225.282 123.435 225.282 124.551C225.282 126.931 224.752 128.767 223.691 130.059C222.644 131.338 221.155 131.977 219.223 131.977C218.19 131.977 217.292 131.8 216.53 131.446C215.769 131.093 215.136 130.589 214.633 129.937C214.143 129.284 213.776 128.502 213.531 127.59C213.286 126.679 213.164 125.666 213.164 124.551ZM216.102 124.551C216.102 125.272 216.163 125.938 216.285 126.55C216.408 127.148 216.591 127.665 216.836 128.101C217.095 128.536 217.421 128.876 217.816 129.121C218.21 129.365 218.679 129.488 219.223 129.488C220.216 129.488 220.985 129.1 221.529 128.325C222.073 127.55 222.345 126.292 222.345 124.551C222.345 123.857 222.283 123.211 222.161 122.613C222.052 122.014 221.875 121.491 221.631 121.042C221.386 120.593 221.066 120.246 220.672 120.001C220.277 119.743 219.794 119.614 219.223 119.614C218.23 119.614 217.462 120.015 216.918 120.817C216.374 121.606 216.102 122.851 216.102 124.551Z" fill="#E39948"/>
<path d="M227.28 117.41H235.747V119.899H230.075V123.429H235.298V125.918H230.075V131.691H227.28V117.41Z" fill="#E39948"/>
<path d="M237.64 117.41H246.107V119.899H240.435V123.429H245.658V125.918H240.435V131.691H237.64V117.41Z" fill="#E39948"/>
<rect x="49.9629" y="28.1042" width="117.413" height="42.4686" rx="10" fill="#E39948"/>
<path d="M29.3589 85.6617H25.824L25.1995 87.4354H23.3384L26.586 78.7168H28.597L31.8321 87.4354H29.971L29.3589 85.6617ZM28.8843 84.3252L27.5852 80.6029L26.2862 84.3252H28.8843Z" fill="white"/>
<path d="M38.7782 78.6169V80.0158H36.3425V87.4354H34.5813V80.0158H32.1581V78.6169H38.7782Z" fill="white"/>
<path d="M41.5089 80.0158V82.3017H44.6316V83.6507H41.5089V86.0239H45.0064V87.4354H39.7477V78.6169H45.0064V80.0158H41.5089Z" fill="white"/>
<path d="M65.4072 108.428V113.468H56.2883V117.512H63.0954V122.262H56.2883V131.153H49.9629V108.428H65.4072Z" fill="white"/>
<path d="M79.5518 131.153L74.9603 122.776H74.3181V131.153H67.9927V108.428H77.9785C79.798 108.428 81.3392 108.749 82.6021 109.391C83.8865 110.012 84.8498 110.878 85.4919 111.991C86.1341 113.104 86.4552 114.356 86.4552 115.747C86.4552 117.33 86.0164 118.71 85.1387 119.887C84.2611 121.043 82.9982 121.856 81.3499 122.326L86.5194 131.153H79.5518ZM74.3181 118.539H77.4326C79.1879 118.539 80.0656 117.747 80.0656 116.164C80.0656 115.415 79.8408 114.826 79.3913 114.398C78.9632 113.97 78.3103 113.757 77.4326 113.757H74.3181V118.539Z" fill="white"/>
<path d="M95.2954 108.428V131.153H88.9699V108.428H95.2954Z" fill="white"/>
<path d="M119.655 119.727C119.655 121.931 119.173 123.899 118.21 125.632C117.247 127.344 115.877 128.692 114.1 129.677C112.324 130.661 110.237 131.153 107.839 131.153H98.7844V108.428H107.839C110.237 108.428 112.324 108.91 114.1 109.873C115.898 110.814 117.268 112.141 118.21 113.853C119.173 115.565 119.655 117.523 119.655 119.727ZM107.261 125.504C109.123 125.504 110.59 125.001 111.66 123.995C112.73 122.99 113.265 121.567 113.265 119.727C113.265 117.908 112.73 116.495 111.66 115.49C110.59 114.463 109.123 113.949 107.261 113.949H105.11V125.504H107.261Z" fill="white"/>
<path d="M136.842 127.366H128.783L127.531 131.153H120.884L129.2 108.525H136.489L144.773 131.153H138.095L136.842 127.366ZM135.269 122.615L132.829 115.233L130.356 122.615H135.269Z" fill="white"/>
<path d="M167.376 108.428L159.349 123.931V131.153H153.056V123.931L145.028 108.428H152.253L156.267 117.095L160.248 108.428H167.376Z" fill="white"/>
<path d="M65.8536 90.2458C67.3367 90.5928 68.502 91.3099 69.3495 92.397C70.2205 93.4842 70.6561 94.7448 70.6561 96.1789C70.6561 98.307 69.938 99.9609 68.502 101.141C67.066 102.297 65.0061 102.875 62.3223 102.875H49.9629V78.3102H62.0398C64.5588 78.3102 66.5245 78.8538 67.937 79.9409C69.373 81.0281 70.0911 82.601 70.0911 84.6597C70.0911 86.1169 69.7026 87.3429 68.9258 88.3375C68.1489 89.309 67.1248 89.9451 65.8536 90.2458ZM56.9195 88.1293H60.4154C62.1575 88.1293 63.0285 87.4123 63.0285 85.9781C63.0285 84.4978 62.1457 83.7576 60.3801 83.7576H56.9195V88.1293ZM60.8392 97.3933C62.6519 97.3933 63.5582 96.6531 63.5582 95.1727C63.5582 93.6461 62.6519 92.8828 60.8392 92.8828H56.9195V97.3933H60.8392Z" fill="white"/>
<path d="M80.5417 97.7056H88.3457V102.875H73.5851V78.3102H80.5417V97.7056Z" fill="white"/>
<path d="M106.75 98.7812H97.8868L96.5096 102.875H89.1999L98.3458 78.4143H106.362L115.472 102.875H108.127L106.75 98.7812ZM105.02 93.6461L102.336 85.6659L99.6171 93.6461H105.02Z" fill="white"/>
<path d="M129.066 78.0673C131.208 78.0673 133.115 78.4605 134.787 79.247C136.482 80.0103 137.859 81.1091 138.918 82.5432C139.978 83.9542 140.696 85.5965 141.072 87.4701H133.763C133.362 86.4986 132.739 85.7468 131.891 85.2148C131.044 84.6597 130.067 84.3821 128.96 84.3821C127.43 84.3821 126.194 84.9488 125.252 86.0822C124.311 87.1925 123.84 88.6845 123.84 90.5581C123.84 92.4317 124.311 93.9352 125.252 95.0686C126.194 96.2021 127.43 96.7688 128.96 96.7688C130.067 96.7688 131.044 96.4912 131.891 95.9361C132.739 95.3809 133.362 94.6176 133.763 93.6461H141.072C140.507 96.5143 139.166 98.8043 137.047 100.516C134.952 102.205 132.291 103.049 129.066 103.049C126.594 103.049 124.428 102.528 122.569 101.488C120.732 100.423 119.308 98.9431 118.296 97.0464C117.307 95.1496 116.813 92.9869 116.813 90.5581C116.813 88.1293 117.307 85.9666 118.296 84.0698C119.308 82.1731 120.732 80.7043 122.569 79.6634C124.428 78.5993 126.594 78.0673 129.066 78.0673Z" fill="white"/>
<path d="M157.7 90.3152L167.376 102.875H159.007L151.132 92.0153V102.875H144.176V78.3102H151.132V88.9274L159.078 78.3102H167.376L157.7 90.3152Z" fill="white"/>
<path d="M208.857 109.481H215.879V104.437H219.203V99.0591H215.879V83.3338H208.558L195 99.3558L196.195 104.437H208.857V109.481ZM202.619 99.0962L208.857 91.6415V99.0962H202.619Z" fill="#E39948"/>
<path d="M233.861 110C241.331 110 246 103.843 246 96.5V96.4258C246 89.0824 241.369 83 233.936 83C226.503 83 221.797 89.1566 221.797 96.5V96.5742C221.797 103.918 226.391 110 233.861 110ZM233.936 103.621C231.023 103.621 229.08 100.654 229.08 96.5V96.4258C229.08 92.272 230.985 89.3791 233.861 89.3791C236.737 89.3791 238.717 92.3832 238.717 96.5V96.5742C238.717 100.691 236.849 103.621 233.936 103.621Z" fill="#E39948"/>
</svg>
