<svg width="527" height="330" viewBox="0 0 527 330" fill="none" xmlns="http://www.w3.org/2000/svg">
<path d="M81.6831 108.344H104.08C114.44 108.344 120.52 103.837 120.52 96.427V96.3036C120.52 90.4377 117.17 87.4739 111.897 85.745C115.743 84.0779 118.597 81.1141 118.597 76.1126V75.9891C118.597 73.0253 117.542 70.7407 115.805 69.0119C113.262 66.4803 109.415 65.1219 103.956 65.1219H81.6831V108.344ZM93.4087 82.349V74.7542H101.226C104.824 74.7542 106.685 76.1126 106.685 78.459V78.5825C106.685 81.1141 104.638 82.349 100.978 82.349H93.4087ZM93.4087 98.7116V90.7464H102.591C106.623 90.7464 108.484 92.2901 108.484 94.6364V94.7599C108.484 97.2915 106.375 98.7116 102.715 98.7116H93.4087Z" fill="white"/>
<path d="M126.032 108.344H159.1V97.8472H138.068V65.1219H126.032V108.344Z" fill="white"/>
<path d="M160.788 108.344H173.444L176.546 100.626H193.297L196.461 108.344H209.365L190.877 64.8131H179.276L160.788 108.344ZM180.082 91.3021L184.983 79.0147L189.822 91.3021H180.082Z" fill="white"/>
<path d="M231.7 109.208C241.316 109.208 246.837 105.071 250.932 99.4526L241.874 93.031C239.268 96.1801 236.601 98.2794 232.072 98.2794C225.992 98.2794 221.711 93.2163 221.711 86.7329V86.6094C221.711 80.3114 225.992 75.1864 232.072 75.1864C236.228 75.1864 239.082 77.1623 241.564 80.2496L250.622 73.2723C246.775 67.9622 241.068 64.2574 232.196 64.2574C219.043 64.2574 209.303 74.1368 209.303 86.7329V86.8564C209.303 99.7613 219.292 109.208 231.7 109.208Z" fill="white"/>
<path d="M256.11 108.344H268.146V97.168L272.551 92.2901L283.47 108.344H297.925L280.926 83.7074L297.367 65.1219H283.098L268.146 82.6577V65.1219H256.11V108.344Z" fill="white"/>
<path d="M81.6831 154.653H93.7189V139.217H114.254V129.276H93.7189V121.928H116.426V111.431H81.6831V154.653Z" fill="white"/>
<path d="M121.912 154.653H133.948V141.563H139.097H139.221L147.969 154.653H161.866L151.505 139.587C156.903 137.303 160.439 132.919 160.439 126.312V126.189C160.439 121.928 159.136 118.594 156.593 116.124C153.677 113.16 149.086 111.431 142.448 111.431H121.912V154.653ZM133.948 132.178V121.805H141.827C145.86 121.805 148.341 123.534 148.341 126.93V127.053C148.341 130.202 145.984 132.178 141.889 132.178H133.948Z" fill="white"/>
<path d="M166.752 154.653H178.85V111.431H166.752V154.653Z" fill="white"/>
<path d="M186.8 154.653H203.303C218.937 154.653 228.057 145.392 228.057 132.919V132.795C228.057 120.323 219.061 111.431 203.551 111.431H186.8V154.653ZM198.836 144.033V122.052H203.737C210.934 122.052 215.711 126.065 215.711 132.981V133.104C215.711 140.081 210.934 144.033 203.737 144.033H198.836Z" fill="white"/>
<path d="M227.675 154.653H240.331L243.433 146.935H260.184L263.348 154.653H276.252L257.764 111.123H246.163L227.675 154.653ZM246.969 137.612L251.87 125.324L256.709 137.612H246.969Z" fill="white"/>
<path d="M286.152 154.653H298.25V138.291L314.752 111.431H301.29L292.294 127.177L283.36 111.431H269.649L286.152 138.476V154.653Z" fill="white"/>
<path d="M44.6519 91.1563C44.6906 92.055 43.9942 92.8099 43.0656 92.8818L1.89744 94.7511C0.968833 94.7871 0.194996 94.1041 0.117612 93.2053L0.0015366 90.7249C-0.0371552 89.8262 0.659298 89.0713 1.5879 88.9994L42.756 87.1301C43.6846 87.0941 44.4585 87.7771 44.5359 88.6759L44.6519 91.1563Z" fill="#E39948"/>
<path d="M79.0713 0.0014623C79.9592 -0.0373032 80.6991 0.699242 80.773 1.66838L82.7707 44.8532C82.8077 45.8223 82.1418 46.6364 81.254 46.7139L78.8493 46.8302C77.9615 46.869 77.2216 46.1324 77.1476 45.1633L75.1499 1.9785C75.1129 1.00937 75.7788 0.19529 76.6667 0.117759L79.0713 0.0014623Z" fill="#E39948"/>
<path d="M16.7565 23.6132C17.4959 22.7419 18.7023 22.6231 19.4417 23.336L51.7418 55.0598C52.4812 55.7727 52.4423 57.0401 51.7029 57.9114L49.6792 60.2481C48.9398 61.1194 47.7335 61.2383 46.9941 60.5254L14.6939 28.8015C13.9545 28.0886 13.9934 26.8213 14.7328 25.95L16.7565 23.6132Z" fill="#E39948"/>
<path fill-rule="evenodd" clip-rule="evenodd" d="M49.01 192.225C49.0098 192.223 49.0096 192.221 51.5837 191.955C54.1578 191.688 54.1577 191.687 54.1576 191.685L54.1574 191.684L54.1585 191.694C54.1599 191.706 54.1625 191.728 54.1664 191.759C54.1742 191.823 54.1874 191.924 54.2074 192.062C54.2473 192.338 54.3142 192.757 54.4183 193.3C54.6268 194.385 54.9839 195.961 55.5727 197.867C56.752 201.683 58.8487 206.784 62.5094 211.919C69.7515 222.076 83.3136 232.659 108.914 233.341H264.654V238.515H108.846L108.812 238.514C81.5547 237.797 66.4774 226.398 58.2944 214.921C54.2411 209.236 51.9287 203.604 50.6274 199.393C49.9759 197.285 49.5749 195.523 49.3353 194.274C49.2154 193.65 49.1357 193.153 49.0851 192.804C49.0598 192.63 49.0418 192.492 49.0297 192.394C49.0236 192.345 49.019 192.306 49.0158 192.277L49.0118 192.241L49.0105 192.229L49.01 192.225ZM54.1574 191.684C54.1573 191.683 54.1573 191.683 54.1574 191.684Z" fill="white"/>
<path fill-rule="evenodd" clip-rule="evenodd" d="M287.616 20.6931L287.65 20.694C314.155 21.38 330.512 32.6414 340.209 43.8487C345.032 49.4239 348.183 54.9541 350.132 59.0986C351.107 61.1728 351.784 62.9065 352.221 64.1345C352.44 64.7488 352.599 65.2373 352.705 65.5795C352.758 65.7506 352.798 65.8852 352.825 65.9808C352.839 66.0286 352.85 66.0666 352.858 66.0945L352.867 66.1288L352.87 66.1403L352.871 66.1445C352.872 66.1462 352.872 66.1478 350.382 66.8351C347.892 67.5224 347.892 67.5237 347.892 67.5247L347.89 67.5145C347.886 67.5019 347.88 67.4794 347.87 67.4473C347.852 67.383 347.822 67.2805 347.779 67.1423C347.693 66.8657 347.557 66.4462 347.364 65.904C346.978 64.8191 346.365 63.2455 345.47 61.3428C343.679 57.5334 340.772 52.4305 336.324 47.2895C327.482 37.0692 312.45 26.5705 287.553 25.9168L136.145 26.1124L136.139 20.8888L287.616 20.6931Z" fill="white"/>
<path d="M460.693 247.216C460.693 258.032 451.935 266.832 441.083 266.832H352.877C342.065 266.832 333.267 258.07 333.267 247.216V159.022C333.267 148.206 342.026 139.406 352.877 139.406H441.044C451.857 139.406 460.654 148.167 460.654 159.022V247.216H460.693Z" fill="#112B3E"/>
<path fill-rule="evenodd" clip-rule="evenodd" d="M362.138 152.39C353.975 152.39 347.341 158.997 347.341 167.188V253.208C347.341 261.372 353.948 268.006 362.138 268.006H448.159C455.961 268.006 462.366 261.971 462.918 254.287V167.188C462.918 159.024 456.311 152.39 448.12 152.39H362.138ZM471.546 248.894V167.188C471.546 154.271 461.087 143.762 448.12 143.762H362.138C349.221 143.762 338.713 154.221 338.713 167.188V253.208C338.713 266.125 349.171 276.634 362.138 276.634H448.159C461.076 276.634 471.584 266.175 471.584 253.208V248.894H471.546Z" fill="#E39948"/>
<path d="M489.012 256.697C488.973 255.876 489.558 255.211 490.338 255.172L524.516 253.764C525.296 253.725 525.921 254.351 525.96 255.172L526.038 257.362C526.077 258.183 525.491 258.848 524.711 258.887L490.533 260.295C489.753 260.334 489.129 259.709 489.09 258.887L489.012 256.697Z" fill="#E39948"/>
<path d="M458.254 329.998C457.453 330.037 456.812 329.424 456.772 328.619L455.249 293.453C455.209 292.649 455.81 291.998 456.612 291.96L458.775 291.883C459.577 291.845 460.218 292.457 460.258 293.262L461.78 328.428C461.82 329.232 461.219 329.883 460.418 329.922L458.254 329.998Z" fill="#E39948"/>
<path d="M506.513 312C505.904 312.688 504.951 312.765 504.379 312.191L478.543 286.748C477.971 286.174 477.971 285.141 478.581 284.49L480.22 282.654C480.829 281.965 481.782 281.888 482.354 282.462L508.19 307.906C508.761 308.48 508.762 309.513 508.152 310.163L506.513 312Z" fill="#E39948"/>
<path d="M381.371 214.554C391.911 214.554 399.289 208.85 399.289 199.282V199.159C399.289 189.836 392.221 185.542 384.409 185.542C381.495 185.542 379.449 186.155 377.465 187.075L377.837 180.574H397.367V170.76H368.351L367.111 192.534L374.241 196.46C376.287 195.233 378.519 194.313 381.185 194.313C384.967 194.313 387.571 196.215 387.571 199.282V199.404C387.571 202.471 385.153 204.434 381.185 204.434C377.527 204.434 374.179 202.716 370.645 199.772L363.762 207.746C368.289 211.917 373.683 214.554 381.371 214.554Z" fill="#E39948"/>
<path d="M424.206 214.554C436.606 214.554 444.357 204.372 444.357 192.228V192.105C444.357 179.96 436.668 169.901 424.33 169.901C411.992 169.901 404.18 180.083 404.18 192.228V192.35C404.18 204.495 411.806 214.554 424.206 214.554ZM424.33 204.004C419.494 204.004 416.27 199.097 416.27 192.228V192.105C416.27 185.235 419.432 180.451 424.206 180.451C428.98 180.451 432.266 185.419 432.266 192.228V192.35C432.266 199.159 429.166 204.004 424.33 204.004Z" fill="#E39948"/>
<path d="M363.762 228.097C363.762 227.064 363.907 226.181 364.197 225.447C364.487 224.713 364.889 224.105 365.402 223.623C365.915 223.142 366.528 222.798 367.242 222.591C367.978 222.362 368.77 222.247 369.617 222.247C370.465 222.247 371.245 222.35 371.959 222.557C372.673 222.763 373.286 223.096 373.799 223.555C374.334 224.013 374.747 224.621 375.037 225.378C375.327 226.112 375.483 227.018 375.505 228.097C375.483 229.175 375.327 230.092 375.037 230.849C374.747 231.583 374.334 232.18 373.799 232.638C373.286 233.097 372.673 233.43 371.959 233.636C371.245 233.843 370.465 233.946 369.617 233.946C368.77 233.946 367.978 233.843 367.242 233.636C366.528 233.43 365.915 233.097 365.402 232.638C364.889 232.18 364.487 231.583 364.197 230.849C363.907 230.092 363.762 229.175 363.762 228.097ZM367.643 228.097C367.643 230.069 368.301 231.056 369.617 231.056C370.308 231.056 370.799 230.849 371.089 230.436C371.401 230 371.569 229.221 371.591 228.097C371.569 226.995 371.401 226.227 371.089 225.791C370.799 225.355 370.308 225.137 369.617 225.137C368.926 225.137 368.424 225.355 368.112 225.791C367.799 226.227 367.643 226.995 367.643 228.097ZM377.345 240.828C377.345 239.795 377.49 238.912 377.78 238.178C378.07 237.444 378.472 236.836 378.985 236.355C379.497 235.873 380.111 235.529 380.825 235.322C381.561 235.093 382.352 234.978 383.2 234.978C384.047 234.978 384.828 235.081 385.542 235.288C386.255 235.494 386.869 235.827 387.382 236.286C387.917 236.745 388.33 237.352 388.62 238.109C388.91 238.843 389.066 239.75 389.088 240.828C389.066 241.906 388.91 242.823 388.62 243.58C388.33 244.314 387.917 244.911 387.382 245.37C386.869 245.828 386.255 246.161 385.542 246.368C384.828 246.574 384.047 246.677 383.2 246.677C382.352 246.677 381.561 246.574 380.825 246.368C380.111 246.161 379.497 245.828 378.985 245.37C378.472 244.911 378.07 244.314 377.78 243.58C377.49 242.823 377.345 241.906 377.345 240.828ZM381.226 240.828C381.226 242.8 381.884 243.787 383.2 243.787C383.891 243.787 384.382 243.58 384.672 243.168C384.984 242.732 385.151 241.952 385.174 240.828C385.151 239.727 384.984 238.958 384.672 238.522C384.382 238.086 383.891 237.869 383.2 237.869C382.508 237.869 382.007 238.086 381.694 238.522C381.382 238.958 381.226 239.727 381.226 240.828ZM384.705 222.178L387.148 224.449L367.877 247.228L365.435 244.854L384.705 222.178Z" fill="#E39948"/>
<path d="M391.425 234.703C391.425 230.689 392.283 227.603 394.001 225.447C395.718 223.268 398.171 222.178 401.361 222.178C403.033 222.178 404.494 222.476 405.743 223.073C406.992 223.669 408.029 224.518 408.855 225.619C409.68 226.72 410.293 228.039 410.695 229.576C411.096 231.113 411.297 232.822 411.297 234.703C411.297 238.717 410.427 241.814 408.687 243.993C406.97 246.15 404.528 247.228 401.361 247.228C399.666 247.228 398.194 246.93 396.945 246.333C395.696 245.737 394.659 244.888 393.833 243.787C393.03 242.686 392.428 241.367 392.027 239.83C391.625 238.293 391.425 236.584 391.425 234.703ZM396.242 234.703C396.242 235.919 396.342 237.043 396.543 238.075C396.744 239.084 397.045 239.956 397.446 240.69C397.87 241.424 398.406 241.998 399.052 242.411C399.699 242.823 400.469 243.03 401.361 243.03C402.989 243.03 404.249 242.376 405.141 241.069C406.033 239.761 406.479 237.639 406.479 234.703C406.479 233.533 406.379 232.443 406.178 231.434C406 230.425 405.71 229.542 405.308 228.785C404.907 228.028 404.383 227.443 403.736 227.03C403.089 226.594 402.297 226.376 401.361 226.376C399.733 226.376 398.472 227.053 397.58 228.406C396.688 229.737 396.242 231.836 396.242 234.703Z" fill="#E39948"/>
<path d="M414.573 222.66H428.457V226.858H419.156V232.81H427.721V237.008H419.156V246.746H414.573V222.66Z" fill="#E39948"/>
<path d="M431.562 222.66H445.446V226.858H436.145V232.81H444.71V237.008H436.145V246.746H431.562V222.66Z" fill="#E39948"/>
<path d="M81.56 177.84H86.58C87.5 177.84 88.4267 177.96 89.36 178.2C90.2933 178.44 91.1333 178.84 91.88 179.4C92.6267 179.947 93.2333 180.673 93.7 181.58C94.1667 182.473 94.4 183.587 94.4 184.92C94.4 186.16 94.1667 187.227 93.7 188.12C93.2333 189.013 92.6267 189.747 91.88 190.32C91.1333 190.893 90.2933 191.32 89.36 191.6C88.4267 191.867 87.5 192 86.58 192H81.56V177.84ZM86.18 189.8C86.8333 189.8 87.4867 189.727 88.14 189.58C88.7933 189.42 89.38 189.16 89.9 188.8C90.4333 188.427 90.8667 187.927 91.2 187.3C91.5333 186.673 91.7 185.88 91.7 184.92C91.7 183.907 91.5333 183.08 91.2 182.44C90.8667 181.8 90.4333 181.3 89.9 180.94C89.38 180.58 88.7933 180.333 88.14 180.2C87.4867 180.067 86.8333 180 86.18 180H84.08V189.8H86.18ZM97.2334 177.84H106.613V180.04H99.7534V183.64H106.253V185.76H99.7534V189.76H106.973V192H97.2334V177.84ZM115.24 177.84H120.16C120.827 177.84 121.474 177.913 122.1 178.06C122.727 178.193 123.28 178.42 123.76 178.74C124.254 179.06 124.647 179.48 124.94 180C125.234 180.52 125.38 181.153 125.38 181.9C125.38 182.927 125.087 183.767 124.5 184.42C123.927 185.06 123.14 185.493 122.14 185.72L125.92 192H122.88L119.6 186H117.76V192H115.24V177.84ZM119.82 183.94C120.18 183.94 120.54 183.913 120.9 183.86C121.26 183.807 121.58 183.707 121.86 183.56C122.154 183.413 122.394 183.207 122.58 182.94C122.767 182.66 122.86 182.307 122.86 181.88C122.86 181.493 122.774 181.18 122.6 180.94C122.427 180.687 122.207 180.487 121.94 180.34C121.674 180.193 121.367 180.093 121.02 180.04C120.687 179.987 120.36 179.96 120.04 179.96H117.76V183.94H119.82ZM133.259 177.6C133.992 177.613 134.732 177.74 135.479 177.98C136.225 178.207 136.872 178.553 137.419 179.02L135.799 180.7C135.492 180.353 135.105 180.093 134.639 179.92C134.185 179.733 133.725 179.64 133.259 179.64V183.68C133.765 183.84 134.272 184.027 134.779 184.24C135.285 184.453 135.739 184.727 136.139 185.06C136.552 185.38 136.885 185.773 137.139 186.24C137.392 186.707 137.519 187.28 137.519 187.96C137.519 188.653 137.399 189.267 137.159 189.8C136.932 190.32 136.619 190.76 136.219 191.12C135.832 191.467 135.379 191.733 134.859 191.92C134.352 192.107 133.819 192.207 133.259 192.22V193.66H132.179V192.22C131.299 192.193 130.452 192.033 129.639 191.74C128.839 191.433 128.119 190.973 127.479 190.36L129.239 188.68C129.599 189.107 130.052 189.46 130.599 189.74C131.145 190.007 131.672 190.147 132.179 190.16V185.72C131.592 185.56 131.045 185.38 130.539 185.18C130.032 184.967 129.585 184.7 129.199 184.38C128.825 184.06 128.532 183.68 128.319 183.24C128.105 182.787 127.999 182.24 127.999 181.6C127.999 181 128.112 180.467 128.339 180C128.579 179.52 128.892 179.113 129.279 178.78C129.679 178.447 130.125 178.187 130.619 178C131.125 177.8 131.645 177.68 132.179 177.64V176.28H133.259V177.6ZM132.179 179.64C131.712 179.693 131.299 179.867 130.939 180.16C130.579 180.453 130.399 180.893 130.399 181.48C130.399 182.04 130.565 182.467 130.899 182.76C131.245 183.04 131.672 183.253 132.179 183.4V179.64ZM133.259 190.16C133.819 190.133 134.265 189.933 134.599 189.56C134.945 189.187 135.119 188.7 135.119 188.1C135.119 187.513 134.939 187.073 134.579 186.78C134.232 186.473 133.792 186.227 133.259 186.04V190.16ZM144.246 184.44L139.846 177.84H142.886L145.806 182.68L148.686 177.84H151.586L147.266 184.5L152.346 192H149.166L145.706 186.44L142.386 192H139.346L144.246 184.44ZM157.81 184.44L153.41 177.84H156.45L159.37 182.68L162.25 177.84H165.15L160.83 184.5L165.91 192H162.73L159.27 186.44L155.95 192H152.91L157.81 184.44ZM171.374 184.44L166.974 177.84H170.014L172.934 182.68L175.814 177.84H178.714L174.394 184.5L179.474 192H176.294L172.834 186.44L169.514 192H166.474L171.374 184.44ZM186.683 177.84H191.303C192.117 177.84 192.85 177.913 193.503 178.06C194.157 178.207 194.717 178.447 195.183 178.78C195.65 179.113 196.01 179.54 196.263 180.06C196.517 180.58 196.643 181.207 196.643 181.94C196.643 182.727 196.497 183.387 196.203 183.92C195.91 184.453 195.51 184.887 195.003 185.22C194.51 185.54 193.93 185.773 193.263 185.92C192.597 186.067 191.89 186.14 191.143 186.14H189.203V192H186.683V177.84ZM190.963 184.02C191.377 184.02 191.77 183.993 192.143 183.94C192.517 183.873 192.85 183.767 193.143 183.62C193.437 183.46 193.67 183.247 193.843 182.98C194.017 182.713 194.103 182.367 194.103 181.94C194.103 181.527 194.017 181.193 193.843 180.94C193.67 180.673 193.437 180.467 193.143 180.32C192.863 180.173 192.537 180.08 192.163 180.04C191.803 179.987 191.43 179.96 191.043 179.96H189.203V184.02H190.963ZM198.61 184.88C198.61 183.747 198.797 182.727 199.17 181.82C199.557 180.9 200.084 180.12 200.75 179.48C201.43 178.84 202.23 178.347 203.15 178C204.084 177.653 205.097 177.48 206.19 177.48C207.297 177.48 208.317 177.653 209.25 178C210.184 178.347 210.99 178.84 211.67 179.48C212.35 180.12 212.877 180.9 213.25 181.82C213.637 182.727 213.83 183.747 213.83 184.88C213.83 185.987 213.637 187 213.25 187.92C212.877 188.827 212.35 189.613 211.67 190.28C210.99 190.933 210.184 191.447 209.25 191.82C208.317 192.18 207.297 192.36 206.19 192.36C205.097 192.36 204.084 192.18 203.15 191.82C202.23 191.447 201.43 190.933 200.75 190.28C200.084 189.613 199.557 188.827 199.17 187.92C198.797 187 198.61 185.987 198.61 184.88ZM201.35 184.88C201.35 185.64 201.464 186.34 201.69 186.98C201.93 187.607 202.264 188.153 202.69 188.62C203.13 189.087 203.644 189.453 204.23 189.72C204.83 189.973 205.49 190.1 206.21 190.1C206.93 190.1 207.59 189.973 208.19 189.72C208.79 189.453 209.304 189.087 209.73 188.62C210.17 188.153 210.504 187.607 210.73 186.98C210.97 186.34 211.09 185.64 211.09 184.88C211.09 184.147 210.97 183.467 210.73 182.84C210.504 182.213 210.177 181.667 209.75 181.2C209.324 180.733 208.81 180.367 208.21 180.1C207.61 179.833 206.944 179.7 206.21 179.7C205.477 179.7 204.81 179.833 204.21 180.1C203.624 180.367 203.117 180.733 202.69 181.2C202.264 181.667 201.93 182.213 201.69 182.84C201.464 183.467 201.35 184.147 201.35 184.88ZM216.663 177.84H221.583C222.25 177.84 222.896 177.913 223.523 178.06C224.15 178.193 224.703 178.42 225.183 178.74C225.676 179.06 226.07 179.48 226.363 180C226.656 180.52 226.803 181.153 226.803 181.9C226.803 182.927 226.51 183.767 225.923 184.42C225.35 185.06 224.563 185.493 223.563 185.72L227.343 192H224.303L221.023 186H219.183V192H216.663V177.84ZM221.243 183.94C221.603 183.94 221.963 183.913 222.323 183.86C222.683 183.807 223.003 183.707 223.283 183.56C223.576 183.413 223.816 183.207 224.003 182.94C224.19 182.66 224.283 182.307 224.283 181.88C224.283 181.493 224.196 181.18 224.023 180.94C223.85 180.687 223.63 180.487 223.363 180.34C223.096 180.193 222.79 180.093 222.443 180.04C222.11 179.987 221.783 179.96 221.463 179.96H219.183V183.94H221.243ZM235.041 177.84H239.961C240.628 177.84 241.275 177.913 241.901 178.06C242.528 178.193 243.081 178.42 243.561 178.74C244.055 179.06 244.448 179.48 244.741 180C245.035 180.52 245.181 181.153 245.181 181.9C245.181 182.927 244.888 183.767 244.301 184.42C243.728 185.06 242.941 185.493 241.941 185.72L245.721 192H242.681L239.401 186H237.561V192H235.041V177.84ZM239.621 183.94C239.981 183.94 240.341 183.913 240.701 183.86C241.061 183.807 241.381 183.707 241.661 183.56C241.955 183.413 242.195 183.207 242.381 182.94C242.568 182.66 242.661 182.307 242.661 181.88C242.661 181.493 242.575 181.18 242.401 180.94C242.228 180.687 242.008 180.487 241.741 180.34C241.475 180.193 241.168 180.093 240.821 180.04C240.488 179.987 240.161 179.96 239.841 179.96H237.561V183.94H239.621ZM253.059 177.6C253.793 177.613 254.533 177.74 255.279 177.98C256.026 178.207 256.673 178.553 257.219 179.02L255.599 180.7C255.293 180.353 254.906 180.093 254.439 179.92C253.986 179.733 253.526 179.64 253.059 179.64V183.68C253.566 183.84 254.073 184.027 254.579 184.24C255.086 184.453 255.539 184.727 255.939 185.06C256.353 185.38 256.686 185.773 256.939 186.24C257.193 186.707 257.319 187.28 257.319 187.96C257.319 188.653 257.199 189.267 256.959 189.8C256.733 190.32 256.419 190.76 256.019 191.12C255.633 191.467 255.179 191.733 254.659 191.92C254.153 192.107 253.619 192.207 253.059 192.22V193.66H251.979V192.22C251.099 192.193 250.253 192.033 249.439 191.74C248.639 191.433 247.919 190.973 247.279 190.36L249.039 188.68C249.399 189.107 249.853 189.46 250.399 189.74C250.946 190.007 251.473 190.147 251.979 190.16V185.72C251.393 185.56 250.846 185.38 250.339 185.18C249.833 184.967 249.386 184.7 248.999 184.38C248.626 184.06 248.333 183.68 248.119 183.24C247.906 182.787 247.799 182.24 247.799 181.6C247.799 181 247.913 180.467 248.139 180C248.379 179.52 248.693 179.113 249.079 178.78C249.479 178.447 249.926 178.187 250.419 178C250.926 177.8 251.446 177.68 251.979 177.64V176.28H253.059V177.6ZM251.979 179.64C251.513 179.693 251.099 179.867 250.739 180.16C250.379 180.453 250.199 180.893 250.199 181.48C250.199 182.04 250.366 182.467 250.699 182.76C251.046 183.04 251.473 183.253 251.979 183.4V179.64ZM253.059 190.16C253.619 190.133 254.066 189.933 254.399 189.56C254.746 189.187 254.919 188.7 254.919 188.1C254.919 187.513 254.739 187.073 254.379 186.78C254.033 186.473 253.593 186.227 253.059 186.04V190.16ZM264.046 184.44L259.646 177.84H262.686L265.606 182.68L268.486 177.84H271.386L267.066 184.5L272.146 192H268.966L265.506 186.44L262.186 192H259.146L264.046 184.44ZM277.61 184.44L273.21 177.84H276.25L279.17 182.68L282.05 177.84H284.95L280.63 184.5L285.71 192H282.53L279.07 186.44L275.75 192H272.71L277.61 184.44ZM291.175 184.44L286.775 177.84H289.815L292.735 182.68L295.615 177.84H298.515L294.195 184.5L299.275 192H296.095L292.635 186.44L289.315 192H286.275L291.175 184.44Z" fill="#E39948"/>
</svg>
