<svg width="511" height="321" viewBox="0 0 511 321" fill="none" xmlns="http://www.w3.org/2000/svg">
<path d="M79.1228 105.537H100.894C110.965 105.537 116.875 101.134 116.875 93.8976V93.777C116.875 88.0478 113.618 85.1531 108.492 83.4645C112.231 81.8362 115.005 78.9415 115.005 74.0567V73.9361C115.005 71.0413 113.98 68.81 112.292 67.1214C109.819 64.6488 106.08 63.3221 100.773 63.3221H79.1228V105.537ZM90.5208 80.1477V72.7299H98.1194C101.617 72.7299 103.426 74.0567 103.426 76.3483V76.4689C103.426 78.9415 101.436 80.1477 97.8782 80.1477H90.5208ZM90.5208 96.1289V88.3494H99.4462C103.366 88.3494 105.175 89.857 105.175 92.1487V92.2693C105.175 94.7419 103.125 96.1289 99.5668 96.1289H90.5208Z" fill="white"/>
<path d="M122.233 105.537H154.376V95.2846H133.932V63.3221H122.233V105.537Z" fill="white"/>
<path d="M156.017 105.537H168.32L171.335 97.9984H187.618L190.694 105.537H203.237L185.266 63.0205H173.989L156.017 105.537ZM174.773 88.8921L179.537 76.8911L184.241 88.8921H174.773Z" fill="white"/>
<path d="M224.948 106.381C234.295 106.381 239.663 102.341 243.643 96.8526L234.838 90.5807C232.305 93.6564 229.712 95.7068 225.31 95.7068C219.4 95.7068 215.238 90.7616 215.238 84.4294V84.3088C215.238 78.1575 219.4 73.1521 225.31 73.1521C229.35 73.1521 232.124 75.0819 234.537 78.0972L243.341 71.2826C239.602 66.0962 234.054 62.4778 225.43 62.4778C212.645 62.4778 203.177 72.1269 203.177 84.4294V84.55C203.177 97.1542 212.886 106.381 224.948 106.381Z" fill="white"/>
<path d="M248.677 105.537H260.376V94.6213L264.658 89.857L275.272 105.537H289.323L272.799 81.4744L288.781 63.3221H274.91L260.376 80.4492V63.3221H248.677V105.537Z" fill="white"/>
<path d="M79.1228 150.767H90.8223V135.69H110.784V125.981H90.8223V118.804H112.895V108.552H79.1228V150.767Z" fill="white"/>
<path d="M118.228 150.767H129.927V137.982H134.933H135.054L143.557 150.767H157.065L146.994 136.052C152.241 133.821 155.678 129.539 155.678 123.086V122.965C155.678 118.804 154.412 115.548 151.939 113.135C149.105 110.241 144.642 108.552 138.189 108.552H118.228V150.767ZM129.927 128.815V118.684H137.586C141.506 118.684 143.919 120.372 143.919 123.689V123.81C143.919 126.885 141.627 128.815 137.647 128.815H129.927Z" fill="white"/>
<path d="M161.815 150.767H173.574V108.552H161.815V150.767Z" fill="white"/>
<path d="M181.303 150.767H197.344C212.542 150.767 221.407 141.721 221.407 129.539V129.418C221.407 117.236 212.662 108.552 197.585 108.552H181.303V150.767ZM193.002 140.394V118.925H197.766C204.762 118.925 209.406 122.845 209.406 129.599V129.72C209.406 136.534 204.762 140.394 197.766 140.394H193.002Z" fill="white"/>
<path d="M221.035 150.767H233.338L236.353 143.228H252.636L255.712 150.767H268.256L250.284 108.251H239.007L221.035 150.767ZM239.791 134.122L244.555 122.121L249.259 134.122H239.791Z" fill="white"/>
<path d="M277.879 150.767H289.638V134.786L305.68 108.552H292.593L283.849 123.93L275.165 108.552H261.837L277.879 134.966V150.767Z" fill="white"/>
<path d="M83.3531 176.938C81.161 176.938 79.4466 176.277 78.2098 174.956C76.9796 173.634 76.3645 171.824 76.3645 169.528C76.3645 168.068 76.6524 166.786 77.2282 165.68C77.8041 164.567 78.6515 163.7 79.7705 163.079C80.8894 162.457 82.2113 162.146 83.736 162.146C85.4831 162.146 86.9816 162.523 88.2315 163.275L87.3677 165.258C86.1768 164.617 84.9825 164.296 83.785 164.296C82.3323 164.296 81.1905 164.767 80.3594 165.709C79.5284 166.652 79.1128 167.934 79.1128 169.557C79.1128 171.167 79.4825 172.44 80.222 173.375C80.9614 174.311 82.0444 174.779 83.4709 174.779C84.387 174.779 85.2181 174.635 85.9641 174.347V171.01H82.9507L82.9703 168.919H88.467V175.859C87.5771 176.225 86.733 176.497 85.9346 176.673C85.1428 176.85 84.2823 176.938 83.3531 176.938Z" fill="#E39948"/>
<path d="M91.0878 176.732V165.945H93.2472L93.5809 167.594C94.2877 166.462 95.3118 165.896 96.6532 165.896C96.9346 165.896 97.1636 165.909 97.3403 165.935L97.301 168.085C97.0393 168.045 96.7677 168.026 96.4863 168.026C95.5375 168.026 94.8275 168.278 94.3564 168.782C93.8918 169.285 93.6595 169.986 93.6595 170.882V176.732H91.0878Z" fill="#E39948"/>
<path d="M103.514 174.985C104.385 174.985 105.039 174.668 105.477 174.033C105.916 173.398 106.135 172.489 106.135 171.304C106.135 170.107 105.916 169.194 105.477 168.566C105.039 167.937 104.378 167.623 103.495 167.623C102.624 167.623 101.967 167.941 101.522 168.575C101.083 169.204 100.864 170.117 100.864 171.314C100.864 172.492 101.087 173.398 101.532 174.033C101.977 174.668 102.637 174.985 103.514 174.985ZM103.446 176.938C101.849 176.938 100.593 176.421 99.6764 175.387C98.7603 174.354 98.3022 172.992 98.3022 171.304C98.3022 169.564 98.7603 168.193 99.6764 167.191C100.593 166.184 101.885 165.68 103.554 165.68C105.163 165.68 106.423 166.194 107.333 167.221C108.249 168.242 108.707 169.603 108.707 171.304C108.707 173.025 108.245 174.396 107.323 175.417C106.4 176.431 105.108 176.938 103.446 176.938Z" fill="#E39948"/>
<path d="M112.78 176.732L109.512 165.945H112.132L114.203 173.856C114.249 173.706 114.622 172.42 115.322 169.999C116.023 167.578 116.418 166.226 116.51 165.945H119.15C119.236 166.22 119.612 167.558 120.279 169.959C120.947 172.361 121.307 173.65 121.359 173.827L123.489 165.945H126.07L122.694 176.732H120.132C120.047 176.451 119.648 175.028 118.935 172.462C118.228 169.897 117.845 168.513 117.786 168.31C117.655 168.788 117.236 170.228 116.53 172.629C115.83 175.031 115.424 176.398 115.313 176.732H112.78Z" fill="#E39948"/>
<path d="M131.822 176.879C131.089 176.879 130.478 176.794 129.987 176.624C129.503 176.448 129.123 176.173 128.848 175.8C128.573 175.427 128.377 174.988 128.259 174.484C128.148 173.974 128.092 173.346 128.092 172.6V167.506H126.326L126.424 166.112L128.269 165.945L129.094 163.02L130.664 163.01V165.945H133.344V167.506H130.664V172.649C130.664 173.467 130.782 174.049 131.017 174.396C131.253 174.743 131.688 174.916 132.323 174.916C132.696 174.916 133.095 174.884 133.52 174.818L133.589 176.663C133.576 176.663 133.494 176.68 133.344 176.713C133.2 176.739 133.059 176.762 132.922 176.781C132.791 176.807 132.621 176.83 132.411 176.85C132.202 176.87 132.006 176.879 131.822 176.879Z" fill="#E39948"/>
<path d="M135.405 176.732V161.97L137.977 161.803V164.914C137.977 165.065 137.967 165.484 137.947 166.171C137.928 166.851 137.918 167.198 137.918 167.211C138.775 166.19 139.927 165.68 141.373 165.68C142.577 165.68 143.509 166.027 144.17 166.72C144.838 167.407 145.171 168.467 145.171 169.901V176.732H142.6V170.185C142.6 169.302 142.459 168.654 142.178 168.242C141.896 167.829 141.419 167.623 140.745 167.623C140.169 167.623 139.658 167.771 139.213 168.065C138.768 168.353 138.435 168.726 138.212 169.184C138.055 169.786 137.977 170.571 137.977 171.54V176.732H135.405Z" fill="#E39948"/>
<path d="M153.279 176.732V162.352H155.939V174.612H161.956L161.878 176.732H153.279Z" fill="#E39948"/>
<path d="M168.542 176.938C166.808 176.938 165.457 176.441 164.488 175.446C163.527 174.445 163.046 173.064 163.046 171.304C163.046 169.59 163.5 168.225 164.41 167.211C165.32 166.197 166.56 165.686 168.13 165.68C169.615 165.68 170.767 166.144 171.585 167.074C172.41 168.003 172.822 169.236 172.822 170.774C172.822 170.885 172.819 171.065 172.812 171.314C172.812 171.563 172.812 171.746 172.812 171.864H165.637C165.663 172.871 165.938 173.653 166.461 174.21C166.991 174.759 167.718 175.034 168.64 175.034C169.818 175.034 170.95 174.727 172.037 174.111L172.4 175.937C171.32 176.605 170.034 176.938 168.542 176.938ZM165.686 170.244H170.397C170.397 169.367 170.198 168.693 169.799 168.222C169.4 167.751 168.847 167.515 168.14 167.515C167.479 167.515 166.919 167.744 166.461 168.202C166.01 168.661 165.751 169.341 165.686 170.244Z" fill="#E39948"/>
<path d="M177.73 176.938C176.728 176.938 175.917 176.663 175.295 176.114C174.68 175.558 174.373 174.759 174.373 173.719C174.373 172.6 174.739 171.772 175.472 171.235C176.205 170.692 177.311 170.349 178.79 170.205C178.993 170.179 179.212 170.152 179.447 170.126C179.683 170.1 179.948 170.074 180.242 170.048C180.537 170.022 180.769 169.999 180.939 169.979V169.41C180.939 168.755 180.789 168.281 180.488 167.987C180.187 167.686 179.729 167.535 179.114 167.535C178.237 167.535 177.154 167.78 175.865 168.271C175.858 168.252 175.75 167.954 175.541 167.378C175.331 166.802 175.223 166.508 175.217 166.495C176.486 165.951 177.861 165.68 179.339 165.68C180.792 165.68 181.849 165.997 182.51 166.632C183.171 167.26 183.501 168.281 183.501 169.694V176.732H181.597C181.59 176.706 181.518 176.487 181.381 176.075C181.244 175.662 181.175 175.443 181.175 175.417C180.638 175.94 180.112 176.326 179.595 176.575C179.084 176.817 178.463 176.938 177.73 176.938ZM178.427 175.113C179.022 175.113 179.539 174.972 179.977 174.691C180.422 174.403 180.74 174.056 180.93 173.65V171.569C180.91 171.569 180.736 171.582 180.409 171.608C180.089 171.635 179.915 171.648 179.889 171.648C178.849 171.739 178.086 171.936 177.602 172.237C177.118 172.538 176.876 173.022 176.876 173.689C176.876 174.147 177.01 174.501 177.278 174.749C177.546 174.992 177.929 175.113 178.427 175.113Z" fill="#E39948"/>
<path d="M190.107 176.938C188.7 176.938 187.594 176.421 186.789 175.387C185.985 174.354 185.582 172.973 185.582 171.245C185.582 169.57 185.981 168.225 186.78 167.211C187.584 166.19 188.69 165.68 190.097 165.68C191.628 165.68 192.711 166.223 193.346 167.309C193.281 166.668 193.248 166.05 193.248 165.454V161.97L195.82 161.803V176.732H193.592L193.307 175.26C193.196 175.437 193.091 175.59 192.993 175.721C192.901 175.846 192.764 175.993 192.581 176.163C192.397 176.326 192.198 176.461 191.982 176.565C191.772 176.663 191.504 176.749 191.177 176.821C190.856 176.899 190.5 176.938 190.107 176.938ZM190.716 174.985C192.443 174.985 193.32 173.81 193.346 171.461C193.346 170.133 193.124 169.164 192.679 168.556C192.234 167.947 191.57 167.643 190.686 167.643C189.914 167.643 189.296 167.954 188.831 168.575C188.373 169.191 188.144 170.1 188.144 171.304C188.144 172.502 188.373 173.415 188.831 174.043C189.296 174.671 189.924 174.985 190.716 174.985Z" fill="#E39948"/>
<path d="M203.427 176.938C201.693 176.938 200.341 176.441 199.373 175.446C198.411 174.445 197.93 173.064 197.93 171.304C197.93 169.59 198.385 168.225 199.294 167.211C200.204 166.197 201.444 165.686 203.014 165.68C204.5 165.68 205.652 166.144 206.47 167.074C207.294 168.003 207.706 169.236 207.706 170.774C207.706 170.885 207.703 171.065 207.697 171.314C207.697 171.563 207.697 171.746 207.697 171.864H200.521C200.548 172.871 200.822 173.653 201.346 174.21C201.876 174.759 202.602 175.034 203.525 175.034C204.703 175.034 205.835 174.727 206.921 174.111L207.284 175.937C206.205 176.605 204.919 176.938 203.427 176.938ZM200.57 170.244H205.282C205.282 169.367 205.082 168.693 204.683 168.222C204.284 167.751 203.731 167.515 203.024 167.515C202.363 167.515 201.804 167.744 201.346 168.202C200.894 168.661 200.636 169.341 200.57 170.244Z" fill="#E39948"/>
<path d="M209.817 176.732V165.945H211.976L212.31 167.594C213.017 166.462 214.041 165.896 215.382 165.896C215.663 165.896 215.892 165.909 216.069 165.935L216.03 168.085C215.768 168.045 215.497 168.026 215.215 168.026C214.266 168.026 213.556 168.278 213.085 168.782C212.621 169.285 212.388 169.986 212.388 170.882V176.732H209.817Z" fill="#E39948"/>
<path d="M221.625 176.732L226.915 162.343H229.811L235.023 176.732H232.294L230.871 172.669H225.836L224.403 176.732H221.625ZM226.503 170.686H230.194C229.016 166.91 228.411 164.96 228.378 164.836L226.503 170.686Z" fill="#E39948"/>
<path d="M241.03 176.938C239.381 176.938 238.095 176.448 237.173 175.466C236.256 174.484 235.798 173.081 235.798 171.255C235.798 169.488 236.279 168.117 237.241 167.142C238.21 166.167 239.483 165.68 241.06 165.68C242.322 165.68 243.389 165.951 244.259 166.495L243.651 168.33C242.761 167.865 241.933 167.633 241.168 167.633C240.297 167.633 239.61 167.944 239.106 168.566C238.609 169.187 238.36 170.094 238.36 171.285C238.36 172.489 238.606 173.405 239.096 174.033C239.594 174.661 240.294 174.975 241.197 174.975C242.139 174.975 243.046 174.697 243.916 174.141L244.161 176.094C243.71 176.395 243.242 176.611 242.758 176.742C242.273 176.873 241.698 176.938 241.03 176.938Z" fill="#E39948"/>
<path d="M249.049 176.938C248.048 176.938 247.237 176.663 246.615 176.114C246 175.558 245.692 174.759 245.692 173.719C245.692 172.6 246.059 171.772 246.792 171.235C247.525 170.692 248.631 170.349 250.109 170.205C250.312 170.179 250.532 170.152 250.767 170.126C251.003 170.1 251.268 170.074 251.562 170.048C251.857 170.022 252.089 169.999 252.259 169.979V169.41C252.259 168.755 252.109 168.281 251.808 167.987C251.507 167.686 251.049 167.535 250.433 167.535C249.557 167.535 248.474 167.78 247.184 168.271C247.178 168.252 247.07 167.954 246.861 167.378C246.651 166.802 246.543 166.508 246.537 166.495C247.806 165.951 249.18 165.68 250.659 165.68C252.112 165.68 253.169 165.997 253.83 166.632C254.49 167.26 254.821 168.281 254.821 169.694V176.732H252.917C252.91 176.706 252.838 176.487 252.701 176.075C252.563 175.662 252.495 175.443 252.495 175.417C251.958 175.94 251.431 176.326 250.914 176.575C250.404 176.817 249.782 176.938 249.049 176.938ZM249.746 175.113C250.342 175.113 250.859 174.972 251.297 174.691C251.742 174.403 252.06 174.056 252.249 173.65V171.569C252.23 171.569 252.056 171.582 251.729 171.608C251.408 171.635 251.235 171.648 251.209 171.648C250.168 171.739 249.406 171.936 248.922 172.237C248.438 172.538 248.195 173.022 248.195 173.689C248.195 174.147 248.33 174.501 248.598 174.749C248.866 174.992 249.249 175.113 249.746 175.113Z" fill="#E39948"/>
<path d="M261.427 176.938C260.02 176.938 258.914 176.421 258.109 175.387C257.304 174.354 256.902 172.973 256.902 171.245C256.902 169.57 257.301 168.225 258.099 167.211C258.904 166.19 260.01 165.68 261.417 165.68C262.948 165.68 264.031 166.223 264.666 167.309C264.601 166.668 264.568 166.05 264.568 165.454V161.97L267.139 161.803V176.732H264.911L264.627 175.26C264.515 175.437 264.411 175.59 264.313 175.721C264.221 175.846 264.084 175.993 263.9 176.163C263.717 176.326 263.518 176.461 263.302 176.565C263.092 176.663 262.824 176.749 262.497 176.821C262.176 176.899 261.819 176.938 261.427 176.938ZM262.035 174.985C263.763 174.985 264.64 173.81 264.666 171.461C264.666 170.133 264.443 169.164 263.998 168.556C263.554 167.947 262.889 167.643 262.006 167.643C261.234 167.643 260.615 167.954 260.151 168.575C259.693 169.191 259.464 170.1 259.464 171.304C259.464 172.502 259.693 173.415 260.151 174.043C260.615 174.671 261.244 174.985 262.035 174.985Z" fill="#E39948"/>
<path d="M274.747 176.938C273.012 176.938 271.661 176.441 270.693 175.446C269.731 174.445 269.25 173.064 269.25 171.304C269.25 169.59 269.705 168.225 270.614 167.211C271.524 166.197 272.764 165.686 274.334 165.68C275.82 165.68 276.971 166.144 277.789 167.074C278.614 168.003 279.026 169.236 279.026 170.774C279.026 170.885 279.023 171.065 279.016 171.314C279.016 171.563 279.016 171.746 279.016 171.864H271.841C271.867 172.871 272.142 173.653 272.666 174.21C273.196 174.759 273.922 175.034 274.845 175.034C276.023 175.034 277.155 174.727 278.241 174.111L278.604 175.937C277.524 176.605 276.238 176.938 274.747 176.938ZM271.89 170.244H276.602C276.602 169.367 276.402 168.693 276.003 168.222C275.604 167.751 275.051 167.515 274.344 167.515C273.683 167.515 273.124 167.744 272.666 168.202C272.214 168.661 271.956 169.341 271.89 170.244Z" fill="#E39948"/>
<path d="M281.127 176.732V165.945H283.208L283.502 167.319C283.633 167.155 283.757 167.012 283.875 166.887C283.999 166.756 284.166 166.612 284.376 166.455C284.592 166.292 284.817 166.158 285.053 166.053C285.295 165.948 285.589 165.86 285.936 165.788C286.29 165.716 286.666 165.68 287.065 165.68C287.922 165.68 288.606 165.853 289.116 166.2C289.633 166.547 289.997 166.953 290.206 167.417C290.592 166.861 291.093 166.432 291.708 166.131C292.323 165.83 293.007 165.68 293.759 165.68C294.996 165.68 295.902 166.03 296.478 166.73C297.061 167.43 297.352 168.467 297.352 169.842V176.732H294.77V170.607C294.77 169.554 294.652 168.795 294.417 168.33C294.188 167.859 293.746 167.623 293.092 167.623C292.091 167.623 291.371 168.075 290.932 168.978C290.749 169.377 290.625 169.858 290.559 170.421V176.732H287.988V170.489C287.988 169.528 287.86 168.811 287.605 168.34C287.35 167.869 286.888 167.633 286.221 167.633C285.678 167.633 285.21 167.771 284.817 168.045C284.425 168.32 284.127 168.68 283.924 169.125C283.774 169.786 283.698 170.578 283.698 171.5V176.732H281.127Z" fill="#E39948"/>
<path d="M300.404 181.277C299.986 181.277 299.541 181.251 299.069 181.198L298.942 179.206C299.243 179.238 299.626 179.255 300.09 179.255C300.686 179.255 301.163 179.137 301.523 178.901C301.883 178.666 302.181 178.247 302.417 177.645C302.443 177.58 302.574 177.21 302.809 176.536L298.471 165.945H301.219L304.056 173.768C304.265 172.989 304.733 171.543 305.459 169.429C306.192 167.316 306.595 166.154 306.667 165.945H309.415C306.425 173.85 304.916 177.835 304.89 177.9C304.425 179.111 303.84 179.975 303.133 180.492C302.426 181.015 301.517 181.277 300.404 181.277Z" fill="#E39948"/>
<path d="M79.5349 197.041C78.5337 197.041 77.7223 196.766 77.1006 196.216C76.4855 195.66 76.178 194.861 76.178 193.821C76.178 192.702 76.5444 191.874 77.2773 191.338C78.0102 190.795 79.1161 190.451 80.595 190.307C80.7978 190.281 81.017 190.255 81.2526 190.229C81.4882 190.202 81.7532 190.176 82.0477 190.15C82.3421 190.124 82.5744 190.101 82.7446 190.081V189.512C82.7446 188.858 82.5941 188.383 82.2931 188.089C81.9921 187.788 81.534 187.637 80.9189 187.637C80.042 187.637 78.9591 187.883 77.6699 188.373C77.6634 188.354 77.5554 188.056 77.346 187.48C77.1366 186.904 77.0287 186.61 77.0221 186.597C78.2916 186.054 79.6658 185.782 81.1446 185.782C82.5973 185.782 83.6542 186.099 84.3151 186.734C84.976 187.362 85.3064 188.383 85.3064 189.797V196.834H83.4022C83.3957 196.808 83.3237 196.589 83.1863 196.177C83.0489 195.765 82.9802 195.545 82.9802 195.519C82.4436 196.043 81.9168 196.429 81.3999 196.677C80.8894 196.919 80.2678 197.041 79.5349 197.041ZM80.2318 195.215C80.8273 195.215 81.3442 195.074 81.7827 194.793C82.2276 194.505 82.545 194.158 82.7348 193.752V191.671C82.7151 191.671 82.5417 191.685 82.2145 191.711C81.8939 191.737 81.7205 191.75 81.6943 191.75C80.6539 191.842 79.8915 192.038 79.4073 192.339C78.9231 192.64 78.6809 193.124 78.6809 193.792C78.6809 194.25 78.8151 194.603 79.0834 194.852C79.3517 195.094 79.7345 195.215 80.2318 195.215Z" fill="#E39948"/>
<path d="M87.8977 201.32V186.047H90.1062L90.3811 187.559C90.7344 186.989 91.2023 186.551 91.7847 186.243C92.3736 185.929 93.028 185.772 93.7478 185.772C94.6312 185.772 95.4066 186.018 96.0741 186.508C96.7481 186.999 97.2585 187.67 97.6053 188.521C97.9521 189.365 98.1255 190.32 98.1255 191.387C98.1255 193.055 97.7198 194.417 96.9084 195.47C96.1035 196.517 95.0107 197.041 93.63 197.041C92.9495 197.041 92.3311 196.906 91.7749 196.638C91.2252 196.363 90.7639 195.994 90.3909 195.529C90.4432 196.471 90.4694 197.001 90.4694 197.119V201.193L87.8977 201.32ZM93.0804 195.077C93.846 195.077 94.448 194.757 94.8864 194.116C95.3314 193.474 95.5539 192.558 95.5539 191.367C95.5539 190.157 95.3314 189.247 94.8864 188.638C94.4414 188.03 93.8231 187.726 93.0313 187.726C91.3299 187.726 90.4694 188.884 90.4498 191.2C90.4498 192.535 90.669 193.517 91.1074 194.145C91.5524 194.767 92.21 195.077 93.0804 195.077Z" fill="#E39948"/>
<path d="M100.236 196.834V186.047H102.395L102.729 187.696C103.436 186.564 104.46 185.998 105.801 185.998C106.083 185.998 106.312 186.011 106.488 186.037L106.449 188.187C106.187 188.148 105.916 188.128 105.634 188.128C104.686 188.128 103.976 188.38 103.504 188.884C103.04 189.388 102.808 190.088 102.808 190.984V196.834H100.236Z" fill="#E39948"/>
<path d="M112.662 195.087C113.533 195.087 114.187 194.77 114.625 194.135C115.064 193.5 115.283 192.591 115.283 191.406C115.283 190.209 115.064 189.296 114.625 188.668C114.187 188.04 113.526 187.726 112.643 187.726C111.772 187.726 111.115 188.043 110.67 188.678C110.231 189.306 110.012 190.219 110.012 191.416C110.012 192.594 110.235 193.5 110.68 194.135C111.125 194.77 111.786 195.087 112.662 195.087ZM112.594 197.041C110.997 197.041 109.741 196.524 108.824 195.49C107.908 194.456 107.45 193.095 107.45 191.406C107.45 189.666 107.908 188.295 108.824 187.294C109.741 186.286 111.033 185.782 112.702 185.782C114.311 185.782 115.571 186.296 116.481 187.323C117.397 188.344 117.855 189.705 117.855 191.406C117.855 193.127 117.393 194.498 116.471 195.519C115.548 196.533 114.256 197.041 112.594 197.041Z" fill="#E39948"/>
<path d="M122.821 196.834L118.522 186.047H121.251C121.356 186.342 121.686 187.258 122.242 188.795C122.805 190.327 123.178 191.37 123.361 191.927C123.734 193.013 124.003 193.834 124.166 194.39C124.166 194.384 124.222 194.171 124.333 193.752C124.444 193.334 124.549 192.941 124.647 192.574C124.752 192.201 124.817 191.976 124.843 191.897C124.85 191.884 125.148 190.981 125.737 189.188C126.332 187.395 126.686 186.348 126.797 186.047H129.506L125.423 196.834H122.821Z" fill="#E39948"/>
<path d="M135.758 197.041C134.024 197.041 132.673 196.543 131.705 195.549C130.743 194.547 130.262 193.167 130.262 191.406C130.262 189.692 130.716 188.328 131.626 187.313C132.536 186.299 133.776 185.789 135.346 185.782C136.832 185.782 137.983 186.247 138.801 187.176C139.626 188.105 140.038 189.339 140.038 190.876C140.038 190.988 140.035 191.168 140.028 191.416C140.028 191.665 140.028 191.848 140.028 191.966H132.853C132.879 192.974 133.154 193.756 133.677 194.312C134.207 194.861 134.934 195.136 135.857 195.136C137.034 195.136 138.166 194.829 139.253 194.214L139.616 196.039C138.536 196.707 137.25 197.041 135.758 197.041ZM132.902 190.346H137.613C137.613 189.469 137.414 188.795 137.015 188.324C136.616 187.853 136.063 187.618 135.356 187.618C134.695 187.618 134.136 187.847 133.677 188.305C133.226 188.763 132.967 189.443 132.902 190.346Z" fill="#E39948"/>
<path d="M142.197 196.834V186.047H144.769V196.834H142.197ZM142.197 184.477V182.278H144.779V184.477H142.197Z" fill="#E39948"/>
<path d="M151.768 196.982C151.035 196.982 150.423 196.897 149.932 196.726C149.448 196.55 149.068 196.275 148.793 195.902C148.519 195.529 148.322 195.091 148.204 194.587C148.093 194.076 148.038 193.448 148.038 192.702V187.608H146.271L146.369 186.214L148.214 186.047L149.039 183.122L150.609 183.112V186.047H153.289V187.608H150.609V192.751C150.609 193.569 150.727 194.152 150.963 194.498C151.198 194.845 151.633 195.019 152.268 195.019C152.641 195.019 153.04 194.986 153.466 194.92L153.534 196.766C153.521 196.766 153.439 196.782 153.289 196.815C153.145 196.841 153.004 196.864 152.867 196.884C152.736 196.91 152.566 196.933 152.356 196.952C152.147 196.972 151.951 196.982 151.768 196.982Z" fill="#E39948"/>
<path d="M160.238 197.041C158.504 197.041 157.153 196.543 156.185 195.549C155.223 194.547 154.742 193.167 154.742 191.406C154.742 189.692 155.196 188.328 156.106 187.313C157.016 186.299 158.256 185.789 159.826 185.782C161.311 185.782 162.463 186.247 163.281 187.176C164.106 188.105 164.518 189.339 164.518 190.876C164.518 190.988 164.515 191.168 164.508 191.416C164.508 191.665 164.508 191.848 164.508 191.966H157.333C157.359 192.974 157.634 193.756 158.157 194.312C158.687 194.861 159.414 195.136 160.336 195.136C161.514 195.136 162.646 194.829 163.733 194.214L164.096 196.039C163.016 196.707 161.73 197.041 160.238 197.041ZM157.382 190.346H162.093C162.093 189.469 161.894 188.795 161.495 188.324C161.096 187.853 160.543 187.618 159.836 187.618C159.175 187.618 158.615 187.847 158.157 188.305C157.706 188.763 157.447 189.443 157.382 190.346Z" fill="#E39948"/>
<path d="M176.64 195.087C177.51 195.087 178.165 194.77 178.603 194.135C179.042 193.5 179.261 192.591 179.261 191.406C179.261 190.209 179.042 189.296 178.603 188.668C178.165 188.04 177.504 187.726 176.62 187.726C175.75 187.726 175.093 188.043 174.648 188.678C174.209 189.306 173.99 190.219 173.99 191.416C173.99 192.594 174.212 193.5 174.657 194.135C175.102 194.77 175.763 195.087 176.64 195.087ZM176.571 197.041C174.975 197.041 173.718 196.524 172.802 195.49C171.886 194.456 171.428 193.095 171.428 191.406C171.428 189.666 171.886 188.295 172.802 187.294C173.718 186.286 175.011 185.782 176.679 185.782C178.289 185.782 179.549 186.296 180.458 187.323C181.374 188.344 181.833 189.705 181.833 191.406C181.833 193.127 181.371 194.498 180.449 195.519C179.526 196.533 178.234 197.041 176.571 197.041Z" fill="#E39948"/>
<path d="M193.268 197.041C191.861 197.041 190.755 196.524 189.95 195.49C189.145 194.456 188.743 193.075 188.743 191.348C188.743 189.672 189.142 188.328 189.94 187.313C190.745 186.293 191.851 185.782 193.258 185.782C194.789 185.782 195.872 186.325 196.507 187.411C196.441 186.77 196.409 186.152 196.409 185.556V182.072L198.98 181.905V196.834H196.752L196.468 195.362C196.356 195.539 196.252 195.693 196.153 195.823C196.062 195.948 195.924 196.095 195.741 196.265C195.558 196.429 195.358 196.563 195.142 196.668C194.933 196.766 194.665 196.851 194.338 196.923C194.017 197.001 193.66 197.041 193.268 197.041ZM193.876 195.087C195.604 195.087 196.481 193.913 196.507 191.563C196.507 190.235 196.284 189.267 195.839 188.658C195.394 188.05 194.73 187.745 193.847 187.745C193.075 187.745 192.456 188.056 191.992 188.678C191.534 189.293 191.305 190.202 191.305 191.406C191.305 192.604 191.534 193.517 191.992 194.145C192.456 194.773 193.084 195.087 193.876 195.087Z" fill="#E39948"/>
<path d="M206.587 197.041C204.853 197.041 203.502 196.543 202.534 195.549C201.572 194.547 201.091 193.167 201.091 191.406C201.091 189.692 201.545 188.328 202.455 187.313C203.365 186.299 204.605 185.789 206.175 185.782C207.661 185.782 208.812 186.247 209.63 187.176C210.455 188.105 210.867 189.339 210.867 190.876C210.867 190.988 210.864 191.168 210.857 191.416C210.857 191.665 210.857 191.848 210.857 191.966H203.682C203.708 192.974 203.983 193.756 204.506 194.312C205.036 194.861 205.763 195.136 206.686 195.136C207.863 195.136 208.995 194.829 210.082 194.214L210.445 196.039C209.365 196.707 208.079 197.041 206.587 197.041ZM203.731 190.346H208.442C208.442 189.469 208.243 188.795 207.844 188.324C207.445 187.853 206.892 187.618 206.185 187.618C205.524 187.618 204.965 187.847 204.506 188.305C204.055 188.763 203.796 189.443 203.731 190.346Z" fill="#E39948"/>
<path d="M216.413 197.031C214.823 197.031 213.55 196.759 212.594 196.216L212.859 194.282C213.291 194.518 213.841 194.731 214.508 194.92C215.176 195.104 215.785 195.195 216.334 195.195C216.903 195.195 217.345 195.091 217.659 194.881C217.98 194.665 218.144 194.351 218.15 193.939C218.15 193.566 218 193.271 217.699 193.055C217.404 192.839 216.838 192.571 216 192.251C215.713 192.146 215.526 192.077 215.441 192.044C214.446 191.658 213.73 191.23 213.291 190.759C212.853 190.281 212.634 189.636 212.634 188.825C212.634 187.843 212.987 187.091 213.694 186.567C214.407 186.044 215.398 185.782 216.668 185.782C218.042 185.782 219.249 186.041 220.29 186.558L219.652 188.334C218.624 187.856 217.646 187.618 216.717 187.618C216.2 187.618 215.794 187.706 215.5 187.883C215.212 188.053 215.068 188.315 215.068 188.668C215.068 189.002 215.209 189.263 215.49 189.453C215.771 189.636 216.321 189.878 217.139 190.179C217.165 190.186 217.25 190.215 217.394 190.268C217.538 190.32 217.649 190.363 217.728 190.395C218.716 190.755 219.442 191.187 219.907 191.691C220.372 192.188 220.604 192.839 220.604 193.644C220.597 194.724 220.231 195.558 219.505 196.147C218.778 196.736 217.748 197.031 216.413 197.031Z" fill="#E39948"/>
<path d="M227.367 197.041C225.718 197.041 224.432 196.55 223.509 195.568C222.593 194.587 222.135 193.183 222.135 191.357C222.135 189.591 222.616 188.22 223.578 187.245C224.547 186.27 225.819 185.782 227.396 185.782C228.659 185.782 229.726 186.054 230.596 186.597L229.988 188.432C229.098 187.968 228.27 187.735 227.504 187.735C226.634 187.735 225.947 188.046 225.443 188.668C224.946 189.29 224.697 190.196 224.697 191.387C224.697 192.591 224.942 193.507 225.433 194.135C225.931 194.763 226.631 195.077 227.534 195.077C228.476 195.077 229.382 194.799 230.253 194.243L230.498 196.196C230.047 196.497 229.579 196.713 229.094 196.844C228.61 196.975 228.034 197.041 227.367 197.041Z" fill="#E39948"/>
<path d="M237.163 195.087C238.033 195.087 238.687 194.77 239.126 194.135C239.564 193.5 239.784 192.591 239.784 191.406C239.784 190.209 239.564 189.296 239.126 188.668C238.687 188.04 238.027 187.726 237.143 187.726C236.273 187.726 235.615 188.043 235.17 188.678C234.732 189.306 234.513 190.219 234.513 191.416C234.513 192.594 234.735 193.5 235.18 194.135C235.625 194.77 236.286 195.087 237.163 195.087ZM237.094 197.041C235.497 197.041 234.241 196.524 233.325 195.49C232.409 194.456 231.951 193.095 231.951 191.406C231.951 189.666 232.409 188.295 233.325 187.294C234.241 186.286 235.533 185.782 237.202 185.782C238.812 185.782 240.071 186.296 240.981 187.323C241.897 188.344 242.355 189.705 242.355 191.406C242.355 193.127 241.894 194.498 240.971 195.519C240.049 196.533 238.756 197.041 237.094 197.041Z" fill="#E39948"/>
<path d="M244.456 196.834V186.047H246.527L246.811 187.411C247.911 186.325 249.131 185.782 250.473 185.782C251.729 185.782 252.668 186.145 253.29 186.872C253.918 187.591 254.232 188.638 254.232 190.013V196.834H251.651V190.327C251.644 189.456 251.503 188.805 251.228 188.373C250.954 187.942 250.46 187.726 249.746 187.726C249.19 187.726 248.68 187.87 248.215 188.157C247.757 188.439 247.423 188.795 247.214 189.227C247.09 189.738 247.027 190.523 247.027 191.583V196.834H244.456Z" fill="#E39948"/>
<path d="M261.073 196.982C260.341 196.982 259.729 196.897 259.238 196.726C258.754 196.55 258.374 196.275 258.099 195.902C257.825 195.529 257.628 195.091 257.51 194.587C257.399 194.076 257.344 193.448 257.344 192.702V187.608H255.577L255.675 186.214L257.52 186.047L258.345 183.122L259.915 183.112V186.047H262.595V187.608H259.915V192.751C259.915 193.569 260.033 194.152 260.269 194.498C260.504 194.845 260.939 195.019 261.574 195.019C261.947 195.019 262.346 194.986 262.772 194.92L262.84 196.766C262.827 196.766 262.745 196.782 262.595 196.815C262.451 196.841 262.31 196.864 262.173 196.884C262.042 196.91 261.872 196.933 261.662 196.952C261.453 196.972 261.257 196.982 261.073 196.982Z" fill="#E39948"/>
<path d="M269.26 195.087C270.13 195.087 270.784 194.77 271.223 194.135C271.661 193.5 271.88 192.591 271.88 191.406C271.88 190.209 271.661 189.296 271.223 188.668C270.784 188.04 270.123 187.726 269.24 187.726C268.37 187.726 267.712 188.043 267.267 188.678C266.829 189.306 266.609 190.219 266.609 191.416C266.609 192.594 266.832 193.5 267.277 194.135C267.722 194.77 268.383 195.087 269.26 195.087ZM269.191 197.041C267.594 197.041 266.338 196.524 265.422 195.49C264.506 194.456 264.048 193.095 264.048 191.406C264.048 189.666 264.506 188.295 265.422 187.294C266.338 186.286 267.63 185.782 269.299 185.782C270.909 185.782 272.168 186.296 273.078 187.323C273.994 188.344 274.452 189.705 274.452 191.406C274.452 193.127 273.991 194.498 273.068 195.519C272.145 196.533 270.853 197.041 269.191 197.041Z" fill="#E39948"/>
<path d="M285.887 197.041C284.48 197.041 283.374 196.524 282.57 195.49C281.765 194.456 281.362 193.075 281.362 191.348C281.362 189.672 281.761 188.328 282.56 187.313C283.365 186.293 284.47 185.782 285.877 185.782C287.409 185.782 288.492 186.325 289.126 187.411C289.061 186.77 289.028 186.152 289.028 185.556V182.072L291.6 181.905V196.834H289.372L289.087 195.362C288.976 195.539 288.871 195.693 288.773 195.823C288.681 195.948 288.544 196.095 288.361 196.265C288.177 196.429 287.978 196.563 287.762 196.668C287.553 196.766 287.284 196.851 286.957 196.923C286.636 197.001 286.28 197.041 285.887 197.041ZM286.496 195.087C288.223 195.087 289.1 193.913 289.126 191.563C289.126 190.235 288.904 189.267 288.459 188.658C288.014 188.05 287.35 187.745 286.466 187.745C285.694 187.745 285.076 188.056 284.611 188.678C284.153 189.293 283.924 190.202 283.924 191.406C283.924 192.604 284.153 193.517 284.611 194.145C285.076 194.773 285.704 195.087 286.496 195.087Z" fill="#E39948"/>
<path d="M299.207 197.041C297.473 197.041 296.122 196.543 295.153 195.549C294.191 194.547 293.71 193.167 293.71 191.406C293.71 189.692 294.165 188.328 295.075 187.313C295.984 186.299 297.224 185.789 298.795 185.782C300.28 185.782 301.432 186.247 302.25 187.176C303.074 188.105 303.486 189.339 303.486 190.876C303.486 190.988 303.483 191.168 303.477 191.416C303.477 191.665 303.477 191.848 303.477 191.966H296.301C296.328 192.974 296.602 193.756 297.126 194.312C297.656 194.861 298.382 195.136 299.305 195.136C300.483 195.136 301.615 194.829 302.701 194.214L303.064 196.039C301.985 196.707 300.699 197.041 299.207 197.041ZM296.351 190.346H301.062C301.062 189.469 300.862 188.795 300.463 188.324C300.064 187.853 299.511 187.618 298.804 187.618C298.144 187.618 297.584 187.847 297.126 188.305C296.674 188.763 296.416 189.443 296.351 190.346Z" fill="#E39948"/>
<path d="M43.4009 88.4925C43.4385 89.4327 42.7616 90.2225 41.859 90.2977L1.84428 92.2533C0.941689 92.2909 0.189533 91.5764 0.114317 90.6362L0.00149355 88.0413C-0.0361143 87.1011 0.640826 86.3113 1.54341 86.2361L41.5581 84.2805C42.4607 84.2429 43.2129 84.9574 43.2881 85.8976L43.4009 88.4925Z" fill="#E39948"/>
<path d="M76.5333 0.00141863C77.4359 -0.0361892 78.1881 0.678359 78.2633 1.61855L80.2941 43.5137C80.3317 44.4539 79.6548 45.2436 78.7522 45.3188L76.3077 45.4317C75.4051 45.4693 74.6529 44.7547 74.5777 43.8145L72.5469 1.91942C72.5093 0.979222 73.1862 0.189458 74.0888 0.114242L76.5333 0.00141863Z" fill="#E39948"/>
<path d="M16.2478 23.3183C16.9623 22.4909 18.1281 22.3781 18.8427 23.0551L50.0572 53.1789C50.7717 53.8558 50.7341 55.0593 50.0196 55.8867L48.064 58.1055C47.3494 58.9329 46.1836 59.0457 45.469 58.3688L14.2545 28.2449C13.54 27.568 13.5776 26.3645 14.2921 25.5372L16.2478 23.3183Z" fill="#E39948"/>
<path fill-rule="evenodd" clip-rule="evenodd" d="M47.7568 187.046C47.7566 187.044 47.7565 187.042 50.2559 186.783C52.7553 186.524 52.7551 186.523 52.755 186.522L52.7548 186.52L52.7559 186.53C52.7572 186.542 52.7597 186.563 52.7635 186.594C52.7711 186.655 52.784 186.754 52.8034 186.888C52.8422 187.156 52.907 187.563 53.0082 188.09C53.2106 189.145 53.5573 190.675 54.129 192.526C55.2741 196.234 57.31 201.189 60.8644 206.177C67.8963 216.044 81.0648 226.325 105.922 226.988H257.141V232.013H105.856L105.823 232.012C79.3569 231.316 64.7172 220.243 56.7718 209.093C52.8361 203.571 50.5908 198.1 49.3273 194.009C48.6947 191.961 48.3053 190.249 48.0726 189.037C47.9562 188.43 47.8788 187.947 47.8297 187.608C47.8052 187.439 47.7877 187.305 47.7759 187.21C47.7701 187.163 47.7656 187.125 47.7624 187.097L47.7586 187.062L47.7573 187.05L47.7568 187.046ZM52.7548 186.52C52.7547 186.519 52.7548 186.52 52.7548 186.52Z" fill="white"/>
<path fill-rule="evenodd" clip-rule="evenodd" d="M279.798 20.1023L279.832 20.1032C305.634 20.7632 321.557 31.5976 330.997 42.38C335.693 47.7438 338.76 53.0642 340.657 57.0516C341.607 59.0472 342.266 60.7151 342.691 61.8966C342.904 62.4876 343.059 62.9575 343.162 63.2868C343.213 63.4514 343.252 63.5809 343.279 63.6728C343.293 63.7188 343.303 63.7554 343.311 63.7823L343.32 63.8153L343.323 63.8263L343.324 63.8304C343.324 63.832 343.325 63.8335 340.901 64.4948C338.476 65.156 338.477 65.1572 338.477 65.1583L338.474 65.1484C338.471 65.1363 338.465 65.1146 338.456 65.0837C338.438 65.0219 338.408 64.9233 338.366 64.7903C338.283 64.5242 338.151 64.1206 337.963 63.599C337.587 62.5552 336.99 61.0413 336.119 59.2107C334.375 55.5457 331.546 50.6363 327.216 45.6903C318.607 35.8575 303.974 25.7569 279.737 25.1279L132.343 25.3162L132.337 20.2906L279.798 20.1023Z" fill="white"/>
<path d="M447.275 239.862C447.275 250.313 438.812 258.816 428.327 258.816H343.097C332.649 258.816 324.149 250.351 324.149 239.862V154.644C324.149 144.193 332.612 135.69 343.097 135.69H428.289C438.737 135.69 447.237 144.156 447.237 154.644V239.862H447.275Z" fill="#112B3E"/>
<path fill-rule="evenodd" clip-rule="evenodd" d="M351.915 148.254C343.99 148.254 337.55 154.668 337.55 162.619V246.127C337.55 254.051 343.964 260.492 351.915 260.492H435.423C442.997 260.492 449.214 254.633 449.75 247.174V162.619C449.75 154.694 443.337 148.254 435.385 148.254H351.915ZM458.126 241.939V162.619C458.126 150.079 447.973 139.878 435.385 139.878H351.915C339.376 139.878 329.174 150.031 329.174 162.619V246.127C329.174 258.666 339.327 268.868 351.915 268.868H435.423C447.962 268.868 458.164 258.715 458.164 246.127V241.939H458.126Z" fill="#E39948"/>
<path d="M475.308 249.912C475.271 249.123 475.835 248.483 476.587 248.446L509.532 247.092C510.284 247.054 510.885 247.656 510.923 248.446L510.998 250.552C511.036 251.341 510.472 251.981 509.72 252.018L476.775 253.372C476.023 253.41 475.421 252.808 475.384 252.018L475.308 249.912Z" fill="#E39948"/>
<path d="M445.072 320.653C444.32 320.69 443.718 320.089 443.681 319.299L442.252 284.775C442.214 283.985 442.778 283.346 443.53 283.308L445.561 283.233C446.313 283.195 446.915 283.797 446.953 284.587L448.382 319.111C448.419 319.9 447.855 320.54 447.103 320.577L445.072 320.653Z" fill="#E39948"/>
<path d="M492.646 303.466C492.044 304.143 491.104 304.218 490.54 303.654L465.042 278.645C464.477 278.081 464.477 277.065 465.079 276.426L466.696 274.621C467.298 273.944 468.238 273.869 468.802 274.433L494.3 299.442C494.865 300.006 494.865 301.021 494.263 301.661L492.646 303.466Z" fill="#E39948"/>
<path d="M370.062 208.567C380.314 208.567 387.491 202.959 387.491 193.551V193.43C387.491 184.264 380.616 180.042 373.017 180.042C370.183 180.042 368.193 180.645 366.263 181.55L366.625 175.157H385.621V165.508H357.398L356.192 186.917L363.127 190.777C365.117 189.571 367.288 188.666 369.881 188.666C373.56 188.666 376.093 190.536 376.093 193.551V193.672C376.093 196.687 373.741 198.617 369.881 198.617C366.323 198.617 363.067 196.928 359.629 194.033L352.935 201.873C357.337 205.974 362.584 208.567 370.062 208.567Z" fill="#E39948"/>
<path d="M411.727 208.567C423.788 208.567 431.327 198.556 431.327 186.616V186.495C431.327 174.554 423.849 164.664 411.848 164.664C399.847 164.664 392.248 174.675 392.248 186.616V186.736C392.248 198.677 399.666 208.567 411.727 208.567ZM411.848 198.195C407.144 198.195 404.008 193.37 404.008 186.616V186.495C404.008 179.741 407.083 175.037 411.727 175.037C416.371 175.037 419.567 179.922 419.567 186.616V186.736C419.567 193.43 416.552 198.195 411.848 198.195Z" fill="#E39948"/>
<path d="M353.454 221.847C353.454 220.867 353.596 220.028 353.879 219.331C354.162 218.634 354.554 218.057 355.055 217.6C355.556 217.143 356.155 216.816 356.851 216.62C357.57 216.402 358.343 216.293 359.171 216.293C359.998 216.293 360.76 216.391 361.457 216.587C362.154 216.783 362.753 217.099 363.254 217.535C363.777 217.97 364.179 218.547 364.463 219.266C364.746 219.963 364.898 220.823 364.92 221.847C364.898 222.87 364.746 223.741 364.463 224.46C364.179 225.157 363.777 225.723 363.254 226.159C362.753 226.594 362.154 226.91 361.457 227.106C360.76 227.302 359.998 227.4 359.171 227.4C358.343 227.4 357.57 227.302 356.851 227.106C356.155 226.91 355.556 226.594 355.055 226.159C354.554 225.723 354.162 225.157 353.879 224.46C353.596 223.741 353.454 222.87 353.454 221.847ZM357.243 221.847C357.243 223.719 357.886 224.656 359.171 224.656C359.846 224.656 360.325 224.46 360.608 224.068C360.913 223.654 361.076 222.914 361.098 221.847C361.076 220.801 360.913 220.072 360.608 219.658C360.325 219.244 359.846 219.037 359.171 219.037C358.496 219.037 358.006 219.244 357.701 219.658C357.396 220.072 357.243 220.801 357.243 221.847ZM366.717 233.933C366.717 232.953 366.858 232.115 367.141 231.418C367.424 230.721 367.816 230.144 368.317 229.686C368.818 229.229 369.417 228.902 370.114 228.706C370.832 228.489 371.606 228.38 372.433 228.38C373.261 228.38 374.023 228.478 374.72 228.674C375.417 228.87 376.016 229.186 376.516 229.621C377.039 230.057 377.442 230.634 377.725 231.352C378.008 232.049 378.161 232.91 378.182 233.933C378.161 234.957 378.008 235.828 377.725 236.546C377.442 237.243 377.039 237.809 376.516 238.245C376.016 238.681 375.417 238.996 374.72 239.192C374.023 239.388 373.261 239.486 372.433 239.486C371.606 239.486 370.832 239.388 370.114 239.192C369.417 238.996 368.818 238.681 368.317 238.245C367.816 237.809 367.424 237.243 367.141 236.546C366.858 235.828 366.717 234.957 366.717 233.933ZM370.506 233.933C370.506 235.806 371.148 236.742 372.433 236.742C373.108 236.742 373.587 236.546 373.87 236.154C374.175 235.741 374.339 235 374.36 233.933C374.339 232.888 374.175 232.158 373.87 231.744C373.587 231.331 373.108 231.124 372.433 231.124C371.758 231.124 371.268 231.331 370.963 231.744C370.658 232.158 370.506 232.888 370.506 233.933ZM373.903 216.228L376.288 218.384L357.472 240.009L355.087 237.755L373.903 216.228Z" fill="#E39948"/>
<path d="M380.464 228.119C380.464 224.307 381.302 221.378 382.979 219.331C384.656 217.262 387.052 216.228 390.166 216.228C391.799 216.228 393.225 216.511 394.445 217.077C395.665 217.644 396.677 218.449 397.483 219.495C398.289 220.54 398.888 221.792 399.28 223.251C399.672 224.71 399.868 226.333 399.868 228.119C399.868 231.93 399.018 234.87 397.32 236.938C395.643 238.985 393.258 240.009 390.166 240.009C388.511 240.009 387.073 239.726 385.854 239.16C384.634 238.593 383.622 237.788 382.816 236.742C382.032 235.697 381.444 234.445 381.052 232.986C380.66 231.527 380.464 229.904 380.464 228.119ZM385.168 228.119C385.168 229.273 385.266 230.34 385.462 231.32C385.658 232.278 385.952 233.106 386.344 233.802C386.758 234.499 387.28 235.044 387.912 235.436C388.543 235.828 389.295 236.024 390.166 236.024C391.755 236.024 392.986 235.403 393.857 234.162C394.728 232.92 395.164 230.906 395.164 228.119C395.164 227.008 395.066 225.973 394.87 225.015C394.695 224.057 394.412 223.219 394.02 222.5C393.628 221.781 393.117 221.226 392.485 220.834C391.853 220.42 391.08 220.213 390.166 220.213C388.576 220.213 387.346 220.856 386.474 222.141C385.603 223.404 385.168 225.396 385.168 228.119Z" fill="#E39948"/>
<path d="M403.066 216.685H416.623V220.671H407.542V226.322H415.904V230.307H407.542V239.552H403.066V216.685Z" fill="#E39948"/>
<path d="M419.655 216.685H433.211V220.671H424.13V226.322H432.492V230.307H424.13V239.552H419.655V216.685Z" fill="#E39948"/>
</svg>
