<svg width="527" height="330" viewBox="0 0 527 330" fill="none" xmlns="http://www.w3.org/2000/svg">
<path d="M71.6831 108.344H94.0796C104.44 108.344 110.52 103.836 110.52 96.427V96.3035C110.52 90.4376 107.17 87.4738 101.897 85.7449C105.743 84.0778 108.597 81.114 108.597 76.1125V75.989C108.597 73.0252 107.542 70.7406 105.805 69.0118C103.262 66.4802 99.415 65.1218 93.9555 65.1218H71.6831V108.344ZM83.4087 82.3489V74.7541H91.2257C94.8241 74.7541 96.6853 76.1125 96.6853 78.4589V78.5824C96.6853 81.114 94.638 82.3489 90.9776 82.3489H83.4087ZM83.4087 98.7116V90.7463H92.5906C96.6232 90.7463 98.4844 92.29 98.4844 94.6363V94.7598C98.4844 97.2914 96.3751 98.7116 92.7147 98.7116H83.4087Z" fill="white"/>
<path d="M116.032 108.344H149.1V97.8471H128.068V65.1218H116.032V108.344Z" fill="white"/>
<path d="M150.788 108.344H163.444L166.546 100.626H183.297L186.461 108.344H199.365L180.877 64.813H169.276L150.788 108.344ZM170.082 91.302L174.983 79.0146L179.822 91.302H170.082Z" fill="white"/>
<path d="M221.7 109.208C231.316 109.208 236.837 105.071 240.932 99.4525L231.874 93.0309C229.268 96.18 226.601 98.2793 222.072 98.2793C215.992 98.2793 211.711 93.2162 211.711 86.7328V86.6094C211.711 80.3113 215.992 75.1864 222.072 75.1864C226.228 75.1864 229.082 77.1622 231.564 80.2495L240.622 73.2722C236.775 67.9621 231.068 64.2573 222.196 64.2573C209.043 64.2573 199.303 74.1367 199.303 86.7328V86.8563C199.303 99.7612 209.292 109.208 221.7 109.208Z" fill="white"/>
<path d="M246.11 108.344H258.146V97.1679L262.551 92.29L273.47 108.344H287.925L270.926 83.7073L287.367 65.1218H273.098L258.146 82.6576V65.1218H246.11V108.344Z" fill="white"/>
<path d="M71.6831 154.653H83.7189V139.217H104.254V129.276H83.7189V121.928H106.426V111.431H71.6831V154.653Z" fill="white"/>
<path d="M111.912 154.653H123.948V141.563H129.097H129.221L137.969 154.653H151.866L141.505 139.587C146.903 137.303 150.439 132.919 150.439 126.312V126.188C150.439 121.928 149.136 118.594 146.593 116.124C143.677 113.16 139.086 111.431 132.448 111.431H111.912V154.653ZM123.948 132.178V121.805H131.827C135.86 121.805 138.341 123.533 138.341 126.929V127.053C138.341 130.202 135.984 132.178 131.889 132.178H123.948Z" fill="white"/>
<path d="M156.752 154.653H168.85V111.431H156.752V154.653Z" fill="white"/>
<path d="M176.8 154.653H193.303C208.937 154.653 218.057 145.391 218.057 132.919V132.795C218.057 120.323 209.061 111.431 193.551 111.431H176.8V154.653ZM188.836 144.033V122.052H193.737C200.934 122.052 205.711 126.065 205.711 132.981V133.104C205.711 140.081 200.934 144.033 193.737 144.033H188.836Z" fill="white"/>
<path d="M217.675 154.653H230.331L233.433 146.935H250.184L253.348 154.653H266.252L247.764 111.122H236.163L217.675 154.653ZM236.969 137.611L241.87 125.324L246.709 137.611H236.969Z" fill="white"/>
<path d="M276.152 154.653H288.25V138.291L304.752 111.431H291.29L282.294 127.176L273.36 111.431H259.649L276.152 138.476V154.653Z" fill="white"/>
<path d="M44.6519 91.1563C44.6906 92.055 43.9942 92.8099 43.0656 92.8818L1.89744 94.7511C0.968833 94.7871 0.194996 94.1041 0.117612 93.2053L0.0015366 90.7249C-0.0371552 89.8262 0.659298 89.0713 1.5879 88.9994L42.756 87.1301C43.6846 87.0941 44.4585 87.7771 44.5359 88.6759L44.6519 91.1563Z" fill="#E39948"/>
<path d="M79.0713 0.0014623C79.9592 -0.0373032 80.6991 0.699242 80.773 1.66838L82.7707 44.8532C82.8077 45.8223 82.1418 46.6364 81.254 46.7139L78.8493 46.8302C77.9615 46.869 77.2216 46.1324 77.1476 45.1633L75.1499 1.9785C75.1129 1.00937 75.7788 0.19529 76.6667 0.117759L79.0713 0.0014623Z" fill="#E39948"/>
<path d="M16.7562 23.6132C17.4956 22.7419 18.702 22.6231 19.4414 23.336L51.7415 55.0598C52.4809 55.7727 52.442 57.0401 51.7026 57.9114L49.679 60.2481C48.9396 61.1194 47.7332 61.2383 46.9938 60.5254L14.6937 28.8015C13.9543 28.0886 13.9932 26.8213 14.7326 25.95L16.7562 23.6132Z" fill="#E39948"/>
<path fill-rule="evenodd" clip-rule="evenodd" d="M49.0098 192.225C49.0096 192.223 49.0094 192.221 51.5835 191.955C54.1576 191.688 54.1575 191.687 54.1573 191.685L54.1572 191.684L54.1583 191.694C54.1597 191.706 54.1622 191.728 54.1661 191.759C54.1739 191.823 54.1872 191.924 54.2072 192.062C54.2471 192.338 54.3139 192.757 54.4181 193.3C54.6265 194.385 54.9837 195.961 55.5724 197.867C56.7518 201.683 58.8484 206.784 62.5092 211.919C69.7512 222.076 83.3134 232.659 108.914 233.341H264.653V238.515H108.846L108.812 238.514C81.5544 237.797 66.4771 226.398 58.2942 214.921C54.2408 209.236 51.9284 203.604 50.6272 199.393C49.9757 197.285 49.5747 195.523 49.335 194.274C49.2151 193.65 49.1354 193.153 49.0849 192.804C49.0596 192.63 49.0415 192.492 49.0294 192.394C49.0234 192.345 49.0188 192.306 49.0155 192.277L49.0115 192.241L49.0102 192.229L49.0098 192.225ZM54.1572 191.684C54.1571 191.683 54.1571 191.683 54.1572 191.684Z" fill="white"/>
<path fill-rule="evenodd" clip-rule="evenodd" d="M287.616 20.6931L287.65 20.694C314.155 21.38 330.512 32.6414 340.209 43.8487C345.032 49.4239 348.183 54.9541 350.132 59.0986C351.107 61.1728 351.784 62.9065 352.221 64.1345C352.44 64.7488 352.599 65.2373 352.705 65.5795C352.758 65.7506 352.798 65.8852 352.825 65.9808C352.839 66.0286 352.85 66.0666 352.858 66.0945L352.867 66.1288L352.87 66.1403L352.871 66.1445C352.872 66.1462 352.872 66.1478 350.382 66.8351C347.892 67.5224 347.892 67.5237 347.892 67.5247L347.89 67.5145C347.886 67.5019 347.88 67.4794 347.87 67.4473C347.852 67.383 347.822 67.2805 347.779 67.1423C347.693 66.8657 347.557 66.4462 347.364 65.904C346.978 64.8191 346.365 63.2455 345.47 61.3428C343.679 57.5334 340.772 52.4305 336.324 47.2895C327.482 37.0692 312.45 26.5705 287.553 25.9168L136.145 26.1124L136.139 20.8888L287.616 20.6931Z" fill="white"/>
<path d="M460.693 247.216C460.693 258.032 451.935 266.832 441.083 266.832H352.877C342.065 266.832 333.268 258.07 333.268 247.216V159.022C333.268 148.206 342.026 139.406 352.877 139.406H441.045C451.857 139.406 460.655 148.167 460.655 159.022V247.216H460.693Z" fill="#112B3E"/>
<path fill-rule="evenodd" clip-rule="evenodd" d="M362.138 152.39C353.975 152.39 347.341 158.997 347.341 167.188V253.208C347.341 261.372 353.948 268.006 362.138 268.006H448.159C455.961 268.006 462.366 261.971 462.918 254.287V167.188C462.918 159.024 456.311 152.39 448.12 152.39H362.138ZM471.546 248.894V167.188C471.546 154.271 461.087 143.762 448.12 143.762H362.138C349.221 143.762 338.713 154.221 338.713 167.188V253.208C338.713 266.125 349.171 276.634 362.138 276.634H448.159C461.076 276.634 471.584 266.175 471.584 253.208V248.894H471.546Z" fill="#E39948"/>
<path d="M489.012 256.697C488.973 255.876 489.558 255.211 490.338 255.172L524.516 253.764C525.296 253.725 525.921 254.351 525.96 255.172L526.038 257.362C526.077 258.183 525.491 258.848 524.711 258.887L490.533 260.295C489.753 260.334 489.129 259.709 489.09 258.887L489.012 256.697Z" fill="#E39948"/>
<path d="M458.254 329.998C457.453 330.037 456.812 329.424 456.772 328.619L455.249 293.454C455.209 292.649 455.81 291.998 456.612 291.96L458.775 291.883C459.577 291.845 460.218 292.458 460.258 293.262L461.78 328.428C461.82 329.232 461.219 329.883 460.418 329.922L458.254 329.998Z" fill="#E39948"/>
<path d="M506.513 312C505.903 312.689 504.951 312.765 504.379 312.191L478.543 286.748C477.971 286.174 477.971 285.141 478.581 284.49L480.219 282.654C480.829 281.965 481.782 281.888 482.353 282.462L508.19 307.906C508.761 308.48 508.761 309.513 508.152 310.163L506.513 312Z" fill="#E39948"/>
<path d="M363.762 228.097C363.762 227.064 363.907 226.181 364.197 225.447C364.487 224.713 364.889 224.105 365.402 223.623C365.914 223.142 366.528 222.798 367.242 222.591C367.978 222.362 368.769 222.247 369.617 222.247C370.464 222.247 371.245 222.35 371.959 222.557C372.672 222.763 373.286 223.096 373.799 223.555C374.334 224.013 374.747 224.621 375.037 225.378C375.327 226.112 375.483 227.018 375.505 228.097C375.483 229.175 375.327 230.092 375.037 230.849C374.747 231.583 374.334 232.18 373.799 232.638C373.286 233.097 372.672 233.43 371.959 233.636C371.245 233.843 370.464 233.946 369.617 233.946C368.769 233.946 367.978 233.843 367.242 233.636C366.528 233.43 365.914 233.097 365.402 232.638C364.889 232.18 364.487 231.583 364.197 230.849C363.907 230.092 363.762 229.175 363.762 228.097ZM367.643 228.097C367.643 230.069 368.301 231.056 369.617 231.056C370.308 231.056 370.799 230.849 371.089 230.436C371.401 230 371.568 229.221 371.591 228.097C371.568 226.995 371.401 226.227 371.089 225.791C370.799 225.355 370.308 225.137 369.617 225.137C368.925 225.137 368.424 225.355 368.111 225.791C367.799 226.227 367.643 226.995 367.643 228.097ZM377.345 240.828C377.345 239.795 377.49 238.912 377.78 238.178C378.07 237.444 378.471 236.836 378.984 236.355C379.497 235.873 380.111 235.529 380.824 235.322C381.56 235.093 382.352 234.978 383.2 234.978C384.047 234.978 384.828 235.081 385.541 235.288C386.255 235.494 386.869 235.827 387.381 236.286C387.917 236.745 388.329 237.352 388.619 238.109C388.909 238.843 389.065 239.75 389.088 240.828C389.065 241.906 388.909 242.823 388.619 243.58C388.329 244.314 387.917 244.911 387.381 245.37C386.869 245.828 386.255 246.161 385.541 246.368C384.828 246.574 384.047 246.677 383.2 246.677C382.352 246.677 381.56 246.574 380.824 246.368C380.111 246.161 379.497 245.828 378.984 245.37C378.471 244.911 378.07 244.314 377.78 243.58C377.49 242.823 377.345 241.906 377.345 240.828ZM381.226 240.828C381.226 242.8 381.884 243.787 383.2 243.787C383.891 243.787 384.382 243.58 384.672 243.168C384.984 242.732 385.151 241.952 385.173 240.828C385.151 239.727 384.984 238.958 384.672 238.522C384.382 238.086 383.891 237.869 383.2 237.869C382.508 237.869 382.006 238.086 381.694 238.522C381.382 238.958 381.226 239.727 381.226 240.828ZM384.705 222.178L387.147 224.449L367.877 247.228L365.435 244.854L384.705 222.178Z" fill="#E39948"/>
<path d="M391.424 234.703C391.424 230.689 392.283 227.603 394 225.447C395.718 223.268 398.171 222.178 401.36 222.178C403.033 222.178 404.494 222.476 405.743 223.073C406.992 223.669 408.029 224.518 408.854 225.619C409.68 226.72 410.293 228.039 410.694 229.576C411.096 231.113 411.297 232.822 411.297 234.703C411.297 238.717 410.427 241.814 408.687 243.993C406.97 246.15 404.528 247.228 401.36 247.228C399.665 247.228 398.193 246.93 396.944 246.333C395.695 245.737 394.658 244.888 393.833 243.787C393.03 242.686 392.428 241.367 392.027 239.83C391.625 238.293 391.424 236.584 391.424 234.703ZM396.242 234.703C396.242 235.919 396.342 237.043 396.543 238.075C396.744 239.084 397.045 239.956 397.446 240.69C397.87 241.424 398.405 241.998 399.052 242.411C399.699 242.823 400.468 243.03 401.36 243.03C402.989 243.03 404.249 242.376 405.141 241.069C406.033 239.761 406.479 237.639 406.479 234.703C406.479 233.533 406.379 232.443 406.178 231.434C406 230.425 405.71 229.542 405.308 228.785C404.907 228.028 404.383 227.443 403.736 227.03C403.089 226.594 402.297 226.376 401.36 226.376C399.732 226.376 398.472 227.053 397.58 228.406C396.688 229.737 396.242 231.836 396.242 234.703Z" fill="#E39948"/>
<path d="M414.573 222.66H428.456V226.858H419.156V232.81H427.72V237.008H419.156V246.746H414.573V222.66Z" fill="#E39948"/>
<path d="M431.562 222.66H445.445V226.858H436.145V232.81H444.709V237.008H436.145V246.746H431.562V222.66Z" fill="#E39948"/>
<path d="M71.56 177.84H76.58C77.5 177.84 78.4267 177.96 79.36 178.2C80.2933 178.44 81.1333 178.84 81.88 179.4C82.6267 179.947 83.2333 180.673 83.7 181.58C84.1667 182.473 84.4 183.587 84.4 184.92C84.4 186.16 84.1667 187.227 83.7 188.12C83.2333 189.013 82.6267 189.747 81.88 190.32C81.1333 190.893 80.2933 191.32 79.36 191.6C78.4267 191.867 77.5 192 76.58 192H71.56V177.84ZM76.18 189.8C76.8333 189.8 77.4867 189.727 78.14 189.58C78.7933 189.42 79.38 189.16 79.9 188.8C80.4333 188.427 80.8667 187.927 81.2 187.3C81.5333 186.673 81.7 185.88 81.7 184.92C81.7 183.907 81.5333 183.08 81.2 182.44C80.8667 181.8 80.4333 181.3 79.9 180.94C79.38 180.58 78.7933 180.333 78.14 180.2C77.4867 180.067 76.8333 180 76.18 180H74.08V189.8H76.18ZM87.2334 177.84H96.6134V180.04H89.7534V183.64H96.2534V185.76H89.7534V189.76H96.9734V192H87.2334V177.84ZM105.24 177.84H110.16C110.827 177.84 111.474 177.913 112.1 178.06C112.727 178.193 113.28 178.42 113.76 178.74C114.254 179.06 114.647 179.48 114.94 180C115.234 180.52 115.38 181.153 115.38 181.9C115.38 182.927 115.087 183.767 114.5 184.42C113.927 185.06 113.14 185.493 112.14 185.72L115.92 192H112.88L109.6 186H107.76V192H105.24V177.84ZM109.82 183.94C110.18 183.94 110.54 183.913 110.9 183.86C111.26 183.807 111.58 183.707 111.86 183.56C112.154 183.413 112.394 183.207 112.58 182.94C112.767 182.66 112.86 182.307 112.86 181.88C112.86 181.493 112.774 181.18 112.6 180.94C112.427 180.687 112.207 180.487 111.94 180.34C111.674 180.193 111.367 180.093 111.02 180.04C110.687 179.987 110.36 179.96 110.04 179.96H107.76V183.94H109.82ZM123.259 177.6C123.992 177.613 124.732 177.74 125.479 177.98C126.225 178.207 126.872 178.553 127.419 179.02L125.799 180.7C125.492 180.353 125.105 180.093 124.639 179.92C124.185 179.733 123.725 179.64 123.259 179.64V183.68C123.765 183.84 124.272 184.027 124.779 184.24C125.285 184.453 125.739 184.727 126.139 185.06C126.552 185.38 126.885 185.773 127.139 186.24C127.392 186.707 127.519 187.28 127.519 187.96C127.519 188.653 127.399 189.267 127.159 189.8C126.932 190.32 126.619 190.76 126.219 191.12C125.832 191.467 125.379 191.733 124.859 191.92C124.352 192.107 123.819 192.207 123.259 192.22V193.66H122.179V192.22C121.299 192.193 120.452 192.033 119.639 191.74C118.839 191.433 118.119 190.973 117.479 190.36L119.239 188.68C119.599 189.107 120.052 189.46 120.599 189.74C121.145 190.007 121.672 190.147 122.179 190.16V185.72C121.592 185.56 121.045 185.38 120.539 185.18C120.032 184.967 119.585 184.7 119.199 184.38C118.825 184.06 118.532 183.68 118.319 183.24C118.105 182.787 117.999 182.24 117.999 181.6C117.999 181 118.112 180.467 118.339 180C118.579 179.52 118.892 179.113 119.279 178.78C119.679 178.447 120.125 178.187 120.619 178C121.125 177.8 121.645 177.68 122.179 177.64V176.28H123.259V177.6ZM122.179 179.64C121.712 179.693 121.299 179.867 120.939 180.16C120.579 180.453 120.399 180.893 120.399 181.48C120.399 182.04 120.565 182.467 120.899 182.76C121.245 183.04 121.672 183.253 122.179 183.4V179.64ZM123.259 190.16C123.819 190.133 124.265 189.933 124.599 189.56C124.945 189.187 125.119 188.7 125.119 188.1C125.119 187.513 124.939 187.073 124.579 186.78C124.232 186.473 123.792 186.227 123.259 186.04V190.16ZM134.846 180.76L132.046 183.06L130.646 181.4L135.066 177.84H137.246V192H134.846V180.76ZM142.893 177.84H152.513V180.04L146.853 192H144.033L149.993 180H142.893V177.84ZM157.84 192L161.48 186.74L161.46 186.72C161.26 186.813 161.013 186.88 160.72 186.92C160.44 186.96 160.18 186.98 159.94 186.98C159.313 186.98 158.726 186.867 158.18 186.64C157.633 186.4 157.153 186.08 156.74 185.68C156.326 185.267 156 184.787 155.76 184.24C155.533 183.68 155.42 183.08 155.42 182.44C155.42 181.693 155.553 181.013 155.82 180.4C156.086 179.787 156.446 179.267 156.9 178.84C157.366 178.4 157.913 178.067 158.54 177.84C159.18 177.6 159.86 177.48 160.58 177.48C161.313 177.48 161.993 177.607 162.62 177.86C163.26 178.1 163.813 178.44 164.28 178.88C164.746 179.32 165.106 179.84 165.36 180.44C165.626 181.027 165.76 181.66 165.76 182.34C165.76 182.74 165.726 183.12 165.66 183.48C165.593 183.827 165.493 184.167 165.36 184.5C165.24 184.82 165.086 185.147 164.9 185.48C164.726 185.813 164.526 186.16 164.3 186.52L160.76 192H157.84ZM163.32 182.28C163.32 181.907 163.253 181.553 163.12 181.22C163 180.887 162.82 180.593 162.58 180.34C162.34 180.073 162.053 179.867 161.72 179.72C161.386 179.56 161.013 179.48 160.6 179.48C159.786 179.48 159.126 179.747 158.62 180.28C158.126 180.8 157.88 181.48 157.88 182.32C157.88 182.72 157.94 183.093 158.06 183.44C158.193 183.773 158.38 184.06 158.62 184.3C158.86 184.54 159.14 184.733 159.46 184.88C159.793 185.013 160.16 185.08 160.56 185.08C160.96 185.08 161.326 185.013 161.66 184.88C162.006 184.747 162.3 184.56 162.54 184.32C162.793 184.067 162.986 183.767 163.12 183.42C163.253 183.073 163.32 182.693 163.32 182.28ZM174.047 177.84H178.667C179.48 177.84 180.213 177.913 180.867 178.06C181.52 178.207 182.08 178.447 182.547 178.78C183.013 179.113 183.373 179.54 183.627 180.06C183.88 180.58 184.007 181.207 184.007 181.94C184.007 182.727 183.86 183.387 183.567 183.92C183.273 184.453 182.873 184.887 182.367 185.22C181.873 185.54 181.293 185.773 180.627 185.92C179.96 186.067 179.253 186.14 178.507 186.14H176.567V192H174.047V177.84ZM178.327 184.02C178.74 184.02 179.133 183.993 179.507 183.94C179.88 183.873 180.213 183.767 180.507 183.62C180.8 183.46 181.033 183.247 181.207 182.98C181.38 182.713 181.467 182.367 181.467 181.94C181.467 181.527 181.38 181.193 181.207 180.94C181.033 180.673 180.8 180.467 180.507 180.32C180.227 180.173 179.9 180.08 179.527 180.04C179.167 179.987 178.793 179.96 178.407 179.96H176.567V184.02H178.327ZM185.974 184.88C185.974 183.747 186.16 182.727 186.534 181.82C186.92 180.9 187.447 180.12 188.114 179.48C188.794 178.84 189.594 178.347 190.514 178C191.447 177.653 192.46 177.48 193.554 177.48C194.66 177.48 195.68 177.653 196.614 178C197.547 178.347 198.354 178.84 199.034 179.48C199.714 180.12 200.24 180.9 200.614 181.82C201 182.727 201.194 183.747 201.194 184.88C201.194 185.987 201 187 200.614 187.92C200.24 188.827 199.714 189.613 199.034 190.28C198.354 190.933 197.547 191.447 196.614 191.82C195.68 192.18 194.66 192.36 193.554 192.36C192.46 192.36 191.447 192.18 190.514 191.82C189.594 191.447 188.794 190.933 188.114 190.28C187.447 189.613 186.92 188.827 186.534 187.92C186.16 187 185.974 185.987 185.974 184.88ZM188.714 184.88C188.714 185.64 188.827 186.34 189.054 186.98C189.294 187.607 189.627 188.153 190.054 188.62C190.494 189.087 191.007 189.453 191.594 189.72C192.194 189.973 192.854 190.1 193.574 190.1C194.294 190.1 194.954 189.973 195.554 189.72C196.154 189.453 196.667 189.087 197.094 188.62C197.534 188.153 197.867 187.607 198.094 186.98C198.334 186.34 198.454 185.64 198.454 184.88C198.454 184.147 198.334 183.467 198.094 182.84C197.867 182.213 197.54 181.667 197.114 181.2C196.687 180.733 196.174 180.367 195.574 180.1C194.974 179.833 194.307 179.7 193.574 179.7C192.84 179.7 192.174 179.833 191.574 180.1C190.987 180.367 190.48 180.733 190.054 181.2C189.627 181.667 189.294 182.213 189.054 182.84C188.827 183.467 188.714 184.147 188.714 184.88ZM204.026 177.84H208.946C209.613 177.84 210.26 177.913 210.886 178.06C211.513 178.193 212.066 178.42 212.546 178.74C213.04 179.06 213.433 179.48 213.726 180C214.02 180.52 214.166 181.153 214.166 181.9C214.166 182.927 213.873 183.767 213.286 184.42C212.713 185.06 211.926 185.493 210.926 185.72L214.706 192H211.666L208.386 186H206.546V192H204.026V177.84ZM208.606 183.94C208.966 183.94 209.326 183.913 209.686 183.86C210.046 183.807 210.366 183.707 210.646 183.56C210.94 183.413 211.18 183.207 211.366 182.94C211.553 182.66 211.646 182.307 211.646 181.88C211.646 181.493 211.56 181.18 211.386 180.94C211.213 180.687 210.993 180.487 210.726 180.34C210.46 180.193 210.153 180.093 209.806 180.04C209.473 179.987 209.146 179.96 208.826 179.96H206.546V183.94H208.606ZM222.405 177.84H227.325C227.991 177.84 228.638 177.913 229.265 178.06C229.891 178.193 230.445 178.42 230.925 178.74C231.418 179.06 231.811 179.48 232.105 180C232.398 180.52 232.545 181.153 232.545 181.9C232.545 182.927 232.251 183.767 231.665 184.42C231.091 185.06 230.305 185.493 229.305 185.72L233.085 192H230.045L226.765 186H224.925V192H222.405V177.84ZM226.985 183.94C227.345 183.94 227.705 183.913 228.065 183.86C228.425 183.807 228.745 183.707 229.025 183.56C229.318 183.413 229.558 183.207 229.745 182.94C229.931 182.66 230.025 182.307 230.025 181.88C230.025 181.493 229.938 181.18 229.765 180.94C229.591 180.687 229.371 180.487 229.105 180.34C228.838 180.193 228.531 180.093 228.185 180.04C227.851 179.987 227.525 179.96 227.205 179.96H224.925V183.94H226.985ZM240.423 177.6C241.156 177.613 241.896 177.74 242.643 177.98C243.389 178.207 244.036 178.553 244.583 179.02L242.963 180.7C242.656 180.353 242.269 180.093 241.803 179.92C241.349 179.733 240.889 179.64 240.423 179.64V183.68C240.929 183.84 241.436 184.027 241.943 184.24C242.449 184.453 242.903 184.727 243.303 185.06C243.716 185.38 244.049 185.773 244.303 186.24C244.556 186.707 244.683 187.28 244.683 187.96C244.683 188.653 244.563 189.267 244.323 189.8C244.096 190.32 243.783 190.76 243.383 191.12C242.996 191.467 242.543 191.733 242.023 191.92C241.516 192.107 240.983 192.207 240.423 192.22V193.66H239.343V192.22C238.463 192.193 237.616 192.033 236.803 191.74C236.003 191.433 235.283 190.973 234.643 190.36L236.403 188.68C236.763 189.107 237.216 189.46 237.763 189.74C238.309 190.007 238.836 190.147 239.343 190.16V185.72C238.756 185.56 238.209 185.38 237.703 185.18C237.196 184.967 236.749 184.7 236.363 184.38C235.989 184.06 235.696 183.68 235.483 183.24C235.269 182.787 235.163 182.24 235.163 181.6C235.163 181 235.276 180.467 235.503 180C235.743 179.52 236.056 179.113 236.443 178.78C236.843 178.447 237.289 178.187 237.783 178C238.289 177.8 238.809 177.68 239.343 177.64V176.28H240.423V177.6ZM239.343 179.64C238.876 179.693 238.463 179.867 238.103 180.16C237.743 180.453 237.563 180.893 237.563 181.48C237.563 182.04 237.729 182.467 238.063 182.76C238.409 183.04 238.836 183.253 239.343 183.4V179.64ZM240.423 190.16C240.983 190.133 241.429 189.933 241.763 189.56C242.109 189.187 242.283 188.7 242.283 188.1C242.283 187.513 242.103 187.073 241.743 186.78C241.396 186.473 240.956 186.227 240.423 186.04V190.16ZM252.01 180.76L249.21 183.06L247.81 181.4L252.23 177.84H254.41V192H252.01V180.76ZM270.137 184.92C270.137 186.067 270.023 187.1 269.797 188.02C269.583 188.94 269.263 189.72 268.837 190.36C268.423 191 267.903 191.493 267.277 191.84C266.663 192.187 265.957 192.36 265.157 192.36C264.357 192.36 263.643 192.187 263.017 191.84C262.39 191.493 261.863 191 261.437 190.36C261.01 189.72 260.683 188.94 260.457 188.02C260.243 187.1 260.137 186.067 260.137 184.92C260.137 183.773 260.243 182.74 260.457 181.82C260.683 180.9 261.01 180.12 261.437 179.48C261.863 178.84 262.39 178.347 263.017 178C263.643 177.653 264.357 177.48 265.157 177.48C265.957 177.48 266.663 177.653 267.277 178C267.903 178.347 268.423 178.84 268.837 179.48C269.263 180.12 269.583 180.9 269.797 181.82C270.023 182.74 270.137 183.773 270.137 184.92ZM267.677 184.92C267.677 184.427 267.643 183.867 267.577 183.24C267.523 182.613 267.403 182.02 267.217 181.46C267.043 180.9 266.79 180.433 266.457 180.06C266.123 179.673 265.69 179.48 265.157 179.48C264.61 179.48 264.17 179.673 263.837 180.06C263.503 180.433 263.243 180.9 263.057 181.46C262.883 182.02 262.763 182.613 262.697 183.24C262.63 183.867 262.597 184.427 262.597 184.92C262.597 185.413 262.63 185.973 262.697 186.6C262.763 187.227 262.883 187.813 263.057 188.36C263.243 188.907 263.503 189.373 263.837 189.76C264.17 190.133 264.61 190.32 265.157 190.32C265.69 190.32 266.123 190.133 266.457 189.76C266.79 189.373 267.043 188.907 267.217 188.36C267.403 187.813 267.523 187.227 267.577 186.6C267.643 185.973 267.677 185.413 267.677 184.92ZM272.664 177.84H282.284V180.04L276.624 192H273.804L279.764 180H272.664V177.84ZM286.131 189.24H288.451L286.751 194.52H284.731L286.131 189.24ZM296.806 189.06H290.266V186.94L296.286 177.84H299.166V187H301.146V189.06H299.166V192H296.806V189.06ZM296.806 180.66H296.766L292.746 187H296.806V180.66ZM313.553 184.92C313.553 186.067 313.44 187.1 313.213 188.02C313 188.94 312.68 189.72 312.253 190.36C311.84 191 311.32 191.493 310.693 191.84C310.08 192.187 309.373 192.36 308.573 192.36C307.773 192.36 307.06 192.187 306.433 191.84C305.806 191.493 305.28 191 304.853 190.36C304.426 189.72 304.1 188.94 303.873 188.02C303.66 187.1 303.553 186.067 303.553 184.92C303.553 183.773 303.66 182.74 303.873 181.82C304.1 180.9 304.426 180.12 304.853 179.48C305.28 178.84 305.806 178.347 306.433 178C307.06 177.653 307.773 177.48 308.573 177.48C309.373 177.48 310.08 177.653 310.693 178C311.32 178.347 311.84 178.84 312.253 179.48C312.68 180.12 313 180.9 313.213 181.82C313.44 182.74 313.553 183.773 313.553 184.92ZM311.093 184.92C311.093 184.427 311.06 183.867 310.993 183.24C310.94 182.613 310.82 182.02 310.633 181.46C310.46 180.9 310.206 180.433 309.873 180.06C309.54 179.673 309.106 179.48 308.573 179.48C308.026 179.48 307.586 179.673 307.253 180.06C306.92 180.433 306.66 180.9 306.473 181.46C306.3 182.02 306.18 182.613 306.113 183.24C306.046 183.867 306.013 184.427 306.013 184.92C306.013 185.413 306.046 185.973 306.113 186.6C306.18 187.227 306.3 187.813 306.473 188.36C306.66 188.907 306.92 189.373 307.253 189.76C307.586 190.133 308.026 190.32 308.573 190.32C309.106 190.32 309.54 190.133 309.873 189.76C310.206 189.373 310.46 188.907 310.633 188.36C310.82 187.813 310.94 187.227 310.993 186.6C311.06 185.973 311.093 185.413 311.093 184.92Z" fill="#E39948"/>
<path d="M386.551 214.154H397.979V205.934H403.389V197.17H397.979V171.544H386.065L364 197.654L365.945 205.934H386.551V214.154ZM376.4 197.231L386.551 185.082V197.231H376.4Z" fill="#E39948"/>
<path d="M427.245 215C439.402 215 447 204.967 447 193V192.879C447 180.912 439.463 171 427.366 171C415.27 171 407.611 181.033 407.611 193V193.121C407.611 205.088 415.088 215 427.245 215ZM427.366 204.604C422.625 204.604 419.464 199.769 419.464 193V192.879C419.464 186.11 422.564 181.396 427.245 181.396C431.925 181.396 435.147 186.291 435.147 193V193.121C435.147 199.83 432.108 204.604 427.366 204.604Z" fill="#E39948"/>
</svg>
