<svg width="106" height="131" viewBox="0 0 106 131" fill="none" xmlns="http://www.w3.org/2000/svg">
<path d="M93.7852 45.0825C86.6189 36.2025 76.6484 29.8151 65.6653 27.0888V17.3519C65.6653 15.4046 64.1074 13.8467 62.16 13.8467H43.3874C41.44 13.8467 39.8821 15.4046 39.8821 17.3519V27.0109C28.8989 29.8151 18.9284 36.1246 11.7621 45.0046C4.20631 54.3519 0 66.114 0 78.1877C0 107.32 23.68 131 52.8126 131C81.9453 131 105.625 107.32 105.625 78.1877C105.469 66.1919 101.341 54.4298 93.7852 45.0825ZM52.7347 25.6867C50.7874 25.6867 49.1516 24.1288 49.1516 22.1035C49.1516 20.1562 50.7095 18.5204 52.7347 18.5204C54.6821 18.5204 56.3179 20.0783 56.3179 22.1035C56.24 24.0509 54.6821 25.6867 52.7347 25.6867Z" fill="white"/>
<path d="M52.4237 129.598C80.7309 129.598 103.678 106.651 103.678 78.3436C103.678 50.0364 80.7309 27.0889 52.4237 27.0889C24.1165 27.0889 1.16895 50.0364 1.16895 78.3436C1.16895 106.651 24.1165 129.598 52.4237 129.598Z" fill="#E91E37"/>
<path d="M62.0823 15.4043H43.3097C42.2191 15.4043 41.3623 16.2611 41.3623 17.3517V28.179C41.3623 28.7243 46.4255 29.1138 52.7349 29.1138C59.0444 29.1138 64.1076 28.6464 64.1076 28.179V17.3517C64.0297 16.2611 63.1728 15.4043 62.0823 15.4043ZM52.7349 25.6864C50.7876 25.6864 49.1518 24.1285 49.1518 22.1032C49.1518 20.1559 50.7097 18.5201 52.7349 18.5201C54.6823 18.5201 56.3181 20.078 56.3181 22.1032C56.2402 24.0506 54.6823 25.6864 52.7349 25.6864Z" fill="#498E7C"/>
<path d="M53.5 18C53.75 18 54 17.9805 54 17.961V0.038961C54 0.0194805 53.75 0 53.5 0C53.25 0 53 0.0194805 53 0.038961V17.961C53.25 17.9805 53.25 18 53.5 18Z" fill="white"/>
<path d="M52.7345 19.6105C52.1893 19.6105 51.7998 19.2211 51.7998 18.6758V14.0021C51.7998 13.4569 52.1893 13.0674 52.7345 13.0674C53.2798 13.0674 53.6693 13.4569 53.6693 14.0021V18.6758C53.5914 19.2211 53.2019 19.6105 52.7345 19.6105Z" fill="#8CB5AB"/>
<path opacity="0.5" fill-rule="evenodd" clip-rule="evenodd" d="M67.8447 29.4248C62.0972 31.6139 56.3795 33.9926 50.6619 36.3713C36.8997 42.0967 23.1375 47.822 8.95787 50.9045C5.87015 55.7827 3.58334 61.2182 2.28227 67.0261C19.3997 63.092 35.4555 54.5479 51.512 46.0034C59.9014 41.5389 68.2911 37.0743 76.8325 33.2671C73.9892 31.714 70.9825 30.4224 67.8447 29.4248ZM82.7634 37.0575C72.3599 42.3291 62.324 48.8196 52.2885 55.3099C35.7915 65.979 19.2954 76.6476 1.16895 81.8997C1.5155 86.8658 2.56948 91.6368 4.23078 96.1128C21.7667 89.0487 37.4218 76.9842 53.0769 64.9197C64.2683 56.2952 75.4597 47.6706 87.3382 40.8728C85.8896 39.5153 84.3621 38.241 82.7634 37.0575ZM90.9423 44.6083C77.8473 52.9186 65.8322 63.6124 53.817 74.3062L53.817 74.3062C39.8953 86.6968 25.9736 99.0875 10.3722 107.77C12.7829 111.191 15.6018 114.304 18.7579 117.038C31.5289 107.481 43.1087 95.6913 54.6871 83.9028C67.2599 71.1018 79.831 58.3025 93.9236 48.3671C92.9879 47.0672 91.9928 45.813 90.9423 44.6083ZM95.6421 50.9113C80.9111 62.5189 68.1624 77.8768 55.4136 93.2347L55.4136 93.2348L55.4136 93.2348C46.6526 103.789 37.8917 114.343 28.4875 123.679C30.9339 124.965 33.497 126.059 36.1566 126.941C40.1963 122.237 44.0901 117.507 47.8648 112.922L47.8653 112.922C50.7046 109.473 53.4765 106.106 56.1925 102.894C58.9317 99.6556 61.7249 96.2639 64.5843 92.792L64.5867 92.789L64.587 92.7886C74.8181 80.3656 85.8953 66.9149 98.3701 55.7942C97.548 54.1129 96.6366 52.4832 95.6421 50.9113ZM100.03 59.569C87.1467 72.1119 75.8826 87.129 65.4832 100.993L65.4831 100.994L65.4826 100.994C62.5838 104.859 59.7523 108.634 56.9715 112.241C54.1326 115.92 51.245 119.771 48.2907 123.711C46.9983 125.434 45.6932 127.174 44.3737 128.925C46.9564 129.326 49.6028 129.534 52.2978 129.534C52.3401 129.534 52.3824 129.534 52.4246 129.534C54.2193 126.933 55.9928 124.382 57.7505 121.9C60.77 117.644 63.828 113.196 66.9524 108.651C77.3556 93.5198 88.4956 77.3163 101.408 63.5621C101.003 62.2066 100.542 60.8747 100.03 59.569ZM102.45 67.6554C89.5505 82.6297 78.5214 99.9606 68.1602 116.242L68.1601 116.242C65.4017 120.577 62.6906 124.837 60.0041 128.958C62.5294 128.578 64.9943 128.013 67.3847 127.277C67.9484 126.322 68.5137 125.362 69.081 124.4C79.3805 106.922 90.3078 88.3784 103.18 72.067C103 70.5758 102.756 69.1043 102.45 67.6554Z" fill="#8C1826"/>
<path d="M34.63 65.0966C35.1207 65.2613 35.566 65.4899 35.9658 65.7826C36.3838 66.0752 36.7381 66.4136 37.0289 66.7977C37.3197 67.1818 37.5378 67.6025 37.6831 68.0598C37.8467 68.4988 37.9285 68.9469 37.9285 69.4042C37.9285 70.5382 37.6922 71.5168 37.2197 72.3399C36.7472 73.1447 36.1293 73.8123 35.366 74.3428C34.6028 74.8549 33.7395 75.2299 32.7763 75.4677C31.8132 75.7054 30.8409 75.8243 29.8595 75.8243C28.8782 75.8243 27.9059 75.7054 26.9427 75.4677C25.9977 75.2482 25.1254 74.8915 24.3257 74.3976C23.5443 73.9038 22.8537 73.2819 22.254 72.5319C21.6724 71.782 21.2544 70.8858 21 69.8432L27.0517 68.4165C27.1608 68.892 27.4243 69.331 27.8423 69.7334C28.2784 70.1358 28.8327 70.337 29.5051 70.337C29.6869 70.337 29.8777 70.3187 30.0776 70.2822C30.2775 70.2273 30.4592 70.1541 30.6228 70.0627C30.7864 69.9529 30.9227 69.8157 31.0317 69.6511C31.1407 69.4865 31.1953 69.2761 31.1953 69.0201C31.1953 68.4348 30.9408 68.0506 30.432 67.8677C29.9231 67.6848 29.2416 67.5934 28.3875 67.5934H26.5338V63.0938H28.6056C29.2961 63.0938 29.8504 63.0023 30.2684 62.8194C30.6864 62.6182 30.8954 62.2432 30.8954 61.6945C30.8954 61.2738 30.7318 60.9812 30.4047 60.8165C30.0776 60.6519 29.7323 60.5696 29.3688 60.5696C28.9145 60.5696 28.4965 60.7159 28.1149 61.0086C27.7332 61.283 27.497 61.6945 27.4061 62.2432L21.3816 60.9537C21.7088 59.8928 22.1722 59.0057 22.7719 58.2924C23.3716 57.5607 24.0531 56.9754 24.8164 56.5364C25.5979 56.0975 26.4247 55.7865 27.2971 55.6036C28.1876 55.4024 29.0599 55.3018 29.914 55.3018C30.7682 55.3018 31.6496 55.4115 32.5583 55.631C33.4669 55.8322 34.2938 56.1706 35.0389 56.6462C35.784 57.1035 36.3928 57.6979 36.8653 58.4296C37.3379 59.1429 37.5741 60.0117 37.5741 61.036C37.5741 62.1335 37.2833 63.0115 36.7018 63.6699C36.1384 64.3101 35.4478 64.7491 34.63 64.9869V65.0966Z" fill="white"/>
<path d="M48.7288 75.8243C47.5475 75.8243 46.5116 75.6689 45.6211 75.3579C44.7307 75.047 43.9674 74.6263 43.3313 74.0958C42.6952 73.5654 42.1591 72.9526 41.723 72.2576C41.305 71.5625 40.9688 70.8309 40.7143 70.0627C40.4781 69.2944 40.3054 68.5171 40.1964 67.7306C40.1055 66.944 40.0601 66.185 40.0601 65.4533C40.0601 64.74 40.1055 63.99 40.1964 63.2035C40.3054 62.417 40.4781 61.6488 40.7143 60.8989C40.9688 60.1489 41.305 59.4356 41.723 58.7588C42.1591 58.082 42.6952 57.4876 43.3313 56.9754C43.9674 56.4633 44.7307 56.0609 45.6211 55.7682C46.5116 55.4573 47.5475 55.3018 48.7288 55.3018C50.5098 55.3018 51.9637 55.631 53.0904 56.2895C54.2171 56.9297 55.0986 57.7528 55.7346 58.7588C56.3707 59.7465 56.8069 60.844 57.0431 62.0512C57.2794 63.2401 57.3975 64.3741 57.3975 65.4533C57.3975 66.1667 57.343 66.9257 57.2339 67.7306C57.1431 68.5171 56.9704 69.2944 56.716 70.0627C56.4797 70.8309 56.1526 71.5625 55.7346 72.2576C55.3166 72.9526 54.7805 73.5654 54.1263 74.0958C53.4902 74.6263 52.7269 75.047 51.8364 75.3579C50.9459 75.6689 49.9101 75.8243 48.7288 75.8243ZM48.7288 60.9263C48.329 60.9263 48.0019 61.0635 47.7474 61.3378C47.493 61.6122 47.2931 61.9689 47.1477 62.4079C47.0023 62.8469 46.9024 63.3407 46.8479 63.8894C46.7933 64.4199 46.7661 64.9412 46.7661 65.4533C46.7661 65.9838 46.7933 66.5325 46.8479 67.0995C46.9024 67.6482 47.0023 68.1512 47.1477 68.6085C47.2931 69.0658 47.493 69.4408 47.7474 69.7334C48.0019 70.0078 48.329 70.145 48.7288 70.145C49.1286 70.145 49.4557 70.0078 49.7102 69.7334C49.9828 69.4408 50.1827 69.0658 50.3099 68.6085C50.4553 68.1512 50.5552 67.6482 50.6097 67.0995C50.6643 66.5325 50.6915 65.9838 50.6915 65.4533C50.6915 64.9412 50.6643 64.4199 50.6097 63.8894C50.5552 63.3407 50.4553 62.8469 50.3099 62.4079C50.1827 61.9689 49.9828 61.6122 49.7102 61.3378C49.4557 61.0635 49.1286 60.9263 48.7288 60.9263Z" fill="white"/>
<path d="M64.3814 66.1392C63.6363 66.1392 62.9366 66.0021 62.2824 65.7277C61.6463 65.4533 61.0829 65.0784 60.5922 64.6028C60.1016 64.1089 59.7108 63.5419 59.4201 62.9017C59.1474 62.2615 59.0112 61.5756 59.0112 60.844C59.0112 60.0941 59.1474 59.399 59.4201 58.7588C59.7108 58.1003 60.1016 57.5333 60.5922 57.0577C61.0829 56.5822 61.6463 56.2072 62.2824 55.9328C62.9366 55.6585 63.6363 55.5213 64.3814 55.5213C65.1083 55.5213 65.7989 55.6585 66.4532 55.9328C67.1074 56.2072 67.6708 56.5822 68.1433 57.0577C68.6339 57.5333 69.0156 58.1003 69.2882 58.7588C69.579 59.399 69.7244 60.0941 69.7244 60.844C69.7244 61.5756 69.579 62.2615 69.2882 62.9017C69.0156 63.5419 68.6339 64.1089 68.1433 64.6028C67.6708 65.0784 67.1074 65.4533 66.4532 65.7277C65.7989 66.0021 65.1083 66.1392 64.3814 66.1392ZM64.3814 59.1978C63.9452 59.1978 63.5636 59.3624 63.2365 59.6916C62.9093 60.0026 62.7458 60.3867 62.7458 60.844C62.7458 61.283 62.9093 61.6579 63.2365 61.9689C63.5636 62.2798 63.9452 62.4353 64.3814 62.4353C64.7994 62.4353 65.1719 62.2798 65.499 61.9689C65.8262 61.6579 65.9897 61.283 65.9897 60.844C65.9897 60.3867 65.8262 60.0026 65.499 59.6916C65.1719 59.3624 64.7994 59.1978 64.3814 59.1978ZM77.657 75.6048C76.9119 75.6048 76.2122 75.4677 75.558 75.1933C74.9219 74.9189 74.3586 74.544 73.8679 74.0684C73.3772 73.5745 72.9865 73.0075 72.6957 72.3673C72.4231 71.7271 72.2868 71.0412 72.2868 70.3096C72.2868 69.5597 72.4231 68.8646 72.6957 68.2244C72.9865 67.5659 73.3772 66.9989 73.8679 66.5233C74.3586 66.0478 74.9219 65.6728 75.558 65.3984C76.2122 65.1241 76.9119 64.9869 77.657 64.9869C78.384 64.9869 79.0746 65.1241 79.7288 65.3984C80.383 65.6728 80.9464 66.0478 81.4189 66.5233C81.9096 66.9989 82.2912 67.5659 82.5638 68.2244C82.8546 68.8646 83 69.5597 83 70.3096C83 71.0412 82.8546 71.7271 82.5638 72.3673C82.2912 73.0075 81.9096 73.5745 81.4189 74.0684C80.9464 74.544 80.383 74.9189 79.7288 75.1933C79.0746 75.4677 78.384 75.6048 77.657 75.6048ZM77.657 68.6634C77.2209 68.6634 76.8392 68.828 76.5121 69.1573C76.185 69.4682 76.0214 69.8523 76.0214 70.3096C76.0214 70.7486 76.185 71.1235 76.5121 71.4345C76.8392 71.7454 77.2209 71.9009 77.657 71.9009C78.075 71.9009 78.4476 71.7454 78.7747 71.4345C79.1018 71.1235 79.2654 70.7486 79.2654 70.3096C79.2654 69.8523 79.1018 69.4682 78.7747 69.1573C78.4476 68.828 78.075 68.6634 77.657 68.6634ZM63.9452 74.8366L75.3945 55L78.0387 56.509L66.6167 76.2908L63.9452 74.8366Z" fill="white"/>
<path d="M25.3532 96.629C25.3532 95.0742 25.6258 93.675 26.171 92.4312C26.7162 91.1691 27.4613 90.0991 28.4063 89.2211C29.3695 88.3432 30.5053 87.6664 31.8138 87.1908C33.1223 86.7153 34.5398 86.4775 36.0664 86.4775C37.593 86.4775 39.0105 86.7153 40.319 87.1908C41.6274 87.6664 42.7633 88.3432 43.7265 89.2211C44.6897 90.0991 45.4438 91.1691 45.989 92.4312C46.5343 93.675 46.8069 95.0742 46.8069 96.629C46.8069 98.1837 46.5343 99.6013 45.989 100.882C45.4438 102.162 44.6897 103.259 43.7265 104.174C42.7633 105.07 41.6274 105.765 40.319 106.259C39.0105 106.753 37.593 107 36.0664 107C34.5398 107 33.1223 106.753 31.8138 106.259C30.5053 105.765 29.3695 105.07 28.4063 104.174C27.4613 103.259 26.7162 102.162 26.171 100.882C25.6258 99.6013 25.3532 98.1837 25.3532 96.629ZM32.25 96.629C32.25 97.2692 32.3409 97.8545 32.5226 98.3849C32.7225 98.9154 32.986 99.3726 33.3131 99.7568C33.6584 100.141 34.0673 100.443 34.5398 100.662C35.0123 100.863 35.5212 100.964 36.0664 100.964C36.6116 100.964 37.1114 100.863 37.5657 100.662C38.0382 100.443 38.4471 100.141 38.7924 99.7568C39.1377 99.3726 39.4012 98.9154 39.5829 98.3849C39.7828 97.8545 39.8828 97.2692 39.8828 96.629C39.8828 96.0071 39.7828 95.4401 39.5829 94.9279C39.4012 94.3975 39.1377 93.9585 38.7924 93.611C38.4471 93.2452 38.0382 92.9616 37.5657 92.7604C37.1114 92.5592 36.6116 92.4586 36.0664 92.4586C35.5212 92.4586 35.0123 92.5592 34.5398 92.7604C34.0673 92.9616 33.6584 93.2452 33.3131 93.611C32.986 93.9585 32.7225 94.3975 32.5226 94.9279C32.3409 95.4401 32.25 96.0071 32.25 96.629Z" fill="white"/>
<path d="M55.8972 94.5438H61.7854V99.8665H55.9245V106.451H49.5456V87.0262H62.5759V92.4861H55.8972V94.5438Z" fill="white"/>
<path d="M71.7368 94.5438H77.625V99.8665H71.7641V106.451H65.3852V87.0262H78.4155V92.4861H71.7368V94.5438Z" fill="white"/>
</svg>
