<svg width="48" height="48" viewBox="0 0 48 48" fill="none" xmlns="http://www.w3.org/2000/svg">
<circle cx="24" cy="24" r="24" fill="#49C9F1"/>
<path d="M36.1219 19.4828C36.1397 19.7234 36.1397 19.9641 36.1397 20.2047C36.1397 27.5437 30.3656 36 19.8122 36C16.5609 36 13.5406 35.089 11 33.5078C11.4619 33.5594 11.9061 33.5766 12.3858 33.5766C15.0685 33.5766 17.5381 32.7 19.5102 31.2047C16.9873 31.1531 14.8731 29.5547 14.1447 27.3547C14.5 27.4062 14.8553 27.4406 15.2285 27.4406C15.7437 27.4406 16.2589 27.3718 16.7386 27.2516C14.1092 26.7359 12.137 24.5016 12.137 21.8031V21.7344C12.9009 22.1469 13.7893 22.4047 14.7309 22.439C13.1852 21.4421 12.1726 19.7406 12.1726 17.8156C12.1726 16.7844 12.4568 15.839 12.9543 15.014C15.7792 18.3828 20.0254 20.5827 24.7868 20.8234C24.698 20.4109 24.6446 19.9813 24.6446 19.5516C24.6446 16.4922 27.203 14 30.3832 14C32.0355 14 33.5279 14.6703 34.5761 15.7531C35.8731 15.5125 37.1167 15.0484 38.2183 14.4125C37.7918 15.7016 36.8858 16.7844 35.6954 17.4719C36.8503 17.3516 37.9696 17.0422 39 16.6125C38.2184 17.7125 37.2412 18.6921 36.1219 19.4828V19.4828Z" fill="white"/>
</svg>
