<svg width="28" height="25" viewBox="0 0 28 25" fill="none" xmlns="http://www.w3.org/2000/svg">
<path d="M27.6345 8.66446L20.6344 15.3043C19.8965 16.0043 18.6667 15.4854 18.6667 14.4524V10.9386C11.6387 10.9859 8.67388 12.6531 10.6568 19.3054C10.8747 20.0365 10.0323 20.6026 9.4412 20.1516C7.54697 18.7063 5.83333 15.9418 5.83333 13.1513C5.83333 6.12315 11.55 4.72848 18.6667 4.68883V1.17247C18.6667 0.138585 19.8974 -0.3787 20.6344 0.320519L27.6345 6.96055C28.1216 7.42261 28.122 8.20201 27.6345 8.66446ZM18.6667 18.5121V21.875H3.11111V6.25001H5.58619C5.66475 6.24996 5.74248 6.23396 5.81472 6.20297C5.88697 6.17198 5.95223 6.12665 6.00658 6.06969C6.73347 5.30953 7.57366 4.70787 8.48643 4.23004C9.02747 3.94679 8.827 3.12501 8.21688 3.12501H2.33333C1.04465 3.12501 0 4.17433 0 5.46876V22.6562C0 23.9507 1.04465 25 2.33333 25H19.4444C20.7331 25 21.7778 23.9507 21.7778 22.6562V18.32C21.7778 17.9153 21.3793 17.6332 20.9995 17.7682C20.4669 17.9574 19.8966 18.0139 19.3375 17.9331C18.9841 17.882 18.6667 18.1535 18.6667 18.5121Z" fill="white"/>
</svg>
