<svg width="63" height="67" viewBox="0 0 63 67" fill="none" xmlns="http://www.w3.org/2000/svg">
<path d="M18.7605 53.0885C20.0305 53.1655 21.1796 53.7181 22.0251 54.5671C22.9437 55.4822 23.511 56.7485 23.511 58.1465V60.1156C25.0995 58.0771 26.0436 55.5115 26.0436 52.7263C26.0436 49.3993 24.6932 46.3836 22.5118 44.2022C20.3305 42.0209 17.3184 40.6741 13.9879 40.6741C10.6611 40.6741 7.64902 42.021 5.46779 44.2022C3.28643 46.3836 1.93604 49.3993 1.93604 52.7263C1.93604 55.5079 2.88025 58.0698 4.46497 60.1119V58.1465C4.46497 56.7521 5.03604 55.4858 5.95106 54.5671C6.80011 53.7181 7.94934 53.1654 9.21916 53.0885C8.99231 52.5102 8.86785 51.8844 8.86785 51.2293V48.1184V46.7788C8.86785 45.8711 9.2375 45.0477 9.834 44.4512C10.4305 43.8547 11.2541 43.485 12.1616 43.485H18.1419C18.6798 43.485 19.1118 43.9169 19.1118 44.4549V48.1185V51.2295C19.1119 51.8844 18.9874 52.5102 18.7605 53.0885ZM10.8039 47.1521H17.1757V45.4209H12.1618C11.7884 45.4209 11.4518 45.5746 11.2028 45.8199C10.9577 46.0688 10.8039 46.4054 10.8039 46.7788V47.1521ZM17.1757 49.0881H10.8039V51.2292C10.8039 52.9787 12.2386 54.4134 13.9879 54.4134C15.741 54.4134 17.1756 52.9787 17.1756 51.2292V49.0881H17.1757ZM51.8021 12.0607C50.6749 12.1851 48.9985 12.0972 47.5676 10.9005C47.0551 11.1786 46.3159 11.4568 45.4301 11.4312V13.1036C45.4301 13.9784 45.7888 14.7727 46.3671 15.3508C46.9454 15.9291 47.7395 16.2878 48.618 16.2878C49.4926 16.2878 50.2869 15.9291 50.8651 15.3508C51.4434 14.7726 51.8021 13.9784 51.8021 13.1036V12.0607ZM45.4301 9.49869C46.0048 9.53536 46.6196 9.31212 47.0478 8.93137C47.4503 8.58367 48.0615 8.62756 48.4092 9.03027C49.4889 10.2673 50.9639 10.2563 51.8019 10.1209V8.64964C51.8019 8.27999 51.6483 7.93965 51.403 7.69447C51.1578 7.44554 50.8175 7.29551 50.4441 7.29551H46.7879C46.4145 7.29551 46.0779 7.44554 45.8289 7.69447C45.5839 7.93965 45.43 8.27999 45.43 8.64964V9.49869H45.4301ZM10.5477 55.0136H9.53394C8.67392 55.0136 7.89059 55.3687 7.32327 55.936C6.75234 56.5033 6.40115 57.2865 6.40115 58.1465V62.0921C7.23922 62.7692 8.16883 63.3401 9.17165 63.7756V59.9399C9.17165 59.4019 9.60353 58.97 10.1378 58.97C10.6722 58.97 11.1077 59.4019 11.1077 59.9399V64.4307C12.0301 64.6577 12.9962 64.7784 13.9881 64.7784C14.9837 64.7784 15.9497 64.6576 16.8722 64.4307V59.9399C16.8722 59.4019 17.3077 58.97 17.8421 58.97C18.3765 58.97 18.8081 59.4019 18.8081 59.9399V63.7756C19.8111 63.3401 20.7443 62.7691 21.5823 62.0885V58.1467C21.5823 57.2903 21.2273 56.5071 20.6563 55.9361C20.0892 55.3688 19.3058 55.0137 18.4458 55.0137H17.432C16.5245 55.8446 15.313 56.3533 13.9881 56.3533C12.6669 56.3532 11.4554 55.8445 10.5477 55.0136ZM53.7381 13.1036C53.7381 13.7553 53.6136 14.3847 53.3867 14.9593C54.6567 15.0398 55.8059 15.5888 56.655 16.4378C57.57 17.3566 58.1372 18.6229 58.1372 20.021V21.9901C59.7257 19.9479 60.6699 17.3823 60.6699 14.597C60.6699 11.27 59.3194 8.25792 57.1382 6.07656C54.9568 3.8952 51.9447 2.54468 48.618 2.54468C45.2874 2.54468 42.2754 3.8952 40.094 6.07656C37.9126 8.25792 36.5623 11.2701 36.5623 14.597C36.5623 17.3822 37.5066 19.9442 39.0913 21.9827V20.021C39.0913 18.6229 39.6623 17.3566 40.5809 16.4378C41.4263 15.5888 42.5756 15.0398 43.8455 14.9593C43.6185 14.3847 43.4941 13.7553 43.4941 13.1036V8.64964C43.4941 7.74573 43.8637 6.92212 44.4602 6.32561C45.0568 5.72899 45.8803 5.35934 46.7879 5.35934H50.4441C51.3517 5.35934 52.1752 5.72899 52.7717 6.32561C53.3682 6.92212 53.7379 7.74573 53.7379 8.64964V13.1036H53.7381ZM52.0582 16.8881C51.1506 17.7153 49.9391 18.2241 48.6179 18.2241C47.2929 18.2241 46.0852 17.7154 45.1738 16.8881H44.16C43.3 16.8881 42.5167 17.2396 41.9495 17.8068C41.3785 18.3778 41.0271 19.161 41.0271 20.021V23.9627C41.8652 24.6433 42.7948 25.2107 43.7976 25.6498V21.8106C43.7976 21.2763 44.2296 20.8407 44.7639 20.8407C45.2981 20.8407 45.7338 21.2763 45.7338 21.8106V26.305C46.656 26.532 47.6222 26.6527 48.6178 26.6527C49.6096 26.6527 50.5758 26.5319 51.4981 26.305V21.8106C51.4981 21.2763 51.9336 20.8407 52.468 20.8407C53.0024 20.8407 53.4342 21.2763 53.4342 21.8106V25.6498C54.4406 25.2107 55.3702 24.6397 56.2083 23.9589V20.0209C56.2083 19.1608 55.8532 18.3775 55.2823 17.8067C54.715 17.2394 53.9319 16.8879 53.0718 16.8879H52.0582V16.8881ZM25.3886 44.6122C26.223 44.4512 27.1124 44.3193 28.0274 44.217C28.7924 44.1364 29.5682 44.0779 30.3331 44.0523V34.6316H20.6526C20.6746 35.6015 20.7257 36.5567 20.8063 37.4901C20.9052 38.6246 21.0442 39.7117 21.2162 40.7476C22.1898 41.3331 23.0828 42.0357 23.8807 42.8336C24.4298 43.3824 24.9349 43.9789 25.3886 44.6122ZM32.2729 44.0485C35.1495 44.1363 37.8653 44.6194 40.2881 45.41C41.2689 42.2624 41.869 38.5804 41.9534 34.6314H32.2729V44.0485ZM42.0996 46.0834C44.0028 46.8813 45.6717 47.884 47.0332 49.0443C48.391 47.6572 49.5657 46.0872 50.521 44.3817C50.781 43.9168 51.3666 43.7485 51.835 44.0083C52.2999 44.2643 52.4682 44.8537 52.2084 45.3185C50.1259 49.048 47.0808 52.1553 43.4028 54.3147C39.8489 56.4008 35.7132 57.5977 31.3031 57.5977C30.4796 57.5977 29.6489 57.5538 28.8181 57.4696C28.2837 57.4111 27.753 57.3415 27.2296 57.2501C26.5342 59.2921 25.3777 61.1261 23.8809 62.6193C21.3518 65.1479 17.8528 66.7144 13.9881 66.7144C10.2586 66.7144 6.72316 65.2431 4.09907 62.619C1.56652 60.0862 0 56.5874 0 52.7261C0 48.8611 1.56652 45.3661 4.09907 42.8334C5.27748 41.6514 6.67203 40.6813 8.21273 39.9823C7.97116 39.104 7.78085 38.2071 7.64179 37.2921C7.46245 36.1064 7.3673 34.895 7.3673 33.6616C7.3673 32.2891 7.4844 30.935 7.71138 29.6137C7.94185 28.2668 8.28232 26.9565 8.72879 25.6939C8.90813 25.1888 9.46073 24.9253 9.9622 25.1048C10.4672 25.2804 10.7307 25.8331 10.5513 26.3382C10.1452 27.4947 9.82677 28.6989 9.61799 29.9397C9.46435 30.8362 9.36557 31.7549 9.32516 32.6956H18.7164C18.8005 28.5086 19.4448 24.5962 20.5061 21.2399C18.6029 20.442 16.934 19.4393 15.5725 18.2829C14.3245 19.5564 13.2302 20.9838 12.3225 22.532C12.0516 22.9894 11.4625 23.1431 11.0013 22.8759C10.5402 22.605 10.3865 22.0123 10.6573 21.5548C12.7729 17.9534 15.8031 14.9521 19.4264 12.877C22.9293 10.8712 26.9807 9.72567 31.303 9.72567C32.1265 9.72567 32.9572 9.76957 33.788 9.85749C34.3224 9.91236 34.8531 9.98557 35.3765 10.0734C36.0719 8.03132 37.232 6.20128 38.7252 4.70783C41.2542 2.17529 44.753 0.608765 48.6179 0.608765C52.479 0.608765 55.978 2.17529 58.5069 4.70783C61.0396 7.23702 62.606 10.7358 62.606 14.5971C62.606 18.4621 61.0396 21.9609 58.5069 24.4898C57.3284 25.6719 55.9339 26.6418 54.3932 27.3445C54.6348 28.223 54.8251 29.1197 54.9642 30.0311C55.1435 31.2169 55.2387 32.4282 55.2387 33.6616C55.2387 34.9389 55.1361 36.2053 54.9349 37.4533C54.7334 38.7232 54.4334 39.953 54.0454 41.1353C53.8808 41.644 53.3354 41.9222 52.8267 41.7574C52.318 41.5927 52.0435 41.0474 52.2083 40.5387C52.5668 39.4371 52.845 38.306 53.0317 37.1495C53.1598 36.3335 53.2439 35.4916 53.2807 34.6315H43.8894C43.8051 38.8148 43.1611 42.7273 42.0996 46.0834ZM45.6132 50.3729C44.4602 49.4248 43.0586 48.5904 41.4629 47.9133C41.1299 48.7697 40.7711 49.5786 40.3868 50.3399C39.4719 52.148 38.4033 53.6778 37.221 54.86C39.0656 54.3439 40.8114 53.5974 42.4254 52.6494C43.5563 51.987 44.625 51.222 45.6132 50.3729ZM39.6511 47.2363C37.4296 46.5153 34.9299 46.0724 32.2727 45.9846V55.5663C34.7139 55.0943 36.9501 52.8507 38.6629 49.4687C39.018 48.7697 39.3475 48.0231 39.6511 47.2363ZM30.3331 45.9882C29.6267 46.0138 28.9203 46.0652 28.2286 46.1383C27.6321 46.2043 27.0392 46.2883 26.4609 46.3835C27.4308 48.2866 27.9798 50.4425 27.9798 52.7261C27.9798 53.3118 27.9431 53.8901 27.8736 54.4573C28.3605 54.805 28.8581 55.0868 29.3706 55.2881C29.6889 55.4126 30.0075 55.5077 30.3331 55.57V45.9882ZM16.9928 16.9503C18.1458 17.902 19.5511 18.7328 21.1469 19.4135C21.4762 18.557 21.8349 17.7445 22.2193 16.9868C23.1342 15.1789 24.1992 13.649 25.3851 12.4669C23.6174 12.9608 21.9448 13.6673 20.3893 14.5565C19.1778 15.2485 18.0432 16.05 16.9928 16.9503ZM22.9548 20.087C25.1763 20.8115 27.6761 21.2508 30.3331 21.3386V11.757C27.892 12.229 25.6557 14.4725 23.9429 17.8581C23.588 18.5535 23.2585 19.3001 22.9548 20.087ZM32.2729 21.3387C33.0122 21.3168 33.7333 21.2655 34.4323 21.1887C35.0178 21.1264 35.5887 21.046 36.1487 20.9507C35.1752 19.0439 34.6262 16.8844 34.6262 14.5971C34.6262 14.0114 34.6629 13.4369 34.7323 12.8696C34.2493 12.5181 33.7479 12.24 33.2354 12.0387C32.917 11.9143 32.5985 11.8191 32.2729 11.7569V21.3387ZM37.221 22.7148C36.3792 22.8832 35.5192 23.0148 34.6371 23.1101C33.8576 23.1943 33.067 23.2528 32.2727 23.2748V32.6955H41.9532C41.9313 31.7219 41.88 30.7666 41.7996 29.8334C41.7007 28.6989 41.5616 27.6118 41.3896 26.5796C40.4198 25.9941 39.5231 25.2914 38.7252 24.4898C38.1762 23.9408 37.6712 23.3478 37.221 22.7148ZM30.3331 23.2748C27.4565 23.187 24.7408 22.7038 22.3179 21.9133C21.337 25.0644 20.7369 28.7427 20.6527 32.6955H30.3332V23.2748H30.3331ZM43.5013 27.6226C43.5928 28.2998 43.6696 28.9806 43.7283 29.6687C43.8123 30.6568 43.8673 31.6669 43.8893 32.6953H53.2805C53.2476 31.8902 53.1707 31.0959 53.0499 30.3199C52.9328 29.5368 52.7718 28.7719 52.574 28.0214C51.3187 28.3912 49.9902 28.5889 48.6178 28.5889C46.8098 28.589 45.0861 28.2449 43.5013 27.6226ZM19.1045 39.7005C19.013 39.0233 18.9361 38.3425 18.8776 37.6582C18.7934 36.6663 18.7385 35.6563 18.7166 34.6315H9.32529C9.35835 35.4366 9.43878 36.2272 9.55589 37.0068C9.67299 37.7864 9.834 38.555 10.0317 39.3054C11.287 38.9357 12.6156 38.7379 13.9881 38.7379C15.796 38.7378 17.5198 39.0783 19.1045 39.7005Z" fill="#7BB77B"/>
</svg>
