<svg width="71" height="50" viewBox="0 0 71 50" fill="none" xmlns="http://www.w3.org/2000/svg">
<path d="M69.6299 11.1759L54.6421 6.11062C54.0981 5.92756 53.5077 6.21879 53.3237 6.76297C53.1398 7.30715 53.4318 7.89751 53.976 8.0814L68.8207 13.0984L61.8331 16.5051C61.543 16.3094 61.2173 16.1592 60.8643 16.067L39.9049 10.5893C39.2386 7.16181 35.0186 5.72329 32.4265 8.16253C31.5294 9.00681 31.0149 10.1974 31.0149 11.429V11.4517C31.0223 12.9019 32.2225 14.0817 33.6908 14.0817H37.3095C38.2439 14.0817 39.1785 13.5941 39.6631 12.6761L59.2091 17.7846C53.0331 20.7956 39.1688 27.555 37.4014 28.4167C36.1538 29.0248 34.7639 28.9849 33.5985 28.4167L2.17906 13.0984L34.1107 2.30663C35.0064 2.00375 35.9934 2.00375 36.8891 2.30663L49.356 6.52014C49.9004 6.70389 50.4904 6.41225 50.6745 5.86779C50.8584 5.32361 50.5663 4.73325 50.0221 4.54936L37.5552 0.335848C36.2297 -0.111949 34.7701 -0.111949 33.4446 0.335848L1.36986 11.1759C-0.33424 11.7523 -0.488036 14.1125 1.13161 14.902L17.5926 22.9274C16.6871 27.2327 15.3044 31.8678 13.8017 35.9819C13.1865 37.6643 13.7165 39.536 15.1203 40.6393C19.8707 44.373 25.4837 47.2572 31.2365 49.1113C33.94 49.9823 36.9544 50.0159 39.7627 49.1113C45.5174 47.2564 51.1309 44.371 55.8789 40.6393C57.2877 39.5317 57.8105 37.6592 57.1974 35.9819C55.7264 31.959 54.3249 27.2937 53.4066 22.9278L61.1497 19.1528V34.807C59.8262 34.9083 58.7798 36.0152 58.7798 37.3641V40.3951C58.7798 40.8454 58.9753 41.2499 59.2846 41.5317L58.8982 47.3732C58.8228 48.5144 59.7301 49.4843 60.8742 49.4843H63.5056C64.6491 49.4843 65.5569 48.5148 65.4815 47.3732L65.0952 41.5317C65.4045 41.2499 65.6 40.8455 65.6 40.3951V37.364C65.6 36.015 64.5534 34.9082 63.23 34.8068V19.1302C63.23 18.8105 63.1797 18.5008 63.0898 18.2068L69.8682 14.9021C71.4858 14.1134 71.3368 11.7531 69.6299 11.1759ZM37.3095 12.0015H33.6908C33.3694 12.0015 33.0966 11.7449 33.0951 11.4465V11.429C33.0951 10.7589 33.3639 10.1369 33.8522 9.67733C35.3501 8.26765 37.8047 9.28237 37.9019 11.3099C37.9251 11.7954 37.6125 12.0015 37.3095 12.0015ZM54.0727 33.3081C48.4531 37.7062 40.4782 40.8524 37.7312 41.3761C37.1669 41.4837 36.7968 42.0285 36.9044 42.5926C37.012 43.157 37.5583 43.5272 38.1209 43.4194C40.9942 42.8715 48.8666 39.8121 54.7765 35.3894C54.9218 35.8039 55.0902 36.2759 55.2437 36.6959C55.5488 37.5308 55.2874 38.458 54.5934 39.0037C48.9921 43.4058 43.0898 45.8532 39.1246 47.1309C36.7563 47.8943 34.1839 47.8755 31.8746 47.1309C27.9095 45.8531 22.0071 43.4058 16.4058 39.0037C15.712 38.4583 15.4502 37.5312 15.7557 36.6958C15.7618 36.6792 15.7678 36.6622 15.7739 36.6456C15.925 36.2315 16.0925 35.7615 16.2228 35.3891C21.993 39.706 29.8439 42.8411 32.8774 43.4198C33.4424 43.5272 33.9864 43.1573 34.094 42.5932C34.2016 42.0289 33.8315 41.4841 33.2674 41.3765C30.674 40.8821 22.6718 37.8025 16.9266 33.308C17.7713 30.7248 18.7501 27.4051 19.5195 23.8668L32.6868 30.2863C34.44 31.1411 36.4914 31.1745 38.3131 30.2863L51.4796 23.8671C52.249 27.4052 53.2278 30.7249 54.0727 33.3081ZM60.9807 47.404L61.3426 41.9346H63.037L63.3986 47.404H60.9807ZM63.5197 37.3638V39.8542H60.86V37.3638C60.86 37.0999 61.0828 36.8769 61.3469 36.8769H63.0327C63.2966 36.877 63.5197 37.0999 63.5197 37.3638Z" fill="#7BB77B"/>
</svg>
