<svg width="61" height="60" viewBox="0 0 61 60" fill="none" xmlns="http://www.w3.org/2000/svg">
<path d="M0.858198 23.9997C0.679018 23.9997 0.504339 23.9436 0.358714 23.8392C0.21309 23.7348 0.103843 23.5874 0.0463305 23.4177C-0.0111818 23.248 -0.0140677 23.0645 0.0380787 22.8931C0.090225 22.7217 0.194781 22.5709 0.33705 22.462L10.6229 14.5925C10.8038 14.4593 11.0298 14.4025 11.2522 14.4343C11.4746 14.4661 11.6757 14.5839 11.8121 14.7624C11.9485 14.941 12.0093 15.1659 11.9815 15.3889C11.9537 15.6118 11.8395 15.8149 11.6634 15.9545L1.37763 23.8231C1.22885 23.938 1.04613 24.0001 0.858198 23.9997Z" fill="#7BB77B"/>
<path d="M59.1444 59.9999H0.858128C0.630797 59.9999 0.412777 59.9096 0.25203 59.7489C0.0912833 59.5881 0.000976563 59.3701 0.000976562 59.1428V23.1424C0.000976562 22.9151 0.0912833 22.6971 0.25203 22.5363C0.412777 22.3756 0.630797 22.2853 0.858128 22.2853C1.08546 22.2853 1.30348 22.3756 1.46423 22.5363C1.62497 22.6971 1.71528 22.9151 1.71528 23.1424V58.2856H58.2873V23.1424C58.2873 22.9151 58.3776 22.6971 58.5383 22.5363C58.6991 22.3756 58.9171 22.2853 59.1444 22.2853C59.3717 22.2853 59.5898 22.3756 59.7505 22.5363C59.9113 22.6971 60.0016 22.9151 60.0016 23.1424V59.1428C60.0016 59.3701 59.9113 59.5881 59.7505 59.7489C59.5898 59.9096 59.3717 59.9999 59.1444 59.9999Z" fill="#7BB77B"/>
<path d="M30.002 44.4083C26.9903 44.4122 24.0712 43.3676 21.7459 41.4537L0.317094 23.8041C0.141595 23.6595 0.0307187 23.4512 0.0088571 23.2248C-0.0130045 22.9985 0.0559393 22.7727 0.200522 22.5972C0.345104 22.4217 0.553481 22.3109 0.779813 22.289C1.00615 22.2671 1.23189 22.3361 1.40739 22.4807L22.8362 40.1303C24.8558 41.789 27.3884 42.6957 30.002 42.6957C32.6155 42.6957 35.1481 41.789 37.1677 40.1303L58.5965 22.4807C58.772 22.3361 58.9978 22.2671 59.2241 22.289C59.4504 22.3109 59.6588 22.4217 59.8034 22.5972C59.948 22.7727 60.0169 22.9985 59.9951 23.2248C59.9732 23.4512 59.8623 23.6595 59.6868 23.8041L38.258 41.4537C35.9327 43.3676 33.0136 44.4122 30.002 44.4083Z" fill="#7BB77B"/>
<path d="M59.145 60.0001C58.9464 60 58.754 59.9309 58.6007 59.8047L36.7434 41.8045C36.6565 41.7329 36.5845 41.6449 36.5316 41.5455C36.4787 41.4461 36.446 41.3373 36.4351 41.2252C36.4133 40.9989 36.4822 40.7731 36.6268 40.5976C36.7714 40.4221 36.9798 40.3112 37.2061 40.2894C37.4324 40.2675 37.6582 40.3365 37.8337 40.481L59.691 58.4812C59.8274 58.5935 59.9258 58.7452 59.9726 58.9156C60.0195 59.086 60.0126 59.2666 59.9528 59.4329C59.893 59.5992 59.7833 59.7429 59.6387 59.8444C59.4941 59.946 59.3217 60.0003 59.145 60.0001Z" fill="#7BB77B"/>
<path d="M0.858333 60.0001C0.681647 60.0003 0.509202 59.946 0.3646 59.8444C0.219999 59.7429 0.110306 59.5992 0.0505351 59.4329C-0.00923559 59.2666 -0.0161637 59.086 0.0306991 58.9156C0.0775618 58.7452 0.175925 58.5935 0.312328 58.4812L22.1697 40.481C22.3452 40.3365 22.5709 40.2675 22.7973 40.2894C23.0236 40.3112 23.232 40.4221 23.3766 40.5976C23.5211 40.7731 23.5901 40.9989 23.5682 41.2252C23.5464 41.4515 23.4355 41.6599 23.26 41.8045L1.40262 59.8047C1.24931 59.9309 1.05692 60 0.858333 60.0001Z" fill="#7BB77B"/>
<path d="M39.721 9.1452C39.5329 9.14503 39.3501 9.08298 39.2007 8.96863L30.0017 1.9357L20.8028 8.96863C20.6222 9.10673 20.3941 9.16743 20.1687 9.13737C19.9434 9.10731 19.7392 8.98896 19.6011 8.80834C19.463 8.62773 19.4023 8.39965 19.4323 8.17428C19.4624 7.94892 19.5807 7.74472 19.7614 7.60662L29.4815 0.175972C29.6309 0.061833 29.8137 0 30.0017 0C30.1898 0 30.3726 0.061833 30.522 0.175972L40.2421 7.60662C40.3865 7.7149 40.4931 7.86601 40.5465 8.0384C40.6 8.21079 40.5977 8.39566 40.54 8.56667C40.4822 8.73767 40.3719 8.88607 40.2249 8.99073C40.0778 9.09538 39.9015 9.15094 39.721 9.14949V9.1452Z" fill="#7BB77B"/>
<path d="M59.1451 23.9997C58.9571 24.0001 58.7744 23.938 58.6256 23.8231L48.3398 15.9545C48.1637 15.8149 48.0495 15.6118 48.0217 15.3889C47.9939 15.1659 48.0548 14.941 48.1912 14.7624C48.3276 14.5839 48.5286 14.4661 48.751 14.4343C48.9734 14.4025 49.1994 14.4593 49.3804 14.5925L59.6662 22.462C59.8085 22.5709 59.913 22.7217 59.9652 22.8931C60.0173 23.0645 60.0144 23.248 59.9569 23.4177C59.8994 23.5874 59.7902 23.7348 59.6445 23.8392C59.4989 23.9436 59.3242 23.9997 59.1451 23.9997Z" fill="#7BB77B"/>
<path d="M48.8589 32.4683C48.6316 32.4683 48.4136 32.378 48.2528 32.2172C48.0921 32.0565 48.0018 31.8385 48.0018 31.6111V9.14521H12.0014V31.6111C12.0014 31.8385 11.9111 32.0565 11.7504 32.2172C11.5896 32.378 11.3716 32.4683 11.1443 32.4683C10.9169 32.4683 10.6989 32.378 10.5382 32.2172C10.3774 32.0565 10.2871 31.8385 10.2871 31.6111V8.28806C10.2871 8.06073 10.3774 7.84271 10.5382 7.68196C10.6989 7.52122 10.9169 7.43091 11.1443 7.43091H48.8589C49.0862 7.43091 49.3043 7.52122 49.465 7.68196C49.6258 7.84271 49.7161 8.06073 49.7161 8.28806V31.6111C49.7161 31.8385 49.6258 32.0565 49.465 32.2172C49.3043 32.378 49.0862 32.4683 48.8589 32.4683Z" fill="#7BB77B"/>
<path d="M41.7872 17.1425H18.2155C17.9882 17.1425 17.7702 17.0522 17.6095 16.8915C17.4487 16.7307 17.3584 16.5127 17.3584 16.2854C17.3584 16.058 17.4487 15.84 17.6095 15.6793C17.7702 15.5185 17.9882 15.4282 18.2155 15.4282H41.7872C42.0145 15.4282 42.2326 15.5185 42.3933 15.6793C42.5541 15.84 42.6444 16.058 42.6444 16.2854C42.6444 16.5127 42.5541 16.7307 42.3933 16.8915C42.2326 17.0522 42.0145 17.1425 41.7872 17.1425Z" fill="#7BB77B"/>
<path d="M41.7872 23.3566H18.2155C17.9882 23.3566 17.7702 23.2663 17.6095 23.1056C17.4487 22.9448 17.3584 22.7268 17.3584 22.4995C17.3584 22.2722 17.4487 22.0541 17.6095 21.8934C17.7702 21.7326 17.9882 21.6423 18.2155 21.6423H41.7872C42.0145 21.6423 42.2326 21.7326 42.3933 21.8934C42.5541 22.0541 42.6444 22.2722 42.6444 22.4995C42.6444 22.7268 42.5541 22.9448 42.3933 23.1056C42.2326 23.2663 42.0145 23.3566 41.7872 23.3566Z" fill="#7BB77B"/>
<path d="M41.7872 29.5711H18.2155C17.9882 29.5711 17.7702 29.4808 17.6095 29.3201C17.4487 29.1593 17.3584 28.9413 17.3584 28.714C17.3584 28.4866 17.4487 28.2686 17.6095 28.1079C17.7702 27.9471 17.9882 27.8568 18.2155 27.8568H41.7872C42.0145 27.8568 42.2326 27.9471 42.3933 28.1079C42.5541 28.2686 42.6444 28.4866 42.6444 28.714C42.6444 28.9413 42.5541 29.1593 42.3933 29.3201C42.2326 29.4808 42.0145 29.5711 41.7872 29.5711Z" fill="#7BB77B"/>
</svg>
